<?xml version="1.0" standalone="no"?>
<!DOCTYPE svg PUBLIC "-//W3C//DTD SVG 1.1//EN" "http://www.w3.org/Graphics/SVG/1.1/DTD/svg11.dtd" >
<svg xmlns="http://www.w3.org/2000/svg" xmlns:xlink="http://www.w3.org/1999/xlink" version="1.1">
<metadata>
Created by FontForge 20170924 at Fri Jan  1 00:00:00 1904
 By www-data
a_CooperBlack *Arsenal Company (c) 1996*  FAX: (095)924-3775; e-Mail: arsenal@itco.msk.su; Phone: (095)924-5811 (Design and Featuring W.Chufarofsky)
</metadata>
<defs>
<font id="a_CooperBlack" horiz-adv-x="589" >
  <font-face 
    font-family="a_CooperBlack"
    font-weight="400"
    font-stretch="normal"
    units-per-em="1000"
    panose-1="2 8 9 4 4 3 11 2 4 4"
    ascent="800"
    descent="-200"
    x-height="518"
    cap-height="702"
    bbox="-33 -227 1248 899"
    underline-thickness="60"
    underline-position="-240"
    unicode-range="U+0020-203A"
  />
<missing-glyph horiz-adv-x="703" 
d="M40 0v822h623v-822h-623zM80 40h543v742h-543v-742z" />
    <glyph glyph-name=".notdef" horiz-adv-x="703" 
d="M40 0v822h623v-822h-623zM80 40h543v742h-543v-742z" />
    <glyph glyph-name="space" unicode=" " horiz-adv-x="360" 
 />
    <glyph glyph-name="exclam" unicode="!" horiz-adv-x="363" 
d="M70 100q0 48 32 81t79 33t79.5 -33t32.5 -81q0 -47 -32.5 -80t-79.5 -33t-79 33t-32 80zM180 273q-25 0 -60 67q-29 56 -43.5 112t-14.5 109q0 73 32 113t87 40q56 0 87.5 -40t31.5 -113q0 -86 -40 -184q-44 -104 -80 -104z" />
    <glyph glyph-name="quotedbl" unicode="&#x22;" horiz-adv-x="336" 
d="M98 394h-22l-43 219q-1 5 -1.5 9t-0.5 9q0 25 15.5 41.5t40.5 16.5t40.5 -16.5t15.5 -41.5q0 -5 -0.5 -9t-1.5 -9zM261 394h-23l-42 219q-1 5 -1.5 9t-0.5 9q0 25 15 41.5t40 16.5t40.5 -16.5t15.5 -41.5q0 -5 -0.5 -9t-1.5 -9z" />
    <glyph glyph-name="numbersign" unicode="#" 
d="M121 147l4 22q3 19 -0.5 27t-23.5 8q-1 0 -17.5 -1.5t-30.5 -1.5q-20 0 -20 16q0 15 8.5 32t20.5 31.5t25 24.5t22 10q5 0 12 -1t12 -1q11 0 14 20l4 28v7q0 13 -15 13q-3 0 -20.5 -1t-37.5 -1q-21 0 -21 15q0 5 5 16.5t12 24t13.5 23t9.5 14.5q15 21 38 21q5 0 11.5 -1
t10.5 -1q12 0 15 19l3 19q1 12 2.5 29.5t1.5 39.5q0 13 11 25t27.5 21t35 14t34.5 5q17 0 17 -14q0 -13 -3 -24t-8 -42l-10 -72l-1.5 -7.5t-0.5 -3.5q0 -13 22 -13h26q15 0 20.5 4.5t7.5 19.5l2 18q2 13 3 30.5t1 37.5q0 13 11 25t27.5 21t35.5 14.5t35 5.5q7 0 12 -4t5 -10
q0 -13 -3.5 -24t-8.5 -42l-10 -72q-1 -5 -1 -8v-4q0 -12 17 -12h29.5t16.5 1q6 1 9.5 1h4.5q16 0 16 -16q0 -4 -6 -20t-16 -33t-22 -31t-24 -14q-4 0 -14 2t-17 2q-11 0 -14 -19l-3 -23q-1 -5 -1.5 -8t-0.5 -5q0 -15 28 -15q11 0 19.5 0.5t16.5 1.5q5 0 8 0.5t6 0.5
q16 0 16 -15q0 -9 -6.5 -25.5t-16.5 -33t-22 -28.5t-23 -12q-6 0 -15.5 1.5t-16.5 1.5q-8 0 -12.5 -22t-8.5 -49t-7.5 -51t-8.5 -28q-4 -3 -17.5 -9.5t-29 -13t-29.5 -11t-19 -4.5q-16 0 -16 18q0 25 6.5 54.5t11.5 61.5l4 28q2 8 2 12q0 17 -22 17h-29q-21 0 -23 -21
l-2 -10q-6 -42 -6 -82q0 -15 -10.5 -29t-27 -25t-36 -17.5t-37.5 -6.5q-16 0 -16 19q0 22 6.5 53t12.5 62zM275 309h33q13 0 17.5 3.5t5.5 17.5l4 28q2 12 2 11q0 12 -19 12h-33q-13 0 -17 -3.5t-6 -16.5l-4 -28q-1 -4 -1 -11q0 -13 18 -13z" />
    <glyph glyph-name="dollar" unicode="$" 
d="M216 2q-104 19 -151.5 46.5t-47.5 78.5q0 87 54 87q33 0 59 -36l22.5 -30t22.5 -24.5t27 -16.5t36 -6t33.5 9.5t12.5 25.5q0 27 -35 42.5t-91 45.5q-65 36 -98.5 74.5t-33.5 105.5q0 42 16 79t45 65t71 45t95 20v38q0 19 8.5 23t37.5 4h30q23 0 32 -4t9 -21v-40
q178 -33 178 -114q0 -35 -23 -55t-51 -20q-27 0 -42 11.5t-31 28.5q-21 21 -40.5 36.5t-53.5 15.5q-26 0 -41.5 -10t-15.5 -23q0 -28 31.5 -41.5t85.5 -36.5q100 -41 149 -86t49 -115q0 -88 -57 -141.5t-166 -61.5v-40q0 -19 -22 -27.5t-73 -8.5q-17 0 -21 5.5t-5 19.5z" />
    <glyph glyph-name="percent" unicode="%" horiz-adv-x="884" 
d="M24 466q0 41 14 75t37.5 58t55.5 37.5t68 13.5q77 0 127.5 -53t50.5 -142q0 -41 -13 -75.5t-35.5 -59t-53.5 -38.5t-68 -14q-39 0 -72 15t-58 41t-39 62.5t-14 79.5zM164 484q0 -51 14 -81.5t31 -30.5q29 0 29 61q0 52 -14 83t-29 31q-31 0 -31 -63zM202 45q0 13 53.5 87
t145.5 226q90 149 132.5 227.5t58.5 78.5q10 0 31 -12t56 -35q9 -7 9 -16q0 -10 -9.5 -21.5t-25.5 -30.5q-36 -43 -96 -131.5t-140 -222.5q-53 -87 -75.5 -137t-25.5 -57q-9 -18 -21 -18q-16 0 -80 43q-13 8 -13 19zM502 197q0 41 14 75t38 58.5t56.5 38t68.5 13.5
q77 0 127 -53.5t50 -141.5q0 -41 -13 -75.5t-36 -59t-54 -38.5t-68 -14q-39 0 -72 14.5t-58 41t-39 62.5t-14 79zM643 217q0 -52 14.5 -82.5t30.5 -30.5q28 0 28 62q0 51 -13.5 82t-29.5 31q-30 0 -30 -62z" />
    <glyph glyph-name="ampersand" unicode="&#x26;" horiz-adv-x="919" 
d="M167 474q-10 19 -15.5 36.5t-5.5 35.5q0 74 56.5 122t155.5 48q76 0 118 -23t42 -55q0 -48 -53 -48q-22 0 -42.5 6.5t-39.5 6.5q-26 0 -42.5 -16.5t-16.5 -41.5q0 -41 40 -63q18 -10 34 -14t16 -26q0 -29 -19 -56.5t-48 -27.5q-13 0 -25 5t-21 5q-19 0 -19 -58
q0 -73 52 -133q50 -55 107 -55q43 0 72 25t29 54q0 22 -13.5 35.5t-33.5 13.5q-17 0 -30.5 -12.5t-28.5 -12.5q-14 0 -24.5 14.5t-10.5 37.5q0 38 33 70.5t99 67.5q45 24 82 41.5t63.5 33.5t41 32.5t14.5 37.5q0 16 -8.5 27t-20.5 11q-11 0 -21.5 -8t-22.5 -8q-27 0 -27 31
q0 16 10 32.5t27 30t41 22t53 8.5q64 0 102 -40.5t38 -108.5q0 -77 -53.5 -131.5t-160.5 -90.5q32 -51 32 -115q0 -40 -22.5 -82.5t-64.5 -75.5q-99 -79 -251 -79q-79 0 -142 22t-107.5 61t-68.5 92.5t-24 115.5q0 66 31.5 117t92.5 83z" />
    <glyph glyph-name="quotesingle" unicode="'" horiz-adv-x="175" 
d="M98 394h-21l-43 219q-1 5 -1.5 9t-0.5 9q0 25 15.5 41.5t39.5 16.5q25 0 40.5 -16.5t15.5 -41.5q0 -5 -0.5 -9t-1.5 -9z" />
    <glyph glyph-name="parenleft" unicode="(" horiz-adv-x="480" 
d="M57 296q0 91 30.5 169.5t85.5 136.5q59 62 123.5 94t110.5 32q49 0 49 -39q0 -12 -9 -19q-17 -16 -37.5 -30t-33.5 -33q-32 -44 -44 -118t-12 -180q0 -99 10.5 -171t28.5 -116q14 -34 32.5 -54.5t32.5 -35.5q12 -12 20.5 -21t8.5 -22t-10.5 -22t-29.5 -9q-30 0 -80 19
t-105 60q-87 66 -129 153.5t-42 205.5z" />
    <glyph glyph-name="parenright" unicode=")" horiz-adv-x="480" 
d="M423 296q0 -118 -42 -205.5t-129 -153.5q-55 -41 -105 -60t-80 -19q-19 0 -29.5 9t-10.5 22t8.5 22t20.5 21q14 15 32.5 35.5t32.5 54.5q18 44 28.5 116t10.5 171q0 106 -12 180t-44 118q-13 19 -33.5 33t-37.5 30q-9 8 -9 19q0 39 49 39q46 0 110.5 -32t123.5 -94
q55 -58 85.5 -136.5t30.5 -169.5z" />
    <glyph glyph-name="asterisk" unicode="*" horiz-adv-x="526" 
d="M310 553q9 0 30 29q13 18 26.5 26.5t32.5 8.5q29 0 48.5 -21.5t19.5 -53.5q0 -28 -19 -47.5t-46 -19.5q-16 0 -31 6t-31 6t-16 -11q0 -12 37 -24q56 -20 56 -67q0 -29 -22.5 -50.5t-51.5 -21.5q-26 0 -45.5 19.5t-19.5 46.5q0 7 0.5 11.5t0.5 6.5q0 36 -16 36t-16 -37
v-14q0 -30 -18.5 -49.5t-47.5 -19.5q-28 0 -50 21.5t-22 49.5q0 48 54 67q37 12 37 26q0 11 -14 11q-16 0 -30.5 -6.5t-30.5 -6.5q-28 0 -46.5 18.5t-18.5 47.5q0 32 19 53.5t48 21.5q19 0 32.5 -9t26.5 -26q21 -28 32 -28t11 9t-6 18.5t-12.5 20t-12.5 22t-6 25.5
q0 28 19.5 47.5t51.5 19.5q31 0 51 -19.5t20 -47.5q0 -14 -6 -25.5t-12.5 -22t-12.5 -19.5t-6 -17q0 -11 13 -11z" />
    <glyph glyph-name="plus" unicode="+" 
d="M213 236h-24q-35 0 -58.5 -3t-50.5 -3q-10 0 -16.5 8t-6.5 15q0 15 5.5 33.5t14.5 34.5t20 26.5t22 10.5q27 0 50 -2.5t31 -2.5h13q26 0 26 24v33q0 13 -3.5 35.5t-3.5 42.5q0 10 14 20t32.5 18t36 12.5t25.5 4.5q24 0 24 -21q0 -11 -2.5 -27.5t-2.5 -47.5v-70
q0 -24 26 -24h54q30 0 45.5 2.5t35.5 2.5q10 0 15 -7.5t5 -15.5q0 -9 -4 -27t-12 -35t-18 -30t-22 -13q-27 0 -39.5 3t-37.5 3h-22q-14 0 -20 -5.5t-6 -20.5v-9q0 -17 2.5 -42t2.5 -51q0 -10 -11 -21t-28 -20t-35.5 -14.5t-33.5 -5.5q-9 0 -16.5 9.5t-7.5 25.5q0 28 3.5 52
t3.5 56v20q0 15 -6 20.5t-20 5.5z" />
    <glyph glyph-name="comma" unicode="," horiz-adv-x="294" 
d="M38 118q0 52 30 83.5t77 31.5q50 0 83 -41.5t33 -114.5q0 -51 -15 -96t-45 -92q-43 -67 -65 -67t-36 8t-14 17q0 7 5 14.5t13 18.5q19 28 28 53t9 43q0 21 -8.5 24.5t-25.5 11.5q-32 13 -50.5 41t-18.5 65z" />
    <glyph glyph-name="hyphen" unicode="-" horiz-adv-x="365" 
d="M34 206q0 28 7.5 56t17.5 56q13 37 38 37q5 0 32.5 -2.5t77.5 -2.5q41 0 66.5 1t33.5 1q24 0 24 -26q0 -69 -33 -124q-12 -20 -20 -23.5t-34 -3.5q-22 0 -47 2.5t-53 2.5q-36 0 -56.5 -4t-27.5 -4q-16 0 -21 7t-5 27z" />
    <glyph glyph-name="period" unicode="." horiz-adv-x="294" 
d="M31 105q0 49 33.5 83t82.5 34t82.5 -34t33.5 -83t-33.5 -83.5t-82.5 -34.5t-82.5 34.5t-33.5 83.5z" />
    <glyph glyph-name="slash" unicode="/" horiz-adv-x="365" 
d="M143 -48q-4 -15 -23.5 -18t-57.5 -3q-17 0 -24.5 2t-7.5 10v7l194 763q4 16 25.5 19.5t67.5 3.5q19 0 19 -13q0 -5 -3 -17z" />
    <glyph glyph-name="zero" unicode="0" 
d="M18 315q0 68 19 122t61 98q40 42 91 64.5t107 22.5q57 0 108.5 -24t88.5 -67q78 -91 78 -233q0 -130 -72 -217q-79 -94 -195 -94q-57 0 -108.5 23t-92.5 67q-85 92 -85 238zM242 353q0 -87 22.5 -140.5t46.5 -53.5q39 0 39 93q0 91 -22 144.5t-45 53.5q-41 0 -41 -97z
" />
    <glyph glyph-name="one" unicode="1" 
d="M120 106q23 0 32 11t13 40q4 26 6.5 82.5t2.5 142.5q0 40 -6 55.5t-43 15.5q-11 0 -19.5 -0.5t-13.5 -0.5q-37 0 -37 38q0 40 92 79q56 24 128.5 38.5t135.5 14.5q38 0 56 -10t18 -33q0 -14 -4.5 -22t-12 -13t-16.5 -8.5t-17 -8.5q-13 -8 -15.5 -39t-2.5 -87v-56
q0 -95 3 -148.5t18 -66.5q21 -17 41.5 -18t37.5 -5q24 -6 24 -42q0 -41 -53.5 -55t-165.5 -14q-141 0 -210 13t-69 56t46 43q8 0 15.5 -1t15.5 -1z" />
    <glyph glyph-name="two" unicode="2" 
d="M357 0h-279q-61 0 -61 33q0 22 33 54.5t84 91.5q111 129 111 195q0 17 -14 29.5t-36 12.5q-17 0 -30 -8.5t-28 -19.5q-14 -10 -25.5 -18t-25.5 -8q-26 0 -45 20.5t-19 49.5q0 40 50 87q46 43 108 66t138 23q106 0 166 -49t60 -121q0 -50 -24.5 -87t-64.5 -78
q-30 -31 -49.5 -49.5t-19.5 -36.5q0 -26 34 -26q29 0 55 18q19 13 30.5 26t27.5 13q19 0 33.5 -22.5t14.5 -64.5q0 -41 -10.5 -74.5t-26.5 -58t-35 -38t-37 -13.5q-13 0 -22 7t-17 19q-12 17 -25 22t-51 5z" />
    <glyph glyph-name="three" unicode="3" 
d="M232 -99q-56 0 -101 8.5t-77 22t-49 30t-17 32.5q0 34 14 52t38 18q23 0 55 -11t73 -11q55 0 85.5 24.5t30.5 61.5q0 34 -24 56.5t-65 22.5q-11 0 -23.5 -1.5t-28.5 -1.5q-23 0 -37 20.5t-14 52.5q0 18 4 26.5t11.5 13t18 7t24.5 7.5q70 27 70 84q0 27 -18 44.5t-47 17.5
q-25 0 -47 -12t-42 -12q-16 0 -28 16t-12 41q0 21 7 33t23 22q90 57 194 57q118 0 185 -42.5t67 -110.5q0 -63 -51 -103q-11 -9 -20.5 -13.5t-9.5 -12.5q0 -10 16 -10.5t37 -7.5q98 -33 98 -153q0 -59 -24 -108t-68.5 -84.5t-107.5 -55.5t-140 -20z" />
    <glyph glyph-name="four" unicode="4" 
d="M70 0q-38 0 -53 19.5t-15 58.5q0 33 13 66t37 70t57.5 80t75.5 97q86 109 148 168.5t121 59.5q40 0 52.5 -15.5t12.5 -57.5q0 -100 -5 -187t-5 -161v-7q0 -11 1.5 -14.5t9.5 -3.5q2 0 6.5 0.5t13.5 0.5q18 0 23.5 -7t5.5 -27v-100q0 -16 -4.5 -24t-16.5 -13
q-8 -3 -14.5 -2.5t-10.5 -0.5t-6 -4.5t-2 -13.5q0 -33 1.5 -52.5t1.5 -27.5q0 -23 -12.5 -28.5t-47.5 -5.5h-50q-49 0 -77.5 1t-36.5 5q-12 5 -14.5 13.5t-2.5 21.5v78q0 13 -11 13h-196zM289 328q0 13 -3 19t-14 6t-25 -14.5t-36 -41.5q-75 -96 -75 -114q0 -20 48 -20h67
q25 0 31.5 7t6.5 31v127z" />
    <glyph glyph-name="five" unicode="5" 
d="M169 609h337q30 0 38 -9.5t8 -49.5q0 -62 -25 -97t-70 -35h-190q-25 0 -39.5 -4.5t-14.5 -29.5q0 -10 23.5 -11.5t67.5 -11.5q126 -26 188.5 -74.5t62.5 -139.5q0 -97 -91 -168q-46 -37 -111.5 -58.5t-133.5 -21.5q-93 0 -143 24.5t-50 68.5q0 58 34 58q14 0 42 -8.5
t69 -8.5q37 0 57.5 18.5t20.5 48.5q0 58 -113 85q-57 13 -86 21.5t-29 41.5q0 14 4.5 42.5t14.5 68.5t27 89.5t42 103.5q15 32 25 44.5t35 12.5z" />
    <glyph glyph-name="six" unicode="6" 
d="M292 437q49 25 93 25q85 0 135.5 -54.5t50.5 -148.5q0 -59 -19.5 -104.5t-60.5 -86.5q-83 -83 -201 -83q-58 0 -107.5 21.5t-84.5 61t-55 95.5t-20 126q0 162 158 337q26 28 45.5 42.5t39.5 14.5q40 0 99 -33q18 -10 27.5 -20t9.5 -25q0 -14 -11.5 -27.5t-29.5 -32.5
q-24 -26 -41.5 -52.5t-27.5 -55.5zM318 144q29 0 29 55q0 50 -18 82t-40 32q-32 0 -32 -56q0 -49 19.5 -81t41.5 -32z" />
    <glyph glyph-name="seven" unicode="7" 
d="M243 609h252q43 0 62.5 -9.5t19.5 -39.5q0 -45 -49.5 -183t-123.5 -375q-13 -40 -20.5 -68t-14.5 -42q-9 -18 -60 -18q-33 0 -59.5 6.5t-45.5 15.5t-29.5 19.5t-10.5 19.5q0 22 30.5 80t80.5 158q44 87 67 136.5t23 64.5q0 27 -34 27h-111q-19 0 -32.5 -4.5t-25.5 -17.5
q-16 -17 -29 -29t-36 -12q-35 0 -56 28.5t-21 81.5q0 86 29 137t68 51q11 0 22 -7t24 -13q15 -5 35 -6t45 -1z" />
    <glyph glyph-name="eight" unicode="8" 
d="M84 322q-64 55 -64 140q0 92 70 147t198 55q130 0 200 -43.5t70 -119.5q0 -83 -80 -124q96 -55 96 -167q0 -51 -20.5 -92.5t-57.5 -71t-89.5 -46t-116.5 -16.5q-124 0 -209 68q-35 28 -51 60.5t-16 75.5q0 84 70 134zM197 252q-10 -22 -10 -39q0 -43 30.5 -73t71.5 -30
q24 0 39 12t15 31q0 33 -36.5 52t-109.5 47zM340 440q27 24 27 57q0 25 -16.5 40.5t-44.5 15.5q-20 0 -32 -10.5t-12 -27.5q0 -42 78 -75z" />
    <glyph glyph-name="nine" unicode="9" 
d="M277 134q-33 -9 -62 -9q-40 0 -74.5 15.5t-61.5 47.5q-27 31 -43.5 80t-16.5 103q0 55 19.5 101t55.5 79t87.5 51.5t114.5 18.5t114 -18.5t88 -51.5t57 -79t20 -102q0 -209 -190 -435q-23 -26 -40 -39.5t-37 -13.5q-18 0 -44.5 8t-55.5 27q-37 24 -37 43q0 12 16.5 24
t35.5 35q51 60 54 115zM324 284q11 0 19 11t8 31q0 50 -21.5 87.5t-47.5 37.5q-12 0 -21.5 -12.5t-9.5 -35.5q0 -52 24 -85.5t49 -33.5z" />
    <glyph glyph-name="colon" unicode=":" horiz-adv-x="349" 
d="M59 105q0 49 33 83t82 34t82.5 -34t33.5 -83t-33.5 -83.5t-82.5 -34.5t-82 34.5t-33 83.5zM59 403q0 50 33 84.5t82 34.5t82.5 -34.5t33.5 -84.5q0 -49 -33.5 -83.5t-82.5 -34.5t-82 34.5t-33 83.5z" />
    <glyph glyph-name="semicolon" unicode=";" horiz-adv-x="349" 
d="M61 405q0 49 33.5 83t80.5 34t80 -34t33 -83q0 -48 -33 -81.5t-80 -33.5q-48 0 -81 33.5t-33 81.5zM61 118q0 52 30 83.5t76 31.5q50 0 83.5 -41.5t33.5 -114.5q0 -51 -14.5 -96t-44.5 -92q-43 -67 -66 -67t-36.5 8t-13.5 17q0 7 5.5 14.5t12.5 18.5q19 28 28 53t9 43
q0 21 -8.5 24.5t-26.5 11.5q-31 13 -49.5 41t-18.5 65z" />
    <glyph glyph-name="less" unicode="&#x3c;" 
d="M516 542v-141l-273 -114l273 -114v-140l-447 188v132z" />
    <glyph glyph-name="equal" unicode="=" 
d="M69 414q0 20 14.5 34t33.5 14h354q19 0 33.5 -14t14.5 -34v-32q0 -20 -14.5 -34t-33.5 -14h-354q-19 0 -33.5 14t-14.5 34v32zM69 193q0 19 14.5 33.5t33.5 14.5h354q19 0 33.5 -14.5t14.5 -33.5v-32q0 -19 -14.5 -33.5t-33.5 -14.5h-354q-19 0 -33.5 14.5t-14.5 33.5v32
z" />
    <glyph glyph-name="greater" unicode="&#x3e;" 
d="M68 542l447 -189v-132l-447 -188v140l273 114l-273 114v141z" />
    <glyph glyph-name="question" unicode="?" horiz-adv-x="539" 
d="M119 435q-43 0 -66.5 23t-23.5 65q0 50 41 100q34 43 85 66.5t109 23.5q52 0 97 -16t77.5 -42t51 -60t18.5 -70q0 -53 -37 -92q-35 -35 -68.5 -50t-46.5 -32q-9 -13 -11.5 -30t-9.5 -28q-18 -27 -54 -27q-40 0 -58 15t-18 53q0 34 13 60.5t28 53.5q14 26 23.5 47.5
t9.5 45.5q0 26 -12 42.5t-27 16.5q-19 0 -24.5 -21.5t-5.5 -65.5q0 -26 -26.5 -52t-64.5 -26zM163 99q0 48 32.5 81t79.5 33t79.5 -33t32.5 -81q0 -47 -32.5 -80t-79.5 -33t-79.5 33t-32.5 80z" />
    <glyph glyph-name="at" unicode="@" horiz-adv-x="932" 
d="M525 439q-25 0 -44 -16t-38 -48q-33 -59 -49 -118.5t-16 -92.5q0 -67 51 -67q39 0 79 82q15 31 26.5 63t18.5 60.5t10.5 52t3.5 37.5q0 47 -42 47zM537 143q-55 -88 -130 -88q-69 0 -110.5 43.5t-41.5 119.5q0 111 80 189q36 36 78 55t83 19q92 0 101 -81l21 70h108
l-82 -296q-6 -24 -6 -40q0 -44 31 -44q9 0 35 13t51 39q83 83 83 218q0 105 -50 172q-38 51 -107 83t-150 32q-67 0 -129.5 -22.5t-113.5 -65.5q-68 -58 -103 -139.5t-35 -181.5q0 -77 24 -138.5t68 -104.5t108 -66t143 -23q83 0 152 25t141 72l21 -31q-141 -108 -312 -108
q-102 0 -183 27.5t-137.5 78.5t-86.5 122t-30 158q0 85 30 161t89 136q65 67 154 104.5t190 37.5q80 0 145.5 -23.5t112 -67t72 -104t25.5 -133.5t-22 -132t-69 -109q-31 -33 -67.5 -49.5t-75.5 -16.5q-47 0 -75.5 25t-29.5 64z" />
    <glyph glyph-name="A" unicode="A" horiz-adv-x="810" 
d="M366 169h-39q-55 0 -81 -8t-26 -33q0 -14 9.5 -20t21.5 -11t21.5 -13.5t9.5 -28.5q0 -34 -37 -49t-113 -15q-73 0 -105.5 16.5t-32.5 47.5q0 17 5 24.5t14 12.5t21.5 9.5t26.5 15.5q17 12 38 61.5t58 131.5q55 124 90 200t35 110q0 12 -3.5 18.5t-3.5 28.5q0 5 2.5 13
t11.5 15.5t27 13t50 5.5q39 0 66.5 -6t50 -26t43.5 -58t48 -102l93 -223q14 -33 26.5 -64.5t23.5 -56.5t21 -41.5t19 -19.5q33 -13 43 -25t10 -37q0 -12 -9 -23.5t-31.5 -20.5t-60.5 -14.5t-95 -5.5q-106 0 -153.5 15t-47.5 49q0 19 9 28.5t20.5 15.5t20.5 12t9 18
q0 40 -106 40zM282 299h147q-25 69 -45 103t-31 34t-27.5 -34.5t-43.5 -102.5z" />
    <glyph glyph-name="B" unicode="B" horiz-adv-x="737" 
d="M320 566v-134q0 -24 30 -24q39 0 57 20t18 69q0 52 -16.5 73t-63.5 21q-25 0 -25 -25zM326 262v-107q0 -26 11 -35t36 -9q79 0 79 100q0 47 -17 68t-65 21q-22 0 -33 -8t-11 -30zM92 300v108q0 62 -1 97.5t-3.5 53.5t-7 24t-10.5 8q-55 20 -55 60q0 29 22.5 40t68.5 11
q29 0 60.5 -1.5t66.5 -1.5q28 0 59.5 1.5t61 3t55.5 3t43 1.5q112 0 166.5 -47t54.5 -126q0 -29 -9.5 -53t-23.5 -40q-15 -16 -33.5 -29t-18.5 -24q0 -7 27.5 -15.5t54.5 -32.5q21 -19 34.5 -55.5t13.5 -79.5q0 -53 -21 -93t-58 -67t-87.5 -41t-109.5 -14q-65 0 -122 4.5
t-114 4.5q-29 0 -61.5 -3t-52.5 -3q-46 0 -61.5 18t-15.5 38q0 28 14.5 35t36.5 26q7 6 12 15.5t8 29.5t4.5 54t1.5 90z" />
    <glyph glyph-name="C" unicode="C" horiz-adv-x="729" 
d="M709 509q0 -49 -27 -77.5t-65 -28.5q-31 0 -48 15t-36 51q-25 47 -57.5 68t-90.5 21q-52 0 -81.5 -33t-29.5 -96q0 -125 57 -190t153 -65q33 0 62.5 11t54.5 30q14 11 29.5 25t38.5 14q18 0 31.5 -19t13.5 -49q0 -23 -8.5 -47t-22 -43t-29.5 -31t-32 -12t-31.5 -10.5
t-40.5 -23.5t-64 -23.5t-101 -10.5q-76 0 -141.5 28t-114.5 77t-77 113.5t-28 138.5t28 140.5t77 116.5t114.5 79.5t140.5 29.5q35 0 63 -5.5t49.5 -11.5t36.5 -11.5t24 -5.5q11 0 23 4.5t26 4.5q19 0 37.5 -14.5t33 -38.5t23.5 -55.5t9 -65.5z" />
    <glyph glyph-name="D" unicode="D" horiz-adv-x="793" 
d="M328 417v-218q0 -49 10 -65t31 -16q145 0 145 211q0 125 -35 186t-115 61q-10 0 -17 -3t-11.5 -12.5t-6 -29t-1.5 -52.5v-62zM771 346q0 -171 -92.5 -263t-268.5 -92q-32 0 -74.5 4.5t-96.5 4.5q-28 0 -60.5 -4.5t-56.5 -4.5q-62 0 -85 19t-23 46q0 25 6 33t14.5 11.5
t18.5 7t18.5 20t14.5 51t6 98.5v119q0 69 -4.5 107.5t-11.5 57.5t-15.5 24.5t-15.5 9.5t-11.5 11.5t-4.5 31.5q0 40 31 52t93 12q20 0 40 -4.5t50 -4.5q19 0 63 4.5t122 4.5q165 0 254 -93.5t89 -262.5z" />
    <glyph glyph-name="E" unicode="E" horiz-adv-x="693" 
d="M90 378q0 60 -1 97.5t-3 60t-6.5 33t-10.5 17.5t-16 12t-19 11.5t-15.5 15t-6.5 23.5q0 53 82 53q28 0 91 -2.5t161 -2.5q63 0 104.5 2.5t68.5 5t44 5t32 2.5q27 0 42.5 -30t15.5 -76q0 -57 -16.5 -88.5t-44.5 -31.5q-17 0 -31.5 19t-28.5 34q-21 25 -49 35t-68 10
q-71 0 -90 -14q-3 -3 -5.5 -7.5t-4 -15t-2.5 -29.5t-1 -51q0 -38 6.5 -48t38.5 -10q26 0 36.5 10t10.5 23q0 30 9.5 47.5t29.5 17.5q34 0 53 -37.5t19 -109.5q0 -77 -18.5 -120t-53.5 -43q-39 0 -39 55q0 16 -9 34t-37 18q-29 0 -34.5 -12.5t-5.5 -51.5q0 -35 0.5 -55.5
t2 -32t4.5 -15.5t7 -7q10 -7 28.5 -9.5t53.5 -2.5q62 0 91.5 20t44 44t23 44t28.5 20q16 0 29.5 -5t23.5 -19t15.5 -39t5.5 -65q0 -21 -4.5 -45t-13.5 -44t-23 -33t-33 -13q-6 0 -19.5 3t-41 6t-72.5 6t-115 3q-41 0 -67.5 -1.5t-49 -3t-46 -3t-58.5 -1.5q-49 0 -84.5 17
t-35.5 39q0 15 4.5 24t12 15t15.5 11t16 12q18 19 24 82t6 187z" />
    <glyph glyph-name="F" unicode="F" horiz-adv-x="657" 
d="M16 65q0 25 10 35.5t25 16.5q12 5 19.5 11.5t12.5 27.5t6.5 60.5t1.5 110.5q0 119 -4 183t-10 73q-8 12 -22 15t-20 9q-8 7 -13.5 14t-5.5 21q0 60 90 60q8 0 26.5 -1.5t43 -3t53.5 -3t59 -1.5q80 0 131 3t82.5 7t47.5 7t25 3q29 0 53 -25t24 -89q0 -51 -13.5 -82
t-44.5 -31q-21 0 -30.5 16t-25.5 33q-34 36 -67 44.5t-85 8.5q-23 0 -36 -2t-18 -10t-8.5 -29t-3.5 -79q0 -32 8.5 -46t34.5 -14q22 0 34 16t12 32q0 20 7 35t29 15q35 0 55 -33t20 -113q0 -83 -17 -121.5t-53 -38.5q-19 0 -30 13t-11 26q0 33 -12.5 51.5t-42.5 18.5
q-19 0 -26.5 -8t-7.5 -28v-67q0 -52 11 -67.5t37 -21.5q47 -11 47 -51q0 -43 -48 -59t-148 -16q-103 0 -152.5 16t-49.5 58z" />
    <glyph glyph-name="G" unicode="G" horiz-adv-x="817" 
d="M29 352q0 74 30.5 141.5t87.5 120.5q107 99 262 99q68 0 107.5 -15.5t52.5 -15.5q14 0 29 9t31 9q19 0 37 -12t32 -33.5t22.5 -51.5t8.5 -66q0 -47 -23 -73t-62 -26q-34 0 -53.5 16.5t-40.5 45.5q-28 38 -56.5 57t-68.5 19q-60 0 -99.5 -46.5t-39.5 -120.5
q0 -65 15 -117.5t40 -89t57.5 -56.5t67.5 -20q49 0 49 62q0 24 -12.5 28t-41.5 6q-21 2 -35 17t-14 36q0 85 201 85q200 0 200 -83q0 -13 -6 -25t-15 -18q-19 -12 -33.5 -14.5t-18.5 -6.5q-4 -5 -6 -12t-4 -16q-7 -27 -18 -52t-34 -53q-81 -99 -269 -99q-86 0 -156 27
t-120 75.5t-77 117t-27 151.5z" />
    <glyph glyph-name="H" unicode="H" horiz-adv-x="825" 
d="M441 301h-49q-40 0 -54 -12t-14 -48q0 -54 5 -84.5t13 -35.5q16 -11 30.5 -21t14.5 -34q0 -75 -189 -75q-86 0 -134 19.5t-48 54.5q0 30 16 38t35 16q23 11 23 209q0 115 -3 176.5t-11 72.5q-4 4 -13.5 8t-20 10t-18.5 16t-8 26q0 65 188 65q90 0 136.5 -14.5t46.5 -50.5
q0 -20 -6.5 -31.5t-21.5 -20.5q-20 -12 -27.5 -26.5t-7.5 -48.5v-37q0 -28 15.5 -37.5t74.5 -9.5q29 0 46 2t26 7.5t12 14.5t3 23v37q0 36 -5.5 52.5t-20.5 22.5t-26 19t-11 33q0 41 48 53t147 12q89 0 132.5 -14t43.5 -51q0 -15 -6 -24t-14.5 -15.5t-18.5 -11.5t-18 -11
q-12 -10 -14.5 -64t-2.5 -156q0 -75 1 -120.5t4 -71t7.5 -36t12.5 -14.5q14 -7 31.5 -17t17.5 -36q0 -38 -50 -53.5t-140 -15.5q-181 0 -181 75q0 18 7 30.5t24 19.5q10 4 16 8.5t9.5 17t5 35.5t1.5 64q0 36 -12.5 48t-47.5 12z" />
    <glyph glyph-name="I" unicode="I" horiz-adv-x="435" 
d="M25 66q0 29 18.5 39.5t35.5 24.5q16 12 20 70t4 166q0 66 -1 105.5t-3.5 61t-6 29.5t-8.5 12q-17 13 -33 22t-16 35q0 71 189 71q91 0 135.5 -16t44.5 -53q0 -15 -6.5 -25t-15 -16.5t-17 -11t-12.5 -10.5q-5 -7 -8 -24.5t-5 -56t-3 -101.5t-1 -162q0 -40 3 -64t13 -34
q16 -15 33.5 -26t17.5 -37q0 -73 -190 -73q-92 0 -140 20.5t-48 53.5z" />
    <glyph glyph-name="J" unicode="J" horiz-adv-x="630" 
d="M305 222v271q0 51 -9.5 65t-35.5 18t-38 18.5t-12 35.5q0 39 52 55.5t155 16.5q99 0 145.5 -14.5t46.5 -56.5q0 -26 -8.5 -38.5t-28.5 -16.5q-9 -2 -15 -7t-10 -23t-6 -54t-2 -99q0 -86 -3 -141.5t-10.5 -91.5t-20.5 -58t-32 -43q-70 -74 -209 -74q-122 0 -190 54
t-68 140q0 54 31 87t78 33q49 0 80 -30.5t31 -76.5q0 -14 -5.5 -24t-5.5 -30q0 -12 9.5 -19.5t20.5 -7.5q29 0 44.5 26.5t15.5 84.5z" />
    <glyph glyph-name="K" unicode="K" horiz-adv-x="833" 
d="M209 -9q-94 0 -143 13.5t-49 48.5q0 25 11 38.5t36 25.5q9 4 14.5 16t8.5 40.5t4 77.5t1 126q0 83 -5 135t-18 62q-14 10 -33 23.5t-19 37.5q0 67 179 67q84 0 130.5 -15t46.5 -51q0 -20 -5.5 -30t-20.5 -19q-20 -12 -26.5 -35t-6.5 -66q0 -32 21 -32q13 0 24.5 10
t25.5 30q25 35 37 57.5t12 27.5q0 10 -8 23t-8 33q0 37 47 52t141 15q74 0 110.5 -13.5t36.5 -48.5q0 -24 -18.5 -39.5t-46.5 -15.5q-37 0 -63.5 -11t-52.5 -34q-36 -32 -47.5 -48t-11.5 -32q0 -8 2.5 -17t11.5 -25t26.5 -41.5t46.5 -64.5q47 -63 75.5 -99.5t46.5 -56
t29.5 -27t23.5 -12.5q25 -9 35 -26t10 -35q0 -36 -29 -50.5t-90 -14.5h-77q-45 0 -81.5 20t-78.5 77q-34 47 -53 74t-29.5 41t-17.5 18t-19 4q-19 0 -19 -35q0 -57 14 -73q6 -6 13.5 -11.5t14 -12t11.5 -15.5t5 -24q0 -38 -42 -50.5t-133 -12.5z" />
    <glyph glyph-name="L" unicode="L" horiz-adv-x="643" 
d="M224 702q96 0 145 -15t49 -49q0 -15 -5.5 -24t-13.5 -14.5t-17.5 -9.5t-17.5 -9q-19 -13 -24 -39.5t-5 -69.5q0 -24 0.5 -54t0.5 -66v-77q0 -50 1 -82t4 -45q7 -26 63 -26q50 0 75 13.5t41 50.5q10 26 18 43.5t33 17.5q26 0 45.5 -30.5t19.5 -86.5q0 -20 -2 -45.5
t-10 -48.5t-23 -38.5t-40 -15.5q-35 0 -76 9t-103 9q-47 0 -79 -1.5t-58.5 -3t-52 -3t-59.5 -1.5q-19 0 -39.5 1t-37 8t-27 20.5t-10.5 39.5q0 20 12 25t26.5 17.5t26.5 43t12 101.5v148q0 79 -2 123.5t-11 54.5q-8 9 -18.5 12.5t-20.5 7.5t-16.5 12.5t-6.5 27.5
q0 69 203 69z" />
    <glyph glyph-name="M" unicode="M" horiz-adv-x="918" 
d="M403 31q-10 0 -19.5 4.5t-21.5 21t-27 49.5t-36 90q-16 44 -26.5 69.5t-17.5 38t-12 15.5t-11 3q-5 0 -9 -3.5t-6.5 -17t-3.5 -39.5t-1 -70q0 -53 7 -70t24 -24q16 -6 25 -18.5t9 -33.5q0 -32 -33 -43.5t-102 -11.5q-68 0 -100.5 13.5t-32.5 45.5q0 17 7 26.5t16 15.5
t18 10t14 10q6 8 10.5 23t8 45.5t5 79t1.5 122.5q0 63 -1.5 99.5t-5 56.5t-9 27.5t-14.5 12.5q-50 28 -50 65q0 29 31 44t106 15q51 0 89.5 -5t45.5 -10q11 -7 29 -32t38 -71q75 -176 113 -176q17 0 44 47t70 149q14 34 29.5 55t27.5 29q10 7 33.5 10.5t86.5 3.5
q70 0 107.5 -10t37.5 -49q0 -15 -6.5 -26t-25.5 -21q-6 -3 -12.5 -12t-11.5 -33t-8.5 -68t-3.5 -118q0 -110 5.5 -170.5t12.5 -71.5q3 -4 11 -7.5t16.5 -10t15.5 -17t7 -27.5q0 -40 -46 -55t-139 -15q-92 0 -135 15.5t-43 56.5q0 14 5 22.5t12 14t14 9.5t12 10
q12 16 15 53.5t3 98.5q0 31 -5.5 41t-13.5 10q-6 0 -11.5 -3.5t-12 -14t-15.5 -31.5t-22 -55q-24 -64 -40 -101.5t-28 -56.5t-22 -24t-22 -5z" />
    <glyph glyph-name="N" unicode="N" horiz-adv-x="818" 
d="M94 323q0 89 -3.5 148t-18.5 89q-7 13 -18.5 17.5t-19.5 8.5q-28 16 -28 43q0 39 42 52.5t128 13.5q26 0 45 -2t32 -9q23 -14 54 -41t71 -66q82 -79 128.5 -121t66.5 -42q21 0 21 44q0 26 0.5 41t0.5 19q0 32 -6.5 47t-29.5 26q-13 7 -23 14t-10 33q0 39 36 51t112 12
q70 0 103.5 -12t33.5 -48q0 -25 -10.5 -35t-28.5 -20q-21 -11 -26.5 -27t-10.5 -61q-5 -47 -5.5 -101.5t-2.5 -115.5q-3 -91 -5 -147.5t-8 -79.5q-13 -61 -53 -61q-26 0 -73 40t-123 111q-89 84 -135 132t-64 48q-20 0 -26 -22t-6 -68t6 -74.5t10 -35.5q5 -7 14 -11.5
t18 -10.5t15.5 -14.5t6.5 -23.5q0 -70 -139 -70q-144 0 -144 66q0 14 6.5 23t15 15.5t17.5 11.5t14 12q13 19 16.5 68.5t3.5 132.5z" />
    <glyph glyph-name="O" unicode="O" horiz-adv-x="799" 
d="M280 450q0 -33 11 -86t32.5 -103t52.5 -86.5t70 -36.5q34 0 53.5 29t19.5 81q0 39 -12 92t-33.5 100.5t-52 81t-66.5 33.5q-33 0 -54 -27t-21 -78zM23 351q0 78 29.5 143.5t81 113t122 74t152.5 26.5q81 0 148.5 -26t116 -73.5t76 -114t27.5 -146.5t-28 -146.5
t-78.5 -114.5t-119 -75t-149.5 -27q-79 0 -148 29t-120 78.5t-80.5 116t-29.5 142.5z" />
    <glyph glyph-name="P" unicode="P" horiz-adv-x="677" 
d="M326 473v-44q0 -37 3 -49t17 -12q38 0 60 26.5t22 76.5q0 55 -21 84t-55 29q-18 0 -22 -19.5t-4 -64.5v-27zM334 250q0 -10 -0.5 -20t-0.5 -18q0 -38 4 -60.5t15 -31.5q7 -6 15.5 -10t16 -9t12.5 -13.5t5 -22.5q0 -39 -45.5 -56.5t-139.5 -17.5q-99 0 -147.5 18t-48.5 59
q0 16 7.5 25.5t17.5 16t19.5 11.5t14.5 12q11 15 13 108t2 265q0 38 -6 57.5t-27 29.5q-21 11 -36.5 18t-15.5 33q0 28 25 40.5t75 12.5q22 0 39 -1.5t30 -1.5q46 0 100.5 5.5t115.5 5.5q276 0 276 -220q0 -112 -72 -175t-205 -63q-29 0 -59 3z" />
    <glyph glyph-name="Q" unicode="Q" horiz-adv-x="799" 
d="M272 451q0 -35 10.5 -82.5t33.5 -104.5q26 -65 60.5 -98.5t71.5 -33.5q35 0 56 29t21 84q0 36 -8.5 80.5t-28.5 94.5q-57 143 -135 143q-35 0 -58 -29.5t-23 -82.5zM508 -2q98 -35 156 -35q24 0 43 9t37 9q34 0 34 -52q0 -19 -17 -40.5t-46.5 -39.5t-69.5 -30t-87 -12
q-51 0 -104.5 15.5t-115.5 41.5q-92 40 -145.5 66t-73.5 26q-10 0 -20.5 -3.5t-21.5 -3.5q-19 0 -31 11t-12 29q0 28 24.5 48.5t64.5 20.5q33 0 69 -16q-82 52 -125.5 133t-43.5 176q0 73 31 145t86 122q104 96 268 96q81 0 149.5 -27.5t118.5 -77.5q100 -103 100 -261
q0 -67 -18.5 -125t-53 -104t-84.5 -77t-112 -44z" />
    <glyph glyph-name="R" unicode="R" horiz-adv-x="782" 
d="M128 702q21 0 59 -4.5t69 -4.5q54 0 107 4.5t92 4.5q97 0 156 -48t59 -134q0 -84 -64 -128q-16 -11 -29.5 -16.5t-13.5 -15.5q0 -7 6.5 -10.5t17 -6.5t23 -7.5t23.5 -12.5q31 -22 46 -56t23 -81q5 -31 9 -50.5t15 -23.5q33 -13 43 -23.5t10 -23.5q0 -34 -37.5 -55.5
t-112.5 -21.5q-93 0 -138 41.5t-58 121.5q-14 84 -36.5 112.5t-50.5 28.5q-13 0 -25 -4v-93q0 -43 2.5 -59t10.5 -21q28 -15 39 -29t11 -31q0 -37 -44 -52t-136 -15q-189 0 -189 70q0 33 48 54q5 2 10 10t8.5 32.5t5.5 72t2 129.5v36q0 88 -2.5 136t-16.5 58
q-18 12 -36.5 20.5t-18.5 35.5q0 28 25.5 44t87.5 16zM316 511v-43q0 -25 4 -60q8 -2 13.5 -3.5t11.5 -1.5q39 0 54 25t15 78q0 82 -66 82q-22 0 -27 -16t-5 -61z" />
    <glyph glyph-name="S" unicode="S" horiz-adv-x="658" 
d="M312 -19q-47 0 -88.5 7t-74.5 17.5t-55.5 23t-32.5 23.5q-18 22 -31 64.5t-13 101.5q0 60 46 60q15 0 24.5 -5.5t17.5 -15t15.5 -21.5t17.5 -25q66 -89 150 -89q33 0 51.5 13.5t18.5 32.5q0 13 -8.5 21t-24.5 15t-39.5 15t-53.5 20q-200 79 -200 237q0 50 20 93t57 74.5
t88.5 49.5t113.5 18q57 0 91 -10.5t46 -10.5q17 0 31.5 4.5t27.5 4.5q33 0 62 -35q27 -33 40 -65.5t13 -57.5q0 -34 -19.5 -54.5t-49.5 -20.5q-27 0 -47 19.5t-49 46.5q-42 40 -100 40q-56 0 -56 -40q0 -32 35 -45t96 -32q102 -31 151 -80t49 -138q0 -55 -22.5 -102
t-64.5 -81.5t-101 -53.5t-132 -19z" />
    <glyph glyph-name="T" unicode="T" horiz-adv-x="690" 
d="M345 -9q-109 0 -162 15t-53 57q0 23 13 35.5t36 18.5q30 8 39.5 45.5t9.5 109.5v196q0 72 -5.5 92.5t-15.5 20.5q-30 0 -43.5 -17.5t-23 -39t-22.5 -39t-43 -17.5q-16 0 -29.5 12t-23 31.5t-14.5 44t-5 49.5q0 55 28 82t62 27q24 0 39.5 -3t39 -6t62.5 -6t111 -3t111 3
t62.5 6t39 6t39.5 3q34 0 62 -27t28 -82q0 -25 -5 -49.5t-14.5 -44t-23 -31.5t-29.5 -12q-30 0 -43 17.5t-22.5 39t-23 39t-43.5 17.5q-10 0 -15.5 -20.5t-5.5 -92.5v-196q0 -72 9.5 -109.5t39.5 -45.5q23 -6 36 -18.5t13 -35.5q0 -42 -53 -57t-162 -15z" />
    <glyph glyph-name="U" unicode="U" horiz-adv-x="816" 
d="M94 466v11q0 40 -3.5 58.5t-23.5 31.5q-17 11 -28 21t-11 31q0 37 53.5 59.5t156.5 22.5q84 0 123.5 -14.5t39.5 -51.5q0 -31 -17.5 -42t-34.5 -23q-21 -14 -21 -239q0 -93 27 -136.5t100 -43.5q74 0 106 45q18 26 22 81t4 143v30q0 57 -2 90.5t-12 44.5q-6 6 -15.5 10
t-19.5 9t-17 12.5t-7 21.5q0 28 40.5 45.5t116.5 17.5q131 0 131 -63q0 -25 -13.5 -34.5t-30.5 -19.5q-18 -12 -21.5 -30.5t-6.5 -55.5q-3 -60 -4 -113.5t-3.5 -99t-8 -83.5t-18.5 -68q-64 -150 -297 -150q-72 0 -128.5 17.5t-95.5 49.5t-60 77t-21 100v238z" />
    <glyph glyph-name="V" unicode="V" horiz-adv-x="769" 
d="M209 256l-64 164q-27 69 -43.5 107.5t-28.5 44.5q-10 5 -20 8t-17.5 7t-12.5 11.5t-5 20.5q0 87 181 87q91 0 135.5 -17.5t44.5 -60.5q0 -16 -6.5 -24.5t-14.5 -14t-14.5 -8.5t-6.5 -9q0 -4 5 -16t13 -34l50 -127q15 -36 29 -36q11 0 20 13.5t20 39.5q31 71 48 113t17 58
q0 8 -8.5 11.5t-21.5 10.5q-18 10 -18 30q0 31 33.5 51t98.5 20q79 0 112 -13.5t33 -54.5q0 -16 -3.5 -24.5t-9.5 -12t-14 -5t-18 -3.5q-29 -5 -45.5 -44.5t-49.5 -117.5l-68 -165q-40 -99 -69 -160.5t-46 -84.5q-16 -21 -31 -30t-38 -9q-27 0 -46.5 17.5t-37.5 52t-37.5 86
t-45.5 118.5z" />
    <glyph glyph-name="W" unicode="W" horiz-adv-x="1033" 
d="M110 477q-14 37 -24.5 60.5t-34.5 34.5q-15 8 -27.5 15t-12.5 33q0 41 45.5 63.5t133.5 22.5q82 0 121.5 -16t39.5 -51q0 -15 -4.5 -24t-9.5 -15t-9.5 -10.5t-4.5 -9.5t2.5 -16.5t9.5 -30.5l44 -121q12 -33 23 -33q12 0 19 24l20 55q8 21 8 26t-10 33l-11 34
q-9 28 -19.5 36.5t-14.5 12.5q-14 16 -14 38q0 38 42.5 53t130.5 15q76 0 113 -14.5t37 -49.5q0 -12 -6 -21t-13 -16.5t-13 -14t-6 -13.5q0 -13 7 -30t15 -40l26 -68q11 -29 18 -44.5t15 -15.5q7 0 13.5 13t15.5 37l31 82q9 24 12.5 39.5t3.5 20.5q0 15 -7.5 18.5
t-17.5 10.5q-23 15 -23 39q0 31 32 49t94 18q68 0 99.5 -12.5t31.5 -50.5q0 -27 -10.5 -36t-30.5 -19q-30 -14 -40 -34.5t-25 -60.5l-98 -260q-24 -63 -40.5 -110t-32 -78.5t-32 -47t-39.5 -15.5q-35 0 -53.5 28.5t-38.5 89.5l-63 187q-3 10 -5.5 15.5t-9.5 5.5t-15 -19
l-65 -191q-20 -58 -39 -85.5t-50 -27.5q-39 0 -67 50q-11 20 -29.5 73.5t-50.5 138.5z" />
    <glyph glyph-name="X" unicode="X" horiz-adv-x="799" 
d="M275 330q-82 112 -127.5 172t-57.5 68q-8 5 -21 6.5t-25 9.5q-22 13 -22 41q0 42 51.5 58.5t157.5 16.5q51 0 86.5 -1.5t57.5 -9t32 -22.5t10 -42q0 -11 -5 -18.5t-10.5 -12.5t-10.5 -9.5t-5 -8.5q0 -12 51 -69q26 32 38 53.5t12 30.5q0 5 -6.5 9t-15 9.5t-15 13
t-6.5 19.5q0 32 35 45t108 13q80 0 116.5 -12.5t36.5 -50.5q0 -21 -12 -35q-12 -13 -30.5 -12.5t-40.5 -3.5q-25 -4 -61 -48t-98 -121q96 -132 151.5 -205.5t70.5 -86.5q9 -8 21.5 -11t23.5 -8q13 -7 18 -15.5t5 -25.5q0 -44 -54.5 -60t-171.5 -16q-93 0 -137.5 12.5
t-44.5 49.5q0 14 6.5 22.5t14 14.5t14 11.5t6.5 14.5q0 21 -74 110q-37 -46 -54 -74.5t-17 -34.5t6.5 -12t14.5 -13t14.5 -15.5t6.5 -20.5q0 -35 -37 -50t-117 -15t-118.5 15t-38.5 52q0 12 6 23.5t17 17.5q14 8 34.5 8t38.5 9q33 17 172 214z" />
    <glyph glyph-name="Y" unicode="Y" horiz-adv-x="683" 
d="M511 454q-11 -15 -23 -29.5t-19 -34.5q-7 -18 -8.5 -41.5t-1.5 -53.5v-23q0 -126 22 -143q7 -5 16 -9t16.5 -10t12.5 -15t5 -24q0 -43 -46.5 -61t-142.5 -18q-191 0 -191 75q0 22 13 33t31 21q9 5 15 10t8 13q3 14 5 51t2 98q0 25 -1 43t-4 28q-4 15 -15 30t-25 33
l-93 124q-19 25 -34.5 28t-27.5 9q-30 17 -30 49q0 42 45 55.5t140 13.5q99 0 145 -13.5t46 -51.5q0 -23 -11.5 -34t-11.5 -21q0 -5 4.5 -16.5t15.5 -27.5q21 -32 35 -32q5 0 13.5 8.5t16.5 20.5t13.5 24.5t5.5 21.5t-13.5 23t-13.5 36q0 61 138 61q71 0 105 -13t34 -46
q0 -36 -38 -46q-10 -3 -22 -5t-22 -10q-14 -11 -27.5 -27.5t-29.5 -36.5z" />
    <glyph glyph-name="Z" unicode="Z" horiz-adv-x="625" 
d="M103 230l191 293q16 26 16 36q0 11 -13 14.5t-39 3.5q-34 0 -54.5 -7.5t-33.5 -30.5q-7 -12 -12 -24.5t-12 -23.5t-18.5 -18t-31.5 -7q-25 0 -39.5 18t-14.5 50t12.5 67.5t35.5 65.5q33 43 65 43q15 0 25.5 -4t17.5 -4h335q43 0 64 -10.5t21 -39.5q0 -31 -38.5 -91.5
t-101.5 -164.5l-127 -209q-7 -11 -11.5 -20t-4.5 -17q0 -17 49 -17q68 0 88 28q9 14 15 28t13 25t16.5 18t25.5 7q57 0 57 -77q0 -36 -9 -67.5t-23 -55.5t-30 -38t-30 -14q-11 0 -27.5 6.5t-42.5 6.5h-336q-49 0 -74 12t-25 44q0 17 27 59.5t74 114.5z" />
    <glyph glyph-name="bracketleft" unicode="[" horiz-adv-x="480" 
d="M60 639q0 43 25 66t72 23h234q33 0 46 -11.5t13 -43.5q0 -31 -12.5 -43t-46.5 -12q-31 0 -49 -1.5t-27.5 -6t-12 -12t-2.5 -19.5v-540q0 -12 2.5 -19.5t12 -12t27.5 -6t49 -1.5q34 0 46.5 -12t12.5 -43q0 -39 -17 -47t-62 -8h-214q-47 0 -72 23t-25 66v660z" />
    <glyph glyph-name="backslash" unicode="\" horiz-adv-x="365" 
d="M222 -48l-190 754q-3 12 -3 17q0 13 19 13q46 0 67.5 -3.5t25.5 -19.5l194 -763v-7q0 -8 -7.5 -10t-24.5 -2q-38 0 -57.5 3t-23.5 18z" />
    <glyph glyph-name="bracketright" unicode="]" horiz-adv-x="480" 
d="M420 639v-660q0 -43 -25 -66t-72 -23h-214q-45 0 -62 8t-17 47q0 31 12.5 43t46.5 12q31 0 49 1.5t27.5 6t12 12t2.5 19.5v540q0 12 -2.5 19.5t-12 12t-27.5 6t-49 1.5q-34 0 -46.5 12t-12.5 43q0 32 13 43.5t46 11.5h234q47 0 72 -23t25 -66z" />
    <glyph glyph-name="asciicircum" unicode="^" horiz-adv-x="945" 
d="M405 688h134l214 -266h-60l-221 148l-221 -148h-61z" />
    <glyph glyph-name="underscore" unicode="_" horiz-adv-x="512" 
d="M-6 -94h524v-133h-524v133z" />
    <glyph glyph-name="grave" unicode="`" horiz-adv-x="468" 
d="M165 726q15 0 32.5 -2t32.5 -6t25 -9.5t10 -11.5q0 -4 -4 -11.5t-4 -11.5q0 -3 13.5 -11.5t29 -19.5t29 -22t13.5 -17q0 -19 -10.5 -29.5t-38.5 -10.5q-17 0 -54 9t-74.5 24.5t-66.5 35.5t-29 41q0 24 19 38t77 14z" />
    <glyph glyph-name="a" unicode="a" horiz-adv-x="575" 
d="M294 298q1 14 1.5 25.5t0.5 22.5q0 89 -42 89q-21 0 -34.5 -15.5t-29.5 -35.5q-20 -25 -40 -37.5t-43 -12.5q-25 0 -42 17.5t-17 45.5q0 24 16.5 47t47.5 40t74.5 27.5t97.5 10.5q113 0 171.5 -44t58.5 -128q0 -32 -1.5 -60t-1.5 -52v-15q0 -26 0.5 -42.5t3.5 -26.5
t9 -14.5t16 -7.5q28 -8 28 -34q0 -17 -12 -36.5t-33 -36t-50 -27t-64 -10.5q-19 0 -34 4.5t-27 16.5q-14 13 -22 23t-16 10q-7 0 -12.5 -4.5t-12.5 -9.5q-25 -18 -48.5 -27t-58.5 -9q-77 0 -122.5 42.5t-45.5 108.5q0 35 16 64.5t44 51.5t66 34.5t82 12.5q15 0 34 -2t42 -6z
M293 200q0 17 -4.5 21t-20.5 4q-48 0 -48 -61q0 -57 38 -57q25 0 30 21.5t5 71.5z" />
    <glyph glyph-name="b" unicode="b" horiz-adv-x="648" 
d="M292 455q59 67 145 67q39 0 73.5 -16.5t60 -45.5t40.5 -70.5t15 -90.5q0 -59 -20 -114t-52 -93q-91 -105 -225 -105q-102 0 -179 67q-19 -8 -34.5 -11.5t-27.5 -3.5q-37 0 -37 27q0 6 5 19.5t8 37.5q4 32 5 94.5t1 157.5q0 149 -13 153q-11 3 -23 5t-21.5 6.5t-15.5 12.5
t-6 24q0 22 18 39.5t54 34.5q48 22 97.5 33.5t91.5 11.5q30 0 35 -6.5t5 -26.5v-207zM294 199q0 -55 8 -80.5t33 -25.5t42 32t17 91q0 68 -18.5 103t-48.5 35q-33 0 -33 -47v-108z" />
    <glyph glyph-name="c" unicode="c" horiz-adv-x="540" 
d="M22 253q0 93 52 157q42 53 104 82t136 29q50 0 89 -11.5t67 -31.5t42.5 -47t14.5 -58q0 -44 -28.5 -73.5t-69.5 -29.5q-23 0 -42.5 10t-34.5 32q-6 10 -10.5 21.5t-9.5 21t-14 16t-24 6.5q-22 0 -37 -18.5t-15 -49.5q0 -26 10 -50.5t26.5 -43t38 -29.5t45.5 -11
q19 0 35 5t30 10.5t26.5 10.5t24.5 5q20 0 34.5 -17t14.5 -43q0 -30 -20 -60t-59 -53q-37 -22 -78 -34t-83 -12q-110 0 -185 75q-80 78 -80 191z" />
    <glyph glyph-name="d" unicode="d" horiz-adv-x="660" 
d="M256 256q0 -59 17 -90.5t43 -31.5q34 0 45.5 43.5t11.5 131.5v26q0 35 -6 52.5t-34 17.5q-36 0 -56.5 -38.5t-20.5 -110.5zM17 259q0 121 82 200q68 65 157 65q52 0 80 -14.5t33 -14.5q4 0 4 20v20q0 26 -4 29q-9 5 -19 8t-18.5 7t-14 11t-5.5 19q0 22 17 34.5t51 23.5
q55 17 107 25t85 8q17 0 21 -7.5t4 -31.5v-16q0 -21 -2 -118.5t-2 -270.5v-28q0 -41 2 -64.5t10 -30.5q6 -6 16 -9t19 -7.5t15.5 -11t6.5 -19.5q0 -35 -37 -53q-44 -23 -90.5 -34.5t-83.5 -11.5t-52 6t-15 25v21q0 16 -7 16q-4 0 -9.5 -5.5t-16.5 -12.5q-26 -19 -52 -30
t-58 -11q-87 0 -153 72q-71 77 -71 191z" />
    <glyph glyph-name="e" unicode="e" horiz-adv-x="552" 
d="M280 331h9q40 0 50.5 4.5t10.5 29.5q0 29 -16.5 45.5t-39.5 16.5q-25 0 -44 -18t-19 -47q0 -19 7.5 -25t28.5 -6h13zM481 235h-217q-16 0 -23 -2.5t-7 -11.5q0 -37 31.5 -66.5t89.5 -29.5q23 0 41.5 6.5t33.5 15t27 15t21 6.5q17 0 29 -14t12 -37q0 -18 -15 -39.5
t-45 -41.5q-76 -50 -170 -50q-60 0 -109.5 20.5t-85.5 56t-56 83.5t-20 104q0 83 50 155q39 55 98.5 85.5t127.5 30.5q54 0 99 -16.5t76.5 -45t49 -67.5t17.5 -83q0 -41 -13 -57.5t-42 -16.5z" />
    <glyph glyph-name="f" unicode="f" horiz-adv-x="432" 
d="M212 -13q-175 0 -175 72q0 19 11 28.5t28 21.5q8 5 13.5 9.5t8.5 13.5q4 11 7.5 45t3.5 87q0 27 -7 29.5t-31 5.5q-26 2 -34.5 4.5t-8.5 25.5q0 70 15 77q12 8 26 7t14 6q0 5 -6 15.5t-13.5 25.5t-13.5 34t-6 43q0 35 15.5 64.5t43.5 52t67.5 35t88.5 12.5q43 0 78 -10.5
t60 -28.5t38.5 -41t13.5 -48q0 -39 -22.5 -61t-61.5 -22q-31 0 -47.5 13t-35.5 36q-15 17 -26.5 28t-27.5 11q-30 0 -30 -34q0 -24 25 -48q20 -20 40.5 -31t32.5 -22q10 -9 13 -16t4 -8q5 -4 16 -5t27 -1h33q19 0 23 -6t4 -29q0 -28 -1.5 -44t-6 -23.5t-12 -9.5t-19.5 -2
h-15q-26 0 -34.5 -4.5t-8.5 -29.5q0 -126 32 -145q10 -6 20.5 -9.5t19.5 -8.5t14.5 -13.5t5.5 -25.5q0 -76 -199 -76z" />
    <glyph glyph-name="g" unicode="g" horiz-adv-x="574" 
d="M102 218q-36 20 -56 53.5t-20 75.5q0 37 17.5 69t49.5 55t76 36.5t97 13.5q51 0 89.5 -11.5t63.5 -11.5t44 7.5t33.5 16t24 16t14.5 7.5q37 0 37 -50q0 -29 -13.5 -52t-41.5 -48q3 -18 3 -34q0 -39 -17 -71t-47.5 -55.5t-74 -36.5t-97.5 -13q-16 0 -37 1.5t-45 5.5
q-13 -7 -13 -23q0 -15 19 -26.5t54 -11.5q31 0 71.5 6.5t89.5 6.5q147 0 147 -126q0 -43 -21.5 -80t-62 -64.5t-98 -43.5t-130.5 -16q-58 0 -105 12t-79.5 32t-50 45.5t-17.5 53.5q0 54 63 73q-60 32 -60 88q0 66 93 100zM223 369q0 -53 15.5 -81.5t42.5 -28.5q49 0 49 75
q0 109 -58 109q-49 0 -49 -74zM153 -11q-3 -7 -3 -15q0 -24 32.5 -45.5t82.5 -21.5q44 0 68 13t24 34q0 27 -29 27q-15 0 -35.5 -2.5t-46.5 -2.5q-53 0 -93 13z" />
    <glyph glyph-name="h" unicode="h" horiz-adv-x="696" 
d="M299 642v-187q0 -22 8 -22q6 0 12.5 11t19.5 25q48 52 128 52q51 0 90 -25t55 -66q17 -40 18.5 -101t3.5 -143q1 -29 2 -48t10 -30q10 -11 22.5 -21t12.5 -33q0 -34 -38 -47.5t-118 -13.5q-156 0 -156 64q0 16 9.5 27t15.5 24q8 16 9.5 38.5t1.5 52.5v54q0 53 -14 78
t-50 25q-45 0 -45 -51q0 -143 6 -182q3 -14 18 -28.5t15 -37.5q0 -34 -39 -49t-119 -15q-79 0 -123 19.5t-44 48.5q0 25 16 33.5t25 20.5q13 17 16.5 60.5t3.5 115.5v78q0 80 -3.5 124t-14.5 53q-7 6 -15 10t-15 9t-11 14t-4 24q0 20 13 31.5t40 24.5q45 21 99 33t104 12
q26 0 30.5 -14t4.5 -42v-6z" />
    <glyph glyph-name="i" unicode="i" horiz-adv-x="383" 
d="M131 545q-102 0 -102 73q0 35 45.5 64t121.5 29q53 0 81 -18t28 -50q0 -39 -47.5 -68.5t-126.5 -29.5zM313 460v-298q0 -22 4.5 -30.5t15.5 -18.5q12 -11 22 -21t10 -29q0 -72 -166 -72q-86 0 -130 19.5t-44 54.5q0 18 7.5 26.5t21.5 19.5q7 5 13 10t8 13q4 14 5 46t1 81
v21q0 38 -4 58t-22 33q-13 7 -23.5 15.5t-10.5 29.5q0 22 16 34.5t48 25.5q65 25 120 34.5t77 9.5q21 0 26 -7t5 -26v-29z" />
    <glyph glyph-name="j" unicode="j" horiz-adv-x="385" 
d="M86 -3v324q0 22 -4 31t-22 18q-16 7 -25 16t-9 31q0 35 60 62q44 19 93 30t99 11q24 0 30.5 -6t6.5 -23v-494q0 -184 -179 -184q-58 0 -93 26t-35 56q0 14 7.5 24t17.5 10q8 0 16 -1.5t15 -1.5q28 0 28 25q0 6 -3 17t-3 29zM139 543q-102 0 -102 73q0 36 45.5 64.5
t120.5 28.5q54 0 82 -18t28 -50q0 -39 -47.5 -68.5t-126.5 -29.5z" />
    <glyph glyph-name="k" unicode="k" horiz-adv-x="709" 
d="M290 640v-250q0 -18 14 -18q12 0 26.5 5.5t27 14t21 17.5t8.5 16t-10.5 16t-10.5 25q0 49 129 49q149 0 149 -60q0 -13 -3.5 -19.5t-10 -9.5t-16 -4.5t-20.5 -4.5q-16 -5 -32.5 -14t-29.5 -19.5t-21 -20.5t-8 -17q0 -16 38.5 -71.5t117.5 -148.5q10 -12 20.5 -19.5
t19 -15t14 -17t5.5 -25.5q0 -41 -39 -48t-121 -7h-51q-19 0 -31 2t-20.5 8t-16.5 17t-21 29l-86 125q-7 10 -11.5 15.5t-11.5 5.5q-13 0 -13 -19q0 -2 0.5 -6.5t0.5 -11.5q0 -45 9 -52q14 -12 23.5 -20.5t9.5 -28.5q0 -67 -158 -67q-169 0 -169 67q0 11 5 18t11.5 12t14 9.5
t13.5 10.5q10 13 13 61t3 132v150q0 43 -2 66.5t-13 30.5q-10 6 -21 9t-20 7t-15 10.5t-6 19.5q0 19 19 34.5t57 31.5q51 22 99.5 32t82.5 10q26 0 31.5 -14t5.5 -48z" />
    <glyph glyph-name="l" unicode="l" horiz-adv-x="381" 
d="M13 60q0 15 5 23t12.5 12.5t15.5 8t15 8.5q16 12 19 73.5t3 174.5v40q0 48 -2.5 79t-17.5 45q-8 8 -18.5 12.5t-20.5 10t-16.5 13.5t-6.5 24q0 21 11 35t36 28q42 24 101 39.5t117 15.5q29 0 38 -9t9 -33q0 -12 -2 -97t-2 -245q0 -88 4.5 -138t17.5 -63q11 -11 26.5 -20
t15.5 -35q0 -72 -184 -72q-176 0 -176 70z" />
    <glyph glyph-name="m" unicode="m" horiz-adv-x="938" 
d="M879 143q0 -15 5 -25.5t11 -19t11 -17t5 -19.5q0 -69 -142 -69q-140 0 -140 64q0 16 6.5 27t11.5 22q7 14 9.5 50.5t2.5 95.5q0 55 -8.5 81.5t-32.5 26.5q-23 0 -32.5 -22t-9.5 -66q0 -61 2 -98.5t7 -54.5q2 -7 10.5 -20t8.5 -37q0 -38 -33.5 -53.5t-106.5 -15.5
q-72 0 -104.5 14.5t-32.5 48.5q0 19 8.5 31t16.5 26q8 12 9.5 40.5t1.5 72.5q0 68 -8.5 101t-36.5 33q-24 0 -29 -29.5t-5 -91.5v-81q0 -37 8.5 -57.5t8.5 -36.5q0 -38 -32.5 -54.5t-102.5 -16.5q-74 0 -109 16t-35 52q0 19 11 27t23 22q10 11 12.5 47t2.5 99
q0 47 -2.5 75.5t-12.5 40.5q-11 12 -21.5 21.5t-10.5 27.5q0 25 19 39.5t63 30.5q44 17 81.5 24t58.5 7q14 0 21 -4.5t11 -15.5q3 -12 3.5 -24.5t1.5 -22.5t3.5 -16.5t9.5 -6.5q9 0 15 12t18 25q48 53 126 53q61 0 94 -41q13 -17 19.5 -31t13.5 -14q8 0 15.5 12t22.5 25
q26 24 50.5 36.5t62.5 12.5q146 0 146 -165v-214z" />
    <glyph glyph-name="n" unicode="n" horiz-adv-x="697" 
d="M28 60q0 12 5 20t11 13.5t12 9.5t8 8q7 11 8.5 60t1.5 136v16q0 24 -3.5 30.5t-21.5 19.5q-29 18 -29 42q0 35 57 60q65 29 115 40.5t72 11.5q38 0 38 -45q0 -20 2 -30t11 -10q6 0 10 8.5t13 19.5q39 51 115 51q50 0 90 -18t62 -47q22 -28 29 -65t7 -87q0 -54 -1.5 -90
t-1.5 -54q0 -22 4 -33t17 -25q8 -8 15.5 -16.5t7.5 -23.5q0 -40 -44 -55t-138 -15q-133 0 -133 60q0 17 8.5 24.5t13.5 16.5q13 20 15 58t2 96q0 57 -13 85t-45 28q-28 0 -37 -23t-9 -68q0 -67 2 -106t10 -53q4 -9 13 -19t9 -32q0 -37 -42 -52t-130 -15q-67 0 -101.5 18.5
t-34.5 49.5z" />
    <glyph glyph-name="o" unicode="o" horiz-adv-x="604" 
d="M17 246q0 121 95 201q42 36 96 55.5t112 19.5q60 0 109 -18.5t84.5 -51.5t55 -79.5t19.5 -103.5q0 -56 -21 -107.5t-62 -91.5q-88 -83 -218 -83q-112 0 -185 70q-41 39 -63 88t-22 101zM243 317q0 -29 6 -66.5t18 -73.5q24 -68 57 -68q19 0 30.5 16.5t11.5 47.5
q0 48 -7.5 89t-19 71t-26 46.5t-29.5 16.5q-41 0 -41 -79z" />
    <glyph glyph-name="p" unicode="p" horiz-adv-x="677" 
d="M355 373q-23 0 -31 -9t-11 -29q-2 -19 -5 -56.5t-3 -90.5q0 -36 10.5 -50.5t38.5 -14.5q71 0 71 110q0 67 -22.5 103.5t-47.5 36.5zM312 6q0 -31 6 -43.5t25 -23.5q24 -13 39 -22t15 -34q0 -71 -196 -71q-87 0 -131 19t-44 50q0 26 16.5 37t34.5 25q13 11 16 59.5
t3 138.5q0 179 -15 194q-7 10 -20.5 11.5t-21.5 6.5q-24 17 -24 39q0 16 17 35t50 35q61 32 114 45t82 13q16 0 21 -6.5t5 -24.5q0 -32 12 -32q7 0 14.5 7.5t20.5 18.5q39 36 104 36q43 0 80 -17t64 -49t42 -78t15 -105q0 -119 -63 -197q-32 -41 -73.5 -62.5t-85.5 -21.5
q-23 0 -41.5 6t-33 13t-25 13t-16.5 6t-6 -21z" />
    <glyph glyph-name="q" unicode="q" horiz-adv-x="659" 
d="M593 108q0 -70 3 -111t18 -54q16 -14 33.5 -24.5t17.5 -37.5q0 -69 -181 -69q-103 0 -154 17t-51 54q0 19 8.5 28t26.5 19q14 7 23.5 12t15.5 13t9 21t3 36q0 15 -13 15q-5 0 -13.5 -6.5t-22.5 -13.5t-33.5 -13.5t-46.5 -6.5q-44 0 -83.5 19.5t-69 54.5t-47 83t-17.5 106
q0 62 19.5 112t55.5 85.5t87.5 54.5t116.5 19q58 0 98 -10.5t62 -10.5t49 12t57 12q42 0 42 -47q0 -17 -6.5 -108.5t-6.5 -260.5zM260 286q0 -76 20 -116.5t53 -40.5q25 0 30 23.5t5 76.5v35q0 71 -9 106t-41 35q-58 0 -58 -119z" />
    <glyph glyph-name="r" unicode="r" horiz-adv-x="538" 
d="M19 69q0 24 11 34t24 19q7 5 11.5 10t6.5 11q3 11 5.5 54t2.5 117v15q0 19 -3 26t-16 14q-19 11 -29 21.5t-10 25.5q0 30 49 55q41 20 94 33.5t101 13.5q32 0 35 -24q4 -24 4 -37t10 -13q9 0 11 10t9 22q26 42 85 42q56 0 92 -34t36 -90t-33 -92t-82 -36q-54 0 -84 38
q-10 12 -13 24t-13 12q-11 0 -14.5 -27t-3.5 -82q0 -54 4.5 -79.5t26.5 -36.5q20 -11 34.5 -20t14.5 -34q0 -39 -44.5 -54t-136.5 -15q-185 0 -185 77z" />
    <glyph glyph-name="s" unicode="s" horiz-adv-x="467" 
d="M452 157q0 -36 -14.5 -67t-40.5 -53.5t-63.5 -35.5t-83.5 -13q-41 0 -67 9t-37 9q-10 0 -21.5 -6t-22.5 -6q-13 0 -29 11.5t-30 31t-23.5 44t-9.5 50.5q0 59 41 59q23 0 36.5 -13t29.5 -30q45 -48 75 -48q11 0 18 6.5t7 14.5q0 24 -20 33t-51 25q-124 64 -124 171
q0 34 15 64.5t41 53.5t61 37t76 14q26 0 47.5 -6t36.5 -6q14 0 27 7.5t25 7.5q13 0 29 -11.5t30 -29.5t23 -40.5t9 -45.5q0 -26 -15 -41t-40 -15q-26 0 -52 23q-19 17 -33 33.5t-37 16.5q-12 0 -20.5 -7.5t-8.5 -18.5q0 -19 22.5 -30t60.5 -30q67 -35 100 -73t33 -95z" />
    <glyph glyph-name="t" unicode="t" horiz-adv-x="453" 
d="M79 401q-26 1 -41 1.5t-22.5 4t-9.5 12t-2 24.5q0 14 2.5 22.5t9 15t17.5 13.5t27 19q76 54 124 84.5t82 30.5q32 0 38.5 -16t6.5 -59v-45h105q20 0 26 -3t6 -23v-43q0 -27 -7.5 -32t-31.5 -6l-74 -3q-17 -1 -24 -3.5t-7 -20.5v-178q0 -57 50 -57q18 0 32.5 9.5t30.5 9.5
q13 0 22.5 -14.5t9.5 -40.5q0 -19 -14.5 -39.5t-41 -37.5t-62.5 -28t-79 -11q-84 0 -128.5 45.5t-44.5 133.5v235z" />
    <glyph glyph-name="u" unicode="u" horiz-adv-x="695" 
d="M68 182v133q0 23 -4 35t-20 23q-12 7 -22.5 15.5t-10.5 29.5q0 22 16 34.5t48 25.5q65 25 118.5 34.5t74.5 9.5q19 0 26 -6t7 -26q0 -26 -6 -90.5t-6 -166.5q0 -53 11.5 -79t43.5 -26q39 0 51.5 29t12.5 94v64q0 23 -3 35t-19 23q-13 7 -23 15.5t-10 29.5q0 22 15.5 34.5
t46.5 25.5q61 24 114.5 34t74.5 10q23 0 27 -10.5t4 -46.5q0 -77 -3.5 -150t-3.5 -142q0 -13 0.5 -21t3 -12.5t7 -8t12.5 -8.5q12 -7 20 -15t8 -24q0 -34 -64 -62t-174 -28q-17 0 -24 2t-8 16q-2 20 -2.5 34t-16.5 14q-8 0 -15.5 -6.5t-17.5 -14.5q-29 -22 -57.5 -33.5
t-68.5 -11.5q-85 0 -124 47t-39 141z" />
    <glyph glyph-name="v" unicode="v" horiz-adv-x="642" 
d="M325 -13q-22 0 -44.5 23t-49 69t-59 114t-74.5 158q-8 17 -15 29t-23 20q-23 10 -39 16.5t-16 35.5q0 38 44 52t135 14q89 0 131 -11t42 -47q0 -15 -5 -23.5t-11.5 -14t-11.5 -11t-5 -14.5q0 -12 6 -26t13 -31q7 -18 14.5 -27t20.5 -9q18 0 35 37q22 48 22 65
q0 11 -14.5 22.5t-14.5 33.5q0 30 32.5 42.5t99.5 12.5q56 0 81 -10t25 -38q0 -18 -7 -28.5t-26 -18.5q-13 -7 -26 -12t-26 -31q-8 -17 -37 -81t-84 -174q-34 -68 -56 -102.5t-57 -34.5z" />
    <glyph glyph-name="w" unicode="w" horiz-adv-x="937" 
d="M313 -13q-18 0 -36.5 24.5t-43 71.5t-57 114.5t-77.5 153.5q-9 18 -19.5 30t-27.5 20q-18 7 -31.5 15t-13.5 32q0 30 46.5 50t132.5 20q142 0 142 -63q0 -16 -7.5 -25.5t-7.5 -18.5q0 -17 22 -59q11 -23 19.5 -35.5t17.5 -12.5q4 0 10.5 7t13 17t11 21.5t4.5 19.5
q0 7 -7 22t-23 26q-11 8 -18 16.5t-7 22.5q0 32 44 46t133 14q65 0 96.5 -12.5t31.5 -41.5q0 -12 -5 -20.5t-10.5 -15.5t-10.5 -14t-5 -16q0 -16 16 -51q21 -43 38 -43q11 0 23 21q17 30 27 50t10 31q0 17 -13 30t-13 30q0 53 120 53q53 0 78.5 -9.5t25.5 -34.5
q0 -16 -6.5 -27.5t-14.5 -14.5q-19 -7 -34 -12.5t-29 -32.5q-8 -15 -40.5 -85.5t-95.5 -193.5q-29 -56 -47 -87t-43 -31q-22 0 -42 29.5t-51 85.5q-30 53 -43.5 82.5t-27.5 29.5t-26 -28t-38 -80q-28 -58 -48 -89.5t-43 -31.5z" />
    <glyph glyph-name="x" unicode="x" horiz-adv-x="624" 
d="M-7 46q0 24 19 36q12 7 26.5 9.5t23.5 11.5q10 11 22 30t28 45q26 44 41.5 70t15.5 34q0 10 -41 65q-40 49 -50 55q-8 4 -21.5 4.5t-26.5 9.5q-16 12 -16 37q0 67 202 67q82 0 122 -9.5t40 -42.5q0 -21 -9 -33t-9 -18q0 -13 11 -29.5t21 -16.5q3 0 9.5 5.5t12.5 13
t10.5 16.5t4.5 15t-9 17.5t-9 26.5q0 25 26.5 40t73.5 15q103 0 103 -50q0 -13 -6.5 -21t-16.5 -14.5t-21.5 -13.5t-22.5 -18q-22 -24 -39 -48.5t-28.5 -44t-17.5 -32t-6 -13.5q0 -5 6.5 -20t19 -36t31 -45t42.5 -47q9 -9 18.5 -13.5t17.5 -8.5t13 -11t5 -22
q0 -40 -47.5 -55t-148.5 -15q-86 0 -127 10t-41 46q0 14 6 22t12.5 14t12.5 11t6 11q0 11 -5 23t-12 21.5t-15 16t-14 6.5q-5 0 -13 -8.5t-16 -21t-14 -25.5t-6 -22q0 -8 9 -18t9 -27q0 -35 -27 -44.5t-83 -9.5q-53 0 -77.5 9.5t-24.5 39.5z" />
    <glyph glyph-name="y" unicode="y" horiz-adv-x="624" 
d="M200 520q78 0 118 -15t40 -53q0 -14 -5 -21.5t-10.5 -13t-10.5 -10t-5 -10.5q0 -7 7.5 -27.5t18 -42.5t23 -39.5t21.5 -17.5q8 0 16.5 17.5t15.5 39.5t11.5 41.5t4.5 23.5q0 9 -6 16t-13 14t-13 14.5t-6 18.5q0 27 29.5 46t89.5 19q56 0 80 -18t24 -47q0 -22 -7.5 -28.5
t-20 -15.5t-29.5 -29t-36 -70q-24 -63 -41 -111.5t-31 -88.5t-28.5 -76t-34.5 -75q-38 -76 -81 -112.5t-112 -36.5q-70 0 -118.5 38t-48.5 97q0 41 27.5 65t62.5 24q31 0 54 -18.5t23 -45.5q0 -10 -2.5 -14t-2.5 -14t6 -14.5t14 -4.5q12 0 20 9.5t8 26.5q0 37 -21 84
t-55 117l-78 160q-20 40 -28.5 52t-21.5 16q-18 6 -33 18t-15 37q0 38 53 56.5t147 18.5z" />
    <glyph glyph-name="z" unicode="z" horiz-adv-x="535" 
d="M290 0h-127q-17 0 -34.5 -1t-35.5 -1q-63 0 -63 47q0 17 8 35t22 41l102 166q23 39 36.5 61.5t13.5 31.5q0 17 -30 17q-32 0 -44 -12.5t-23 -34.5q-7 -16 -15.5 -27t-31.5 -11q-20 0 -35 16.5t-15 41.5q0 22 7 49t23 55q14 25 27.5 36t32.5 11q3 0 28 -6.5t81 -6.5h103
q51 0 79.5 0.5t35.5 0.5q65 0 65 -41q0 -24 -35 -88l-111 -200q-8 -16 -13 -27t-5 -19q0 -17 28 -17q39 0 61 33q11 15 18.5 32t28.5 17q25 0 40 -16.5t15 -47.5q0 -28 -9 -54.5t-23 -47.5t-31.5 -33.5t-33.5 -12.5q-4 0 -34 6.5t-106 6.5z" />
    <glyph glyph-name="braceleft" unicode="{" horiz-adv-x="601" 
d="M349 175v-125q0 -35 2.5 -55t13 -29.5t31.5 -12t58 -2.5q32 0 49 -6.5t17 -27.5q0 -30 -48 -43t-152 -13q-86 0 -122 33.5t-36 113.5v157q0 45 -11 63.5t-45 28.5q-34 9 -34 47q0 37 34 47t45 29t11 63v158q0 79 36 112.5t122 33.5q104 0 152 -13.5t48 -41.5
q0 -21 -17 -28t-49 -7q-36 0 -57 -3t-31.5 -13t-13.5 -29.5t-3 -53.5v-124q0 -89 -49 -121q-5 -3 -5 -9t19 -19t27 -41.5t8 -68.5z" />
    <glyph glyph-name="bar" unicode="|" horiz-adv-x="365" 
d="M118 736h129v-818h-129v818z" />
    <glyph glyph-name="braceright" unicode="}" horiz-adv-x="601" 
d="M243 175q0 40 8 68.5t27 41.5t19 19t-5 9q-49 32 -49 121v124q0 34 -3 53.5t-13.5 29.5t-31.5 13t-57 3q-32 0 -49 7t-17 28q0 28 48 41.5t152 13.5q86 0 122 -33.5t36 -112.5v-158q0 -44 11 -63t45 -29t34 -47q0 -38 -34 -47q-34 -10 -45 -28.5t-11 -63.5v-157
q0 -80 -36 -113.5t-122 -33.5q-104 0 -152 13t-48 43q0 21 17 27.5t49 6.5q37 0 58 2.5t31.5 12t13 29.5t2.5 55v125z" />
    <glyph glyph-name="asciitilde" unicode="~" 
d="M150 227l-105 90q21 58 42 89q50 74 123 74q10 0 33.5 -7.5t50 -16t52 -16t40.5 -7.5q16 0 26 9.5t27 40.5l105 -90q-20 -51 -35 -76t-36 -47q-38 -41 -94 -41q-11 0 -35 7.5t-51 16.5t-52.5 16.5t-39.5 7.5q-25 0 -51 -50z" />
    <glyph glyph-name="quotesinglbase" horiz-adv-x="277" 
d="M108 -14q0 17 -11 23t-24 18q-42 37 -42 95q0 50 28.5 81t72.5 31q50 0 81.5 -39t31.5 -106q0 -104 -70 -204q-19 -26 -35.5 -40t-34.5 -14t-32 12.5t-14 28.5q0 10 7.5 21t17 25t17 30.5t7.5 37.5z" />
    <glyph glyph-name="quotesinglbase" unicode="&#x201a;" horiz-adv-x="277" 
d="M108 -14q0 17 -11 23t-24 18q-42 37 -42 95q0 50 28.5 81t72.5 31q50 0 81.5 -39t31.5 -106q0 -104 -70 -204q-19 -26 -35.5 -40t-34.5 -14t-32 12.5t-14 28.5q0 10 7.5 21t17 25t17 30.5t7.5 37.5z" />
    <glyph glyph-name="quotedblbase" horiz-adv-x="538" 
d="M108 -14q0 17 -11 23t-24 18q-42 37 -42 95q0 50 28.5 81t72.5 31q50 0 81.5 -39t31.5 -106q0 -104 -70 -204q-19 -26 -35.5 -40t-34.5 -14t-32 12.5t-14 28.5q0 10 7.5 21t17 25t17 30.5t7.5 37.5zM369 -14q0 17 -10.5 23t-24.5 18q-41 36 -41 95q0 50 28 81t72 31
q49 0 81.5 -39t32.5 -106q0 -104 -70 -204q-19 -26 -36.5 -40t-34.5 -14q-18 0 -32.5 12.5t-14.5 28.5q0 10 8 21t17 25t17 30.5t8 37.5z" />
    <glyph glyph-name="quotedblbase" unicode="&#x201e;" horiz-adv-x="538" 
d="M108 -14q0 17 -11 23t-24 18q-42 37 -42 95q0 50 28.5 81t72.5 31q50 0 81.5 -39t31.5 -106q0 -104 -70 -204q-19 -26 -35.5 -40t-34.5 -14t-32 12.5t-14 28.5q0 10 7.5 21t17 25t17 30.5t7.5 37.5zM369 -14q0 17 -10.5 23t-24.5 18q-41 36 -41 95q0 50 28 81t72 31
q49 0 81.5 -39t32.5 -106q0 -104 -70 -204q-19 -26 -36.5 -40t-34.5 -14q-18 0 -32.5 12.5t-14.5 28.5q0 10 8 21t17 25t17 30.5t8 37.5z" />
    <glyph glyph-name="ellipsis" unicode="&#x85;" horiz-adv-x="945" 
d="M42 105q0 49 33.5 83t82.5 34t82 -34t33 -83t-33 -83.5t-82 -34.5t-82.5 34.5t-33.5 83.5zM356 105q0 49 33.5 83t82.5 34q50 0 83 -34t33 -83t-33 -83.5t-83 -34.5q-49 0 -82.5 34.5t-33.5 83.5zM672 105q0 49 33.5 83t82.5 34t82 -34t33 -83t-33 -83.5t-82 -34.5
t-82.5 34.5t-33.5 83.5z" />
    <glyph glyph-name="ellipsis" unicode="&#x2026;" horiz-adv-x="945" 
d="M42 105q0 49 33.5 83t82.5 34t82 -34t33 -83t-33 -83.5t-82 -34.5t-82.5 34.5t-33.5 83.5zM356 105q0 49 33.5 83t82.5 34q50 0 83 -34t33 -83t-33 -83.5t-83 -34.5q-49 0 -82.5 34.5t-33.5 83.5zM672 105q0 49 33.5 83t82.5 34t82 -34t33 -83t-33 -83.5t-82 -34.5
t-82.5 34.5t-33.5 83.5z" />
    <glyph glyph-name="dagger" 
d="M255 466q-49 -8 -82 -23.5t-61 -15.5q-68 0 -68 69q0 68 68 68q14 0 30 -5t34 -12t38.5 -13t45.5 -9q-2 23 -9.5 41.5t-15.5 36t-14.5 33.5t-6.5 32q0 31 21 49t59 18t59 -18t21 -49q0 -17 -6.5 -33.5t-15 -34t-15 -36t-6.5 -39.5q25 3 45.5 9t38 13t33 12t29.5 5
q69 0 69 -68q0 -69 -69 -69q-28 0 -60.5 15.5t-82.5 23.5v-3q0 -34 13.5 -73.5t38.5 -86.5q-24 -47 -35.5 -145.5t-16.5 -247.5h-80q-5 149 -16.5 247.5t-35.5 145.5q50 93 53 163z" />
    <glyph glyph-name="dagger" unicode="&#x2020;" 
d="M255 466q-49 -8 -82 -23.5t-61 -15.5q-68 0 -68 69q0 68 68 68q14 0 30 -5t34 -12t38.5 -13t45.5 -9q-2 23 -9.5 41.5t-15.5 36t-14.5 33.5t-6.5 32q0 31 21 49t59 18t59 -18t21 -49q0 -17 -6.5 -33.5t-15 -34t-15 -36t-6.5 -39.5q25 3 45.5 9t38 13t33 12t29.5 5
q69 0 69 -68q0 -69 -69 -69q-28 0 -60.5 15.5t-82.5 23.5v-3q0 -34 13.5 -73.5t38.5 -86.5q-24 -47 -35.5 -145.5t-16.5 -247.5h-80q-5 149 -16.5 247.5t-35.5 145.5q50 93 53 163z" />
    <glyph glyph-name="perthousand" horiz-adv-x="1276" 
d="M24 466q0 41 14 75t37.5 58t55.5 37.5t68 13.5q77 0 127.5 -53t50.5 -142q0 -41 -13 -75.5t-35.5 -59t-53.5 -38.5t-68 -14q-39 0 -72 15t-58 41t-39 62.5t-14 79.5zM164 484q0 -51 14 -81.5t31 -30.5q29 0 29 61q0 52 -14 83t-29 31q-31 0 -31 -63zM202 45q0 13 54 87
t146 226q90 149 132 227.5t58 78.5q10 0 31 -12t56 -35q10 -7 10 -16q0 -10 -10 -22t-26 -30q-35 -41 -95 -129t-141 -225q-53 -87 -75.5 -137t-25.5 -57q-9 -18 -21 -18q-16 0 -80 43q-13 8 -13 19zM502 197q0 41 14 75t38 58.5t56.5 38t68.5 13.5q77 0 127 -53.5
t50 -141.5q0 -41 -13 -75.5t-36 -59t-54 -38.5t-68 -14q-39 0 -72 14.5t-58 41t-39 62.5t-14 79zM644 217q0 -52 14 -82.5t30 -30.5q28 0 28 62q0 51 -13.5 82t-29.5 31q-29 0 -29 -62zM895 197q0 41 14 75t38 58.5t56 38t68 13.5q77 0 127 -53.5t50 -141.5
q0 -41 -12.5 -75.5t-35 -59t-54 -38.5t-68.5 -14q-39 0 -72 14.5t-58 41t-39 62.5t-14 79zM1036 217q0 -52 14 -82.5t30 -30.5q28 0 28 62q0 51 -13 82t-29 31q-30 0 -30 -62z" />
    <glyph glyph-name="perthousand" unicode="&#x2030;" horiz-adv-x="1276" 
d="M24 466q0 41 14 75t37.5 58t55.5 37.5t68 13.5q77 0 127.5 -53t50.5 -142q0 -41 -13 -75.5t-35.5 -59t-53.5 -38.5t-68 -14q-39 0 -72 15t-58 41t-39 62.5t-14 79.5zM164 484q0 -51 14 -81.5t31 -30.5q29 0 29 61q0 52 -14 83t-29 31q-31 0 -31 -63zM202 45q0 13 54 87
t146 226q90 149 132 227.5t58 78.5q10 0 31 -12t56 -35q10 -7 10 -16q0 -10 -10 -22t-26 -30q-35 -41 -95 -129t-141 -225q-53 -87 -75.5 -137t-25.5 -57q-9 -18 -21 -18q-16 0 -80 43q-13 8 -13 19zM502 197q0 41 14 75t38 58.5t56.5 38t68.5 13.5q77 0 127 -53.5
t50 -141.5q0 -41 -13 -75.5t-36 -59t-54 -38.5t-68 -14q-39 0 -72 14.5t-58 41t-39 62.5t-14 79zM644 217q0 -52 14 -82.5t30 -30.5q28 0 28 62q0 51 -13.5 82t-29.5 31q-29 0 -29 -62zM895 197q0 41 14 75t38 58.5t56 38t68 13.5q77 0 127 -53.5t50 -141.5
q0 -41 -12.5 -75.5t-35 -59t-54 -38.5t-68.5 -14q-39 0 -72 14.5t-58 41t-39 62.5t-14 79zM1036 217q0 -52 14 -82.5t30 -30.5q28 0 28 62q0 51 -13 82t-29 31q-30 0 -30 -62z" />
    <glyph glyph-name="quilsinglleft" unicode="&#x2039;" horiz-adv-x="284" 
d="M184 255q40 -72 62 -117.5t22 -65.5q0 -34 -31 -34q-26 0 -55.5 26t-72.5 72q-43 44 -67.5 71t-24.5 49q0 16 25 45t70 76q44 46 74.5 71t52.5 25q14 0 22 -9.5t8 -23.5q0 -22 -23 -67t-62 -118z" />
    <glyph glyph-name="quoteleft" horiz-adv-x="277" 
d="M31 456q0 104 70 204q19 26 36 40t35 14t32 -12t14 -29q0 -10 -7.5 -21t-17 -25t-17 -30.5t-7.5 -36.5q0 -18 10.5 -24t24.5 -18q41 -36 41 -94q0 -50 -28 -81.5t-72 -31.5q-50 0 -82 38.5t-32 106.5z" />
    <glyph glyph-name="quoteleft" unicode="&#x2018;" horiz-adv-x="277" 
d="M31 456q0 104 70 204q19 26 36 40t35 14t32 -12t14 -29q0 -10 -7.5 -21t-17 -25t-17 -30.5t-7.5 -36.5q0 -18 10.5 -24t24.5 -18q41 -36 41 -94q0 -50 -28 -81.5t-72 -31.5q-50 0 -82 38.5t-32 106.5z" />
    <glyph glyph-name="quoteright" horiz-adv-x="277" 
d="M108 464q0 17 -11 23.5t-24 19.5q-42 37 -42 94q0 49 28.5 81t72.5 32q50 0 81.5 -39t31.5 -107q0 -103 -70 -203q-19 -27 -35.5 -40.5t-34.5 -13.5t-32 11.5t-14 28.5q0 10 7.5 21t17 24.5t17 30t7.5 37.5z" />
    <glyph glyph-name="quoteright" unicode="&#x2019;" horiz-adv-x="277" 
d="M108 464q0 17 -11 23.5t-24 19.5q-42 37 -42 94q0 49 28.5 81t72.5 32q50 0 81.5 -39t31.5 -107q0 -103 -70 -203q-19 -27 -35.5 -40.5t-34.5 -13.5t-32 11.5t-14 28.5q0 10 7.5 21t17 24.5t17 30t7.5 37.5z" />
    <glyph glyph-name="quotedblleft" horiz-adv-x="538" 
d="M293 456q0 50 17.5 103t51.5 101q19 26 36 40t35 14q17 0 31.5 -12t14.5 -29q0 -10 -7.5 -21t-17 -25t-17 -30.5t-7.5 -36.5q0 -18 11 -24t24 -18q19 -18 30.5 -42t11.5 -52q0 -50 -28.5 -81.5t-73.5 -31.5q-49 0 -80.5 38.5t-31.5 106.5zM31 456q0 104 70 204
q19 26 36 40t35 14t32 -12t14 -29q0 -10 -7.5 -21t-17 -25t-17 -30.5t-7.5 -36.5q0 -18 10.5 -24t24.5 -18q41 -36 41 -94q0 -50 -28 -81.5t-72 -31.5q-50 0 -82 38.5t-32 106.5z" />
    <glyph glyph-name="quotedblleft" unicode="&#x201c;" horiz-adv-x="538" 
d="M293 456q0 50 17.5 103t51.5 101q19 26 36 40t35 14q17 0 31.5 -12t14.5 -29q0 -10 -7.5 -21t-17 -25t-17 -30.5t-7.5 -36.5q0 -18 11 -24t24 -18q19 -18 30.5 -42t11.5 -52q0 -50 -28.5 -81.5t-73.5 -31.5q-49 0 -80.5 38.5t-31.5 106.5zM31 456q0 104 70 204
q19 26 36 40t35 14t32 -12t14 -29q0 -10 -7.5 -21t-17 -25t-17 -30.5t-7.5 -36.5q0 -18 10.5 -24t24.5 -18q41 -36 41 -94q0 -50 -28 -81.5t-72 -31.5q-50 0 -82 38.5t-32 106.5z" />
    <glyph glyph-name="quotedblright" horiz-adv-x="538" 
d="M108 464q0 17 -11 23.5t-24 19.5q-42 37 -42 94q0 49 28.5 81t72.5 32q50 0 81.5 -39t31.5 -107q0 -103 -70 -203q-19 -27 -35.5 -40.5t-34.5 -13.5t-32 11.5t-14 28.5q0 10 7.5 21t17 24.5t17 30t7.5 37.5zM369 464q0 17 -10.5 23.5t-24.5 19.5q-41 36 -41 94
q0 49 28 81t72 32q49 0 81.5 -39t32.5 -107q0 -103 -70 -203q-39 -54 -71 -54q-18 0 -32.5 11.5t-14.5 28.5q0 10 8 21t17 24.5t17 30t8 37.5z" />
    <glyph glyph-name="quotedblright" unicode="&#x201d;" horiz-adv-x="538" 
d="M108 464q0 17 -11 23.5t-24 19.5q-42 37 -42 94q0 49 28.5 81t72.5 32q50 0 81.5 -39t31.5 -107q0 -103 -70 -203q-19 -27 -35.5 -40.5t-34.5 -13.5t-32 11.5t-14 28.5q0 10 7.5 21t17 24.5t17 30t7.5 37.5zM369 464q0 17 -10.5 23.5t-24.5 19.5q-41 36 -41 94
q0 49 28 81t72 32q49 0 81.5 -39t32.5 -107q0 -103 -70 -203q-39 -54 -71 -54q-18 0 -32.5 11.5t-14.5 28.5q0 10 8 21t17 24.5t17 30t8 37.5z" />
    <glyph glyph-name="bullet" 
d="M158 358q0 29 10.5 54.5t29.5 44t43.5 29.5t53.5 11q28 0 52.5 -11t43 -29.5t29.5 -44t11 -54.5q0 -28 -11 -53.5t-29.5 -44.5t-43.5 -30t-53 -11t-53 11t-43.5 29.5t-29 44t-10.5 54.5z" />
    <glyph glyph-name="bullet" unicode="&#x2022;" 
d="M158 358q0 29 10.5 54.5t29.5 44t43.5 29.5t53.5 11q28 0 52.5 -11t43 -29.5t29.5 -44t11 -54.5q0 -28 -11 -53.5t-29.5 -44.5t-43.5 -30t-53 -11t-53 11t-43.5 29.5t-29 44t-10.5 54.5z" />
    <glyph glyph-name="endash" horiz-adv-x="512" 
d="M209 355h198q14 0 22 1.5t15 3t15.5 3t22.5 1.5q10 0 20 -11t10 -23q0 -20 -6 -47t-16.5 -51t-23 -41t-26.5 -17q-34 0 -55 5t-50 5h-160q-33 0 -54.5 -1t-37 -1.5t-27.5 -1.5t-27 -1q-13 0 -21 8t-8 21q0 7 4.5 24.5t11 37t12.5 37t9 23.5q17 34 45 34q18 0 31 -1.5
t26.5 -3t30 -3t39.5 -1.5z" />
    <glyph glyph-name="endash" unicode="&#x2013;" horiz-adv-x="512" 
d="M209 355h198q14 0 22 1.5t15 3t15.5 3t22.5 1.5q10 0 20 -11t10 -23q0 -20 -6 -47t-16.5 -51t-23 -41t-26.5 -17q-34 0 -55 5t-50 5h-160q-33 0 -54.5 -1t-37 -1.5t-27.5 -1.5t-27 -1q-13 0 -21 8t-8 21q0 7 4.5 24.5t11 37t12.5 37t9 23.5q17 34 45 34q18 0 31 -1.5
t26.5 -3t30 -3t39.5 -1.5z" />
    <glyph glyph-name="emdash" horiz-adv-x="1024" 
d="M209 355h710q14 0 22 1.5t15 3t15.5 3t22.5 1.5q10 0 20 -11t10 -23q0 -20 -6 -47t-16.5 -51t-23 -41t-26.5 -17q-34 0 -55 5t-50 5h-672q-33 0 -54.5 -1t-37 -1.5t-27.5 -1.5t-27 -1q-13 0 -21 8t-8 21q0 7 4.5 24.5t11 37t12.5 37t9 23.5q17 34 45 34q18 0 31 -1.5
t26.5 -3t30 -3t39.5 -1.5z" />
    <glyph glyph-name="emdash" unicode="&#x2014;" horiz-adv-x="1024" 
d="M209 355h710q14 0 22 1.5t15 3t15.5 3t22.5 1.5q10 0 20 -11t10 -23q0 -20 -6 -47t-16.5 -51t-23 -41t-26.5 -17q-34 0 -55 5t-50 5h-672q-33 0 -54.5 -1t-37 -1.5t-27.5 -1.5t-27 -1q-13 0 -21 8t-8 21q0 7 4.5 24.5t11 37t12.5 37t9 23.5q17 34 45 34q18 0 31 -1.5
t26.5 -3t30 -3t39.5 -1.5z" />
    <glyph glyph-name="trademark" horiz-adv-x="1011" 
d="M155 682h158q18 0 33.5 5t29.5 5q16 0 29 -12.5t22 -30t14 -36t5 -31.5q0 -22 -12 -35t-33 -13q-13 0 -24.5 10.5t-21.5 23.5t-18.5 23.5t-15.5 10.5q-20 0 -20 -40v-167q0 -25 8.5 -37t18 -18.5t18 -12.5t8.5 -18q0 -43 -119 -43q-140 0 -140 46q0 10 5.5 15t26.5 11
q19 6 24 55.5t5 159.5q0 50 -18 50q-11 0 -23 -17q-20 -29 -33.5 -40.5t-29.5 -11.5t-26.5 12t-10.5 32q0 13 6 32t16.5 37t24 30.5t29.5 12.5q13 0 28.5 -4t35.5 -4zM755 397l-36 -81q-15 -34 -28 -34q-7 0 -17.5 15.5t-28.5 56.5l-40 90q-7 18 -18 18q-7 0 -9.5 -15
t-2.5 -65q0 -36 4 -45t24 -19q10 -5 10 -18q0 -33 -86 -33q-74 0 -74 33q0 8 4 12t20 11q18 8 22 59t4 156q0 45 -4.5 60t-21.5 23q-22 11 -22 27q0 14 11 22t26.5 12.5t33.5 6t31 1.5q20 0 33 -1.5t21 -5.5t14 -11t12 -18l62 -116q10 -18 14.5 -22t11.5 -4q11 0 20 20
l43 83q14 26 24 41t21 22.5t25 9.5t35 2q88 0 88 -37q0 -15 -18 -29q-8 -6 -13 -14.5t-7.5 -23.5t-3.5 -37.5t-1 -56.5q0 -65 2.5 -102.5t12.5 -47.5q9 -9 18.5 -17.5t9.5 -20.5q0 -20 -24.5 -28.5t-83.5 -8.5q-102 0 -102 35q0 10 5.5 15t12 15t12 28.5t5.5 55.5
q0 24 -2 31.5t-9 7.5q-9 0 -16.5 -11.5t-23.5 -46.5z" />
    <glyph glyph-name="trademark" unicode="&#x2122;" horiz-adv-x="1011" 
d="M155 682h158q18 0 33.5 5t29.5 5q16 0 29 -12.5t22 -30t14 -36t5 -31.5q0 -22 -12 -35t-33 -13q-13 0 -24.5 10.5t-21.5 23.5t-18.5 23.5t-15.5 10.5q-20 0 -20 -40v-167q0 -25 8.5 -37t18 -18.5t18 -12.5t8.5 -18q0 -43 -119 -43q-140 0 -140 46q0 10 5.5 15t26.5 11
q19 6 24 55.5t5 159.5q0 50 -18 50q-11 0 -23 -17q-20 -29 -33.5 -40.5t-29.5 -11.5t-26.5 12t-10.5 32q0 13 6 32t16.5 37t24 30.5t29.5 12.5q13 0 28.5 -4t35.5 -4zM755 397l-36 -81q-15 -34 -28 -34q-7 0 -17.5 15.5t-28.5 56.5l-40 90q-7 18 -18 18q-7 0 -9.5 -15
t-2.5 -65q0 -36 4 -45t24 -19q10 -5 10 -18q0 -33 -86 -33q-74 0 -74 33q0 8 4 12t20 11q18 8 22 59t4 156q0 45 -4.5 60t-21.5 23q-22 11 -22 27q0 14 11 22t26.5 12.5t33.5 6t31 1.5q20 0 33 -1.5t21 -5.5t14 -11t12 -18l62 -116q10 -18 14.5 -22t11.5 -4q11 0 20 20
l43 83q14 26 24 41t21 22.5t25 9.5t35 2q88 0 88 -37q0 -15 -18 -29q-8 -6 -13 -14.5t-7.5 -23.5t-3.5 -37.5t-1 -56.5q0 -65 2.5 -102.5t12.5 -47.5q9 -9 18.5 -17.5t9.5 -20.5q0 -20 -24.5 -28.5t-83.5 -8.5q-102 0 -102 35q0 10 5.5 15t12 15t12 28.5t5.5 55.5
q0 24 -2 31.5t-9 7.5q-9 0 -16.5 -11.5t-23.5 -46.5z" />
    <glyph glyph-name="quilsinglright" unicode="&#x203a;" horiz-adv-x="284" 
d="M100 255q-40 72 -62 117.5t-22 65.5q0 34 31 34q26 0 55.5 -26.5t73.5 -71.5q42 -45 66.5 -72t24.5 -49q0 -17 -25 -45t-69 -74t-74.5 -71t-53.5 -25q-30 0 -30 31q0 23 23 68t62 118z" />
    <glyph glyph-name="currency" unicode="&#xa4;" horiz-adv-x="573" 
d="M86 683l93 -94q24 17 50.5 24.5t56.5 7.5q32 0 59 -7.5t51 -24.5l93 94l61 -63l-92 -96q30 -50 30 -108t-30 -108l92 -95l-61 -64l-93 95q-46 -33 -109 -33q-62 0 -108 33l-93 -95l-62 64l91 95q-16 25 -22.5 52t-6.5 57q0 61 29 107l-91 96zM287 530q-23 0 -43 -9
t-35 -24.5t-24 -36.5t-9 -44q0 -46 32 -80t79 -34q23 0 43.5 9t35.5 24.5t24 36.5t9 44t-9 44t-24 36.5t-35.5 24.5t-43.5 9z" />
    <glyph glyph-name="brokenbar" unicode="&#xa6;" horiz-adv-x="472" 
d="M172 702h129v-356h-129v356zM172 275h129v-357h-129v357z" />
    <glyph glyph-name="section" unicode="&#xa7;" horiz-adv-x="526" 
d="M426 122q65 -68 65 -136q0 -89 -62.5 -139.5t-180.5 -50.5q-95 0 -149 34.5t-54 85.5q0 32 24.5 56t58.5 24q27 0 43 -14t28 -42q6 -12 10 -23t11.5 -19.5t20 -13.5t34.5 -5q34 0 53.5 17t19.5 44q0 40 -34 60t-94 42q-56 21 -98 41t-70.5 44.5t-43 55.5t-14.5 74
q0 56 28 101.5t81 72.5q-66 49 -66 113q0 35 16 66t46 54t73.5 36.5t98.5 13.5q98 0 149.5 -31t51.5 -80q0 -30 -20 -49.5t-46 -19.5q-28 0 -44 12.5t-28 39.5q-13 28 -30.5 40.5t-48.5 12.5t-48.5 -14.5t-17.5 -39.5q0 -33 31.5 -52t92.5 -45q49 -20 92 -37t75 -49
q48 -51 48 -128q0 -109 -102 -152zM177 361q-25 0 -42 -15.5t-17 -38.5q0 -21 14 -36t41 -30q55 -31 96 -45t63 -14q28 0 44.5 14t16.5 37q0 24 -16 39.5t-45 32.5q-56 31 -99 43.5t-56 12.5z" />
    <glyph glyph-name="afii10023" unicode="&#xa8;" horiz-adv-x="694" 
d="M173 816q0 27 18.5 46t44.5 19q27 0 45.5 -18.5t18.5 -46.5t-18.5 -46.5t-45.5 -18.5q-26 0 -44.5 19t-18.5 46zM380 816q0 27 18 45.5t45 18.5t45.5 -18.5t18.5 -45.5q0 -28 -18.5 -46.5t-45.5 -18.5t-45 19t-18 46zM90 378q0 60 -1 97.5t-3 60t-6.5 33t-10.5 17.5
t-16 12t-19 11.5t-15.5 15t-6.5 23.5q0 53 82 53q28 0 91 -2.5t161 -2.5q63 0 104.5 2.5t68.5 5t44 5t32 2.5q27 0 42.5 -30t15.5 -76q0 -57 -16.5 -88.5t-44.5 -31.5q-17 0 -31.5 19t-28.5 34q-21 25 -49 35t-68 10q-71 0 -90 -14q-3 -3 -5.5 -7.5t-4 -15t-2.5 -29.5
t-1 -51q0 -38 6.5 -48t38.5 -10q26 0 36.5 10t10.5 23q0 30 9.5 47.5t29.5 17.5q34 0 53 -37.5t19 -109.5q0 -77 -18.5 -120t-53.5 -43q-39 0 -39 55q0 16 -9 34t-37 18q-29 0 -34.5 -12.5t-5.5 -51.5q0 -35 0.5 -55.5t2 -32t4.5 -15.5t7 -7q10 -7 28.5 -9.5t53.5 -2.5
q62 0 91.5 20t44 44t23 44t28.5 20q16 0 29.5 -5t23.5 -19t15.5 -39t5.5 -65q0 -21 -4.5 -45t-13.5 -44t-23 -33t-33 -13q-6 0 -19.5 3t-41 6t-72.5 6t-115 3q-41 0 -67.5 -1.5t-49 -3t-46 -3t-58.5 -1.5q-49 0 -84.5 17t-35.5 39q0 15 4.5 24t12 15t15.5 11t16 12
q18 19 24 82t6 187z" />
    <glyph glyph-name="afii10023" unicode="&#x401;" horiz-adv-x="694" 
d="M173 816q0 27 18.5 46t44.5 19q27 0 45.5 -18.5t18.5 -46.5t-18.5 -46.5t-45.5 -18.5q-26 0 -44.5 19t-18.5 46zM380 816q0 27 18 45.5t45 18.5t45.5 -18.5t18.5 -45.5q0 -28 -18.5 -46.5t-45.5 -18.5t-45 19t-18 46zM90 378q0 60 -1 97.5t-3 60t-6.5 33t-10.5 17.5
t-16 12t-19 11.5t-15.5 15t-6.5 23.5q0 53 82 53q28 0 91 -2.5t161 -2.5q63 0 104.5 2.5t68.5 5t44 5t32 2.5q27 0 42.5 -30t15.5 -76q0 -57 -16.5 -88.5t-44.5 -31.5q-17 0 -31.5 19t-28.5 34q-21 25 -49 35t-68 10q-71 0 -90 -14q-3 -3 -5.5 -7.5t-4 -15t-2.5 -29.5
t-1 -51q0 -38 6.5 -48t38.5 -10q26 0 36.5 10t10.5 23q0 30 9.5 47.5t29.5 17.5q34 0 53 -37.5t19 -109.5q0 -77 -18.5 -120t-53.5 -43q-39 0 -39 55q0 16 -9 34t-37 18q-29 0 -34.5 -12.5t-5.5 -51.5q0 -35 0.5 -55.5t2 -32t4.5 -15.5t7 -7q10 -7 28.5 -9.5t53.5 -2.5
q62 0 91.5 20t44 44t23 44t28.5 20q16 0 29.5 -5t23.5 -19t15.5 -39t5.5 -65q0 -21 -4.5 -45t-13.5 -44t-23 -33t-33 -13q-6 0 -19.5 3t-41 6t-72.5 6t-115 3q-41 0 -67.5 -1.5t-49 -3t-46 -3t-58.5 -1.5q-49 0 -84.5 17t-35.5 39q0 15 4.5 24t12 15t15.5 11t16 12
q18 19 24 82t6 187z" />
    <glyph glyph-name="copyright" unicode="&#xa9;" horiz-adv-x="828" 
d="M429 678q84 0 156.5 -30t125 -82t82.5 -120.5t30 -145.5q0 -81 -33 -150t-88.5 -119.5t-127 -79.5t-148.5 -29q-80 0 -152.5 29t-128 80t-88.5 120t-33 149t33.5 149t90 120t129.5 80t152 29zM429 606q-63 0 -121.5 -23t-103.5 -64t-72 -97t-27 -122q0 -63 25.5 -119
t69.5 -97.5t102.5 -65.5t123.5 -24q63 0 120.5 23.5t101 65t69 97.5t25.5 120q0 63 -24.5 118.5t-67 97.5t-99.5 66t-122 24zM440 485q26 0 54 -12t50 -12q3 0 11 1.5t13 1.5q22 0 39 -28t17 -65q0 -25 -15 -41.5t-40 -16.5q-27 0 -44 28q-20 33 -40 48.5t-51 15.5
q-28 0 -43.5 -19t-15.5 -51q0 -31 12 -60.5t34 -47.5q28 -23 69 -23q17 0 31 5.5t26 12t22 12t18 5.5q11 0 19 -9.5t8 -22.5q0 -25 -16.5 -48t-44.5 -28q-30 -5 -56.5 -17t-58.5 -12q-75 0 -133 41q-35 25 -57.5 67t-22.5 83t20.5 79.5t55.5 65.5q62 47 139 47z" />
    <glyph glyph-name="guillemotleft" unicode="&#xab;" horiz-adv-x="527" 
d="M184 255q40 -72 62 -117.5t22 -65.5q0 -34 -31 -34q-26 0 -55.5 26t-72.5 72q-43 44 -67.5 71t-24.5 49q0 16 25 45t70 76q44 46 74.5 71t52.5 25q14 0 22 -9.5t8 -23.5q0 -22 -23 -67t-62 -118zM423 255q41 -72 62.5 -117t21.5 -66q0 -34 -31 -34q-26 0 -55.5 26
t-72.5 72q-43 44 -67.5 71t-24.5 49q0 16 25 45t70 76q43 46 74 71t53 25q14 0 22 -9.5t8 -23.5q0 -22 -23 -67t-62 -118z" />
    <glyph glyph-name="logicalnot" unicode="&#xac;" horiz-adv-x="787" 
d="M117 408h553v-236h-126v111h-427v125z" />
    <glyph glyph-name="registered" unicode="&#xae;" horiz-adv-x="880" 
d="M446 697q88 0 163 -31t130 -85t86 -126t31 -152q0 -84 -34.5 -156t-92 -125t-132.5 -83t-155 -30q-83 0 -158.5 30.5t-133.5 83.5t-92 125t-34 155t34.5 155.5t93 126t134.5 83.5t160 29zM446 622q-68 2 -129 -22t-107.5 -67t-74 -102t-27.5 -128q0 -66 26.5 -124
t72.5 -101.5t106.5 -68.5t128.5 -25q66 0 126 24.5t105 67.5t72 101.5t27 125.5q0 66 -26 124t-70 101.5t-103.5 69t-126.5 24.5zM411 271q-11 0 -13.5 -5.5t-2.5 -33.5q0 -35 4 -52q1 -6 7 -10.5t12.5 -9t11.5 -10.5t5 -15q0 -20 -27 -29t-91 -9q-120 0 -120 45q0 13 23 27
q16 10 21.5 31t5.5 52q0 26 -1.5 57t-1.5 67q0 38 -4 52.5t-17 19.5q-26 12 -26 29q0 38 74 38q5 0 30 -2t47 -2q28 0 74 3q15 1 25.5 1.5t16.5 0.5q69 0 111 -30t42 -80q0 -28 -15 -52t-38 -34q-9 -4 -9 -7q0 -7 13 -11q34 -13 49.5 -36t22.5 -71q2 -13 9.5 -19t16 -10.5
t15 -9.5t6.5 -17q0 -22 -27.5 -35t-73.5 -13q-34 0 -55.5 7.5t-35.5 23.5t-23 41t-17 59q-12 48 -44 49zM393 425v-72q0 -13 14 -13q25 0 35.5 12t10.5 41q0 52 -40 52q-11 0 -15.5 -4t-4.5 -16z" />
    <glyph glyph-name="degree" unicode="&#xb0;" horiz-adv-x="348" 
d="M158 389q-65 0 -107 40.5t-42 105.5q0 37 14 67.5t37.5 52.5t55.5 34.5t68 12.5q32 0 60 -12.5t48.5 -33.5t32.5 -49.5t12 -60.5q0 -34 -15.5 -62.5t-40.5 -49.5t-57 -33t-66 -12zM160 649q-18 0 -29 -12.5t-11 -33.5q0 -14 3.5 -40.5t12 -52t21 -44.5t30.5 -19
q38 0 38 44q0 19 -4 45.5t-12.5 51t-20.5 42.5t-28 19z" />
    <glyph glyph-name="plusminus" unicode="&#xb1;" 
d="M242 516h105v-118h172v-104h-172v-118h-105v118h-172v104h172v118zM70 123h449v-103h-449v103z" />
    <glyph glyph-name="mu" unicode="&#xb5;" horiz-adv-x="586" 
d="M124 78q-10 -69 -14 -118.5t-9 -77.5q-6 -45 -21 -64t-50 -19q-29 0 -46 18t-17 49q0 35 27.5 112.5t53.5 199.5l49 238h155l-54 -255q-6 -31 -6 -52q0 -47 41 -47q28 0 43.5 26t27.5 82l53 246h154l-51 -242q-2 -10 -3 -19t-1 -15q0 -43 36 -43q20 0 29 12t20 30
q7 12 13 19t17 7q7 0 11.5 -6t4.5 -14q0 -6 -5.5 -27.5t-19.5 -47.5q-44 -81 -117 -81q-83 0 -89 92q-37 -90 -127 -90q-46 0 -73.5 23t-31.5 64z" />
    <glyph glyph-name="paragraph" unicode="&#xb6;" horiz-adv-x="472" 
d="M468 695v-66h-47v-629h-93v629h-64v-629h-94v369q-76 4 -120.5 49t-44.5 114q0 72 48.5 117.5t130.5 45.5h284z" />
    <glyph glyph-name="periodcentered" unicode="&#xb7;" horiz-adv-x="365" 
d="M76 287q0 45 31 76t75 31q45 0 76.5 -31t31.5 -76t-31.5 -76t-76.5 -31q-44 0 -75 31t-31 76z" />
    <glyph glyph-name="periodcentered" unicode="&#x2219;" horiz-adv-x="365" 
d="M76 287q0 45 31 76t75 31q45 0 76.5 -31t31.5 -76t-31.5 -76t-76.5 -31q-44 0 -75 31t-31 76z" />
    <glyph glyph-name="afii10071" unicode="&#xb8;" horiz-adv-x="540" 
d="M277 331h9q39 0 49.5 4.5t10.5 29.5q0 29 -16 45.5t-39 16.5q-24 0 -42.5 -20t-18.5 -49q0 -19 7.5 -23t27.5 -4h12zM475 235h-213q-16 0 -23 -2.5t-7 -11.5q0 -16 9 -33t25 -31t38 -23t47 -9q23 0 41 6.5t33 15t26.5 15t20.5 6.5q16 0 28 -14t12 -37q0 -40 -59 -81
q-74 -50 -167 -50q-58 0 -107 20.5t-84 56t-54.5 83.5t-19.5 104q0 85 49 155q38 55 96.5 85.5t124.5 30.5q53 0 97 -16.5t75 -45t48 -67.5t17 -83q0 -41 -12.5 -57.5t-40.5 -16.5zM106 630q0 27 18.5 46t44.5 19q27 0 45 -18.5t18 -46.5t-18 -46.5t-45 -18.5
q-26 0 -44.5 19t-18.5 46zM313 630q0 27 18 45.5t45 18.5t45 -18.5t18 -45.5q0 -28 -18 -46.5t-45 -18.5t-45 19t-18 46z" />
    <glyph glyph-name="afii10071" unicode="&#x451;" horiz-adv-x="540" 
d="M277 331h9q39 0 49.5 4.5t10.5 29.5q0 29 -16 45.5t-39 16.5q-24 0 -42.5 -20t-18.5 -49q0 -19 7.5 -23t27.5 -4h12zM475 235h-213q-16 0 -23 -2.5t-7 -11.5q0 -16 9 -33t25 -31t38 -23t47 -9q23 0 41 6.5t33 15t26.5 15t20.5 6.5q16 0 28 -14t12 -37q0 -40 -59 -81
q-74 -50 -167 -50q-58 0 -107 20.5t-84 56t-54.5 83.5t-19.5 104q0 85 49 155q38 55 96.5 85.5t124.5 30.5q53 0 97 -16.5t75 -45t48 -67.5t17 -83q0 -41 -12.5 -57.5t-40.5 -16.5zM106 630q0 27 18.5 46t44.5 19q27 0 45 -18.5t18 -46.5t-18 -46.5t-45 -18.5
q-26 0 -44.5 19t-18.5 46zM313 630q0 27 18 45.5t45 18.5t45 -18.5t18 -45.5q0 -28 -18 -46.5t-45 -18.5t-45 19t-18 46z" />
    <glyph glyph-name="afii61352" unicode="&#xb9;" horiz-adv-x="1177" 
d="M94 323q0 89 -3.5 148t-18.5 89q-7 13 -18 19t-21.5 11.5t-18.5 13.5t-8 25q0 39 42 52.5t128 13.5q26 0 45 -2t32 -9q34 -18 84 -62.5t99 -90.5t87.5 -81.5t49.5 -35.5q21 0 21 44q0 26 0.5 41t0.5 19q0 32 -6.5 48.5t-29.5 24.5q-14 5 -23.5 16t-9.5 31q0 39 36 51
t112 12q70 0 103.5 -12t33.5 -48q0 -25 -10.5 -35t-28.5 -20q-21 -11 -26.5 -27t-10.5 -61q-4 -39 -6 -106.5t-4 -136.5t-4.5 -126t-6.5 -75q-13 -61 -53 -61q-26 0 -73 40t-123 111q-89 84 -135 132t-64 48q-20 0 -26 -22t-6 -68t6 -74.5t10 -35.5q5 -7 14 -11.5t18 -10.5
t15.5 -14.5t6.5 -23.5q0 -70 -139 -70q-144 0 -144 66q0 14 6.5 23t15 15t17.5 11.5t14 12.5q13 18 16.5 68.5t3.5 132.5zM799 338q0 67 58 114q53 42 127 42q72 0 117.5 -39.5t45.5 -103.5q0 -36 -15 -65.5t-40.5 -50.5t-59 -32.5t-69.5 -11.5q-32 0 -61 9.5t-50 29.5
q-53 47 -53 108zM936 378q0 -12 3 -31.5t9 -39t15.5 -33.5t22.5 -14q25 0 25 37q0 55 -15.5 90.5t-34.5 35.5q-25 0 -25 -45zM1147 105q0 -21 -3.5 -40.5t-15 -33.5t-32 -22.5t-54.5 -8.5q-26 0 -51 3t-59 3q-21 0 -34.5 -1t-22.5 -2t-15 -2t-13 -1q-19 0 -33 16t-14 31
q0 90 76 90q11 0 20 -1t22 -2.5t31.5 -2.5t48.5 -1q50 0 80 2.5t40 2.5q16 0 22.5 -9.5t6.5 -20.5z" />
    <glyph glyph-name="afii61352" unicode="&#x2116;" horiz-adv-x="1177" 
d="M94 323q0 89 -3.5 148t-18.5 89q-7 13 -18 19t-21.5 11.5t-18.5 13.5t-8 25q0 39 42 52.5t128 13.5q26 0 45 -2t32 -9q34 -18 84 -62.5t99 -90.5t87.5 -81.5t49.5 -35.5q21 0 21 44q0 26 0.5 41t0.5 19q0 32 -6.5 48.5t-29.5 24.5q-14 5 -23.5 16t-9.5 31q0 39 36 51
t112 12q70 0 103.5 -12t33.5 -48q0 -25 -10.5 -35t-28.5 -20q-21 -11 -26.5 -27t-10.5 -61q-4 -39 -6 -106.5t-4 -136.5t-4.5 -126t-6.5 -75q-13 -61 -53 -61q-26 0 -73 40t-123 111q-89 84 -135 132t-64 48q-20 0 -26 -22t-6 -68t6 -74.5t10 -35.5q5 -7 14 -11.5t18 -10.5
t15.5 -14.5t6.5 -23.5q0 -70 -139 -70q-144 0 -144 66q0 14 6.5 23t15 15t17.5 11.5t14 12.5q13 18 16.5 68.5t3.5 132.5zM799 338q0 67 58 114q53 42 127 42q72 0 117.5 -39.5t45.5 -103.5q0 -36 -15 -65.5t-40.5 -50.5t-59 -32.5t-69.5 -11.5q-32 0 -61 9.5t-50 29.5
q-53 47 -53 108zM936 378q0 -12 3 -31.5t9 -39t15.5 -33.5t22.5 -14q25 0 25 37q0 55 -15.5 90.5t-34.5 35.5q-25 0 -25 -45zM1147 105q0 -21 -3.5 -40.5t-15 -33.5t-32 -22.5t-54.5 -8.5q-26 0 -51 3t-59 3q-21 0 -34.5 -1t-22.5 -2t-15 -2t-13 -1q-19 0 -33 16t-14 31
q0 90 76 90q11 0 20 -1t22 -2.5t31.5 -2.5t48.5 -1q50 0 80 2.5t40 2.5q16 0 22.5 -9.5t6.5 -20.5z" />
    <glyph glyph-name="guillemotright" unicode="&#xbb;" horiz-adv-x="527" 
d="M104 255q-40 72 -62 117.5t-22 65.5q0 34 31 34q26 0 55.5 -26.5t73.5 -71.5q42 -45 66.5 -72t24.5 -49q0 -17 -25 -45t-69 -74t-75 -71t-53 -25q-31 0 -31 31q0 23 23.5 68.5t62.5 117.5zM339 255q-41 72 -62.5 117t-21.5 66q0 34 32 34q26 0 55.5 -26.5t72.5 -71.5
t67.5 -72t24.5 -49q0 -17 -25 -45t-69 -74t-74.5 -71t-53.5 -25q-31 0 -31 31q0 23 23 68t62 118z" />
    <glyph glyph-name="afii10017" unicode="&#xc0;" horiz-adv-x="810" 
d="M366 169h-39q-55 0 -81 -8t-26 -33q0 -14 9.5 -20t21.5 -11t21.5 -13.5t9.5 -28.5q0 -34 -37 -49t-113 -15q-73 0 -105.5 16.5t-32.5 47.5q0 17 5 24.5t14 12.5t21.5 9.5t26.5 15.5q17 12 38 61.5t58 131.5q55 124 90 200t35 110q0 12 -3.5 18.5t-3.5 28.5q0 5 2.5 13
t11.5 15.5t27 13t50 5.5q39 0 66.5 -6t50 -26t43.5 -58t48 -102l93 -223q14 -33 26.5 -64.5t23.5 -56.5t21 -41.5t19 -19.5q33 -13 43 -25t10 -37q0 -12 -9 -23.5t-31.5 -20.5t-60.5 -14.5t-95 -5.5q-106 0 -153.5 15t-47.5 49q0 19 9 28.5t20.5 15.5t20.5 12t9 18
q0 40 -106 40zM282 299h147q-25 69 -45 103t-31 34t-27.5 -34.5t-43.5 -102.5z" />
    <glyph glyph-name="afii10017" unicode="&#x410;" horiz-adv-x="810" 
d="M366 169h-39q-55 0 -81 -8t-26 -33q0 -14 9.5 -20t21.5 -11t21.5 -13.5t9.5 -28.5q0 -34 -37 -49t-113 -15q-73 0 -105.5 16.5t-32.5 47.5q0 17 5 24.5t14 12.5t21.5 9.5t26.5 15.5q17 12 38 61.5t58 131.5q55 124 90 200t35 110q0 12 -3.5 18.5t-3.5 28.5q0 5 2.5 13
t11.5 15.5t27 13t50 5.5q39 0 66.5 -6t50 -26t43.5 -58t48 -102l93 -223q14 -33 26.5 -64.5t23.5 -56.5t21 -41.5t19 -19.5q33 -13 43 -25t10 -37q0 -12 -9 -23.5t-31.5 -20.5t-60.5 -14.5t-95 -5.5q-106 0 -153.5 15t-47.5 49q0 19 9 28.5t20.5 15.5t20.5 12t9 18
q0 40 -106 40zM282 299h147q-25 69 -45 103t-31 34t-27.5 -34.5t-43.5 -102.5z" />
    <glyph glyph-name="afii10018" unicode="&#xc1;" horiz-adv-x="726" 
d="M93 403v75q0 58 -4 82.5t-14 30.5q-9 6 -19.5 9.5t-19.5 9t-14.5 14t-5.5 23.5q0 55 91 55q43 0 99.5 -3.5t103.5 -3.5q72 0 116 3t70.5 6.5t41.5 6.5t28 3q25 0 42 -10.5t27.5 -28t15.5 -39.5t5 -45q0 -17 -4.5 -35t-13.5 -33t-22 -24.5t-29 -9.5t-37 9.5t-38 37.5
q-11 17 -21.5 28t-24.5 17t-34 8t-50 2q-34 0 -44.5 -9t-10.5 -36v-50q0 -47 9.5 -59.5t37.5 -12.5q20 0 56 3.5t61 3.5q39 0 78 -13.5t69.5 -39.5t50 -64.5t19.5 -88.5q0 -49 -17 -92t-50.5 -74.5t-82 -49.5t-111.5 -18q-69 0 -126.5 4.5t-117.5 4.5q-25 0 -58 -3t-52 -3
q-41 0 -59 15t-18 41q0 23 16 30.5t35 27.5q17 17 21.5 88t4.5 207zM369 108q37 0 57.5 35.5t20.5 85.5q0 90 -91 90q-29 0 -29 -26v-141q0 -26 8.5 -35t33.5 -9z" />
    <glyph glyph-name="afii10018" unicode="&#x411;" horiz-adv-x="726" 
d="M93 403v75q0 58 -4 82.5t-14 30.5q-9 6 -19.5 9.5t-19.5 9t-14.5 14t-5.5 23.5q0 55 91 55q43 0 99.5 -3.5t103.5 -3.5q72 0 116 3t70.5 6.5t41.5 6.5t28 3q25 0 42 -10.5t27.5 -28t15.5 -39.5t5 -45q0 -17 -4.5 -35t-13.5 -33t-22 -24.5t-29 -9.5t-37 9.5t-38 37.5
q-11 17 -21.5 28t-24.5 17t-34 8t-50 2q-34 0 -44.5 -9t-10.5 -36v-50q0 -47 9.5 -59.5t37.5 -12.5q20 0 56 3.5t61 3.5q39 0 78 -13.5t69.5 -39.5t50 -64.5t19.5 -88.5q0 -49 -17 -92t-50.5 -74.5t-82 -49.5t-111.5 -18q-69 0 -126.5 4.5t-117.5 4.5q-25 0 -58 -3t-52 -3
q-41 0 -59 15t-18 41q0 23 16 30.5t35 27.5q17 17 21.5 88t4.5 207zM369 108q37 0 57.5 35.5t20.5 85.5q0 90 -91 90q-29 0 -29 -26v-141q0 -26 8.5 -35t33.5 -9z" />
    <glyph glyph-name="afii10019" unicode="&#xc2;" horiz-adv-x="737" 
d="M320 566v-134q0 -24 30 -24q39 0 57 20t18 69q0 52 -16.5 73t-63.5 21q-25 0 -25 -25zM326 262v-107q0 -26 11 -35t36 -9q79 0 79 100q0 47 -17 68t-65 21q-22 0 -33 -8t-11 -30zM92 300v108q0 62 -1 97.5t-3.5 53.5t-7 24t-10.5 8q-55 20 -55 60q0 29 22.5 40t68.5 11
q29 0 60.5 -1.5t66.5 -1.5q28 0 59.5 1.5t61 3t55.5 3t43 1.5q112 0 166.5 -47t54.5 -126q0 -29 -9.5 -53t-23.5 -40q-15 -16 -33.5 -29t-18.5 -24q0 -7 27.5 -15.5t54.5 -32.5q21 -19 34.5 -55.5t13.5 -79.5q0 -53 -21 -93t-58 -67t-87.5 -41t-109.5 -14q-65 0 -122 4.5
t-114 4.5q-29 0 -61.5 -3t-52.5 -3q-46 0 -61.5 18t-15.5 38q0 28 14.5 35t36.5 26q7 6 12 15.5t8 29.5t4.5 54t1.5 90z" />
    <glyph glyph-name="afii10019" unicode="&#x412;" horiz-adv-x="737" 
d="M320 566v-134q0 -24 30 -24q39 0 57 20t18 69q0 52 -16.5 73t-63.5 21q-25 0 -25 -25zM326 262v-107q0 -26 11 -35t36 -9q79 0 79 100q0 47 -17 68t-65 21q-22 0 -33 -8t-11 -30zM92 300v108q0 62 -1 97.5t-3.5 53.5t-7 24t-10.5 8q-55 20 -55 60q0 29 22.5 40t68.5 11
q29 0 60.5 -1.5t66.5 -1.5q28 0 59.5 1.5t61 3t55.5 3t43 1.5q112 0 166.5 -47t54.5 -126q0 -29 -9.5 -53t-23.5 -40q-15 -16 -33.5 -29t-18.5 -24q0 -7 27.5 -15.5t54.5 -32.5q21 -19 34.5 -55.5t13.5 -79.5q0 -53 -21 -93t-58 -67t-87.5 -41t-109.5 -14q-65 0 -122 4.5
t-114 4.5q-29 0 -61.5 -3t-52.5 -3q-46 0 -61.5 18t-15.5 38q0 28 14.5 35t36.5 26q7 6 12 15.5t8 29.5t4.5 54t1.5 90z" />
    <glyph glyph-name="afii10020" unicode="&#xc3;" horiz-adv-x="623" 
d="M18 65q0 25 10 35.5t25 16.5q12 5 19.5 11.5t12.5 27.5t6.5 60.5t1.5 110.5q0 119 -4 183t-10 73q-8 12 -22 15t-20 9q-8 7 -13.5 14t-5.5 21q0 60 90 60q8 0 26.5 -1.5t43 -3t53.5 -3t59 -1.5q85 0 124 3.5t57 7t27.5 7t34.5 3.5q37 0 63.5 -31t26.5 -95q0 -22 -6 -43.5
t-16 -38.5t-23 -27.5t-27 -10.5q-32 0 -44.5 19t-24.5 41t-32 41t-66 19q-22 0 -31 -2t-14 -10q-3 -4 -5 -10t-3.5 -21.5t-2.5 -43.5t-1 -75v-117q0 -64 2.5 -100.5t8.5 -56t15 -26t22 -9.5q47 -11 47 -51q0 -43 -51 -59t-151 -16q-103 0 -152.5 16t-49.5 58z" />
    <glyph glyph-name="afii10020" unicode="&#x413;" horiz-adv-x="623" 
d="M18 65q0 25 10 35.5t25 16.5q12 5 19.5 11.5t12.5 27.5t6.5 60.5t1.5 110.5q0 119 -4 183t-10 73q-8 12 -22 15t-20 9q-8 7 -13.5 14t-5.5 21q0 60 90 60q8 0 26.5 -1.5t43 -3t53.5 -3t59 -1.5q85 0 124 3.5t57 7t27.5 7t34.5 3.5q37 0 63.5 -31t26.5 -95q0 -22 -6 -43.5
t-16 -38.5t-23 -27.5t-27 -10.5q-32 0 -44.5 19t-24.5 41t-32 41t-66 19q-22 0 -31 -2t-14 -10q-3 -4 -5 -10t-3.5 -21.5t-2.5 -43.5t-1 -75v-117q0 -64 2.5 -100.5t8.5 -56t15 -26t22 -9.5q47 -11 47 -51q0 -43 -51 -59t-151 -16q-103 0 -152.5 16t-49.5 58z" />
    <glyph glyph-name="afii10021" unicode="&#xc4;" horiz-adv-x="824" 
d="M689 443v-198q0 -41 1.5 -67.5t4.5 -42t7.5 -21.5t10.5 -6q19 0 24 4.5t21 4.5q29 0 43 -37t14 -80q0 -47 -17.5 -78t-41.5 -31q-18 0 -30.5 11t-36.5 51q-17 27 -38.5 37t-68.5 10h-349q-47 0 -69 -10t-38 -37q-25 -40 -37 -51t-30 -11q-24 0 -41.5 31t-17.5 78
q0 43 14 80t43 37q8 0 12.5 -1.5t8.5 -3t9 -3t15 -1.5t21.5 12.5t21 42.5t16 80.5t6.5 125.5q0 63 -2.5 102.5t-7.5 62t-14 31.5t-21 11q-16 3 -30.5 22t-14.5 39q0 33 38 49t99 16q28 0 47.5 -1.5t37 -3t36 -3t45.5 -1.5q26 0 47 1.5t44.5 3t52 3t68.5 1.5q82 0 127 -16
t45 -49q0 -17 -10 -32.5t-27 -18.5q-11 -2 -18.5 -7t-12 -19.5t-6 -42t-1.5 -74.5zM380 585q-30 0 -48 -5t-27.5 -28.5t-12 -72.5t-2.5 -136q0 -55 -2.5 -89.5t-5.5 -56t-5.5 -34t-2.5 -25.5q0 -18 11.5 -24t41.5 -6h91q15 0 24.5 6t15 21.5t7.5 42t2 67.5v181q0 56 -2.5 88
t-11.5 48t-26.5 19.5t-46.5 3.5z" />
    <glyph glyph-name="afii10021" unicode="&#x414;" horiz-adv-x="824" 
d="M689 443v-198q0 -41 1.5 -67.5t4.5 -42t7.5 -21.5t10.5 -6q19 0 24 4.5t21 4.5q29 0 43 -37t14 -80q0 -47 -17.5 -78t-41.5 -31q-18 0 -30.5 11t-36.5 51q-17 27 -38.5 37t-68.5 10h-349q-47 0 -69 -10t-38 -37q-25 -40 -37 -51t-30 -11q-24 0 -41.5 31t-17.5 78
q0 43 14 80t43 37q8 0 12.5 -1.5t8.5 -3t9 -3t15 -1.5t21.5 12.5t21 42.5t16 80.5t6.5 125.5q0 63 -2.5 102.5t-7.5 62t-14 31.5t-21 11q-16 3 -30.5 22t-14.5 39q0 33 38 49t99 16q28 0 47.5 -1.5t37 -3t36 -3t45.5 -1.5q26 0 47 1.5t44.5 3t52 3t68.5 1.5q82 0 127 -16
t45 -49q0 -17 -10 -32.5t-27 -18.5q-11 -2 -18.5 -7t-12 -19.5t-6 -42t-1.5 -74.5zM380 585q-30 0 -48 -5t-27.5 -28.5t-12 -72.5t-2.5 -136q0 -55 -2.5 -89.5t-5.5 -56t-5.5 -34t-2.5 -25.5q0 -18 11.5 -24t41.5 -6h91q15 0 24.5 6t15 21.5t7.5 42t2 67.5v181q0 56 -2.5 88
t-11.5 48t-26.5 19.5t-46.5 3.5z" />
    <glyph glyph-name="afii10022" unicode="&#xc5;" horiz-adv-x="693" 
d="M90 378q0 60 -1 97.5t-3 60t-6.5 33t-10.5 17.5t-16 12t-19 11.5t-15.5 15t-6.5 23.5q0 53 82 53q28 0 91 -2.5t161 -2.5q63 0 104.5 2.5t68.5 5t44 5t32 2.5q27 0 42.5 -30t15.5 -76q0 -57 -16.5 -88.5t-44.5 -31.5q-17 0 -31.5 19t-28.5 34q-21 25 -49 35t-68 10
q-71 0 -90 -14q-3 -3 -5.5 -7.5t-4 -15t-2.5 -29.5t-1 -51q0 -38 6.5 -48t38.5 -10q26 0 36.5 10t10.5 23q0 30 9.5 47.5t29.5 17.5q34 0 53 -37.5t19 -109.5q0 -77 -18.5 -120t-53.5 -43q-39 0 -39 55q0 16 -9 34t-37 18q-29 0 -34.5 -12.5t-5.5 -51.5q0 -35 0.5 -55.5
t2 -32t4.5 -15.5t7 -7q10 -7 28.5 -9.5t53.5 -2.5q62 0 91.5 20t44 44t23 44t28.5 20q16 0 29.5 -5t23.5 -19t15.5 -39t5.5 -65q0 -21 -4.5 -45t-13.5 -44t-23 -33t-33 -13q-6 0 -19.5 3t-41 6t-72.5 6t-115 3q-41 0 -67.5 -1.5t-49 -3t-46 -3t-58.5 -1.5q-49 0 -84.5 17
t-35.5 39q0 15 4.5 24t12 15t15.5 11t16 12q18 19 24 82t6 187z" />
    <glyph glyph-name="afii10022" unicode="&#x415;" horiz-adv-x="693" 
d="M90 378q0 60 -1 97.5t-3 60t-6.5 33t-10.5 17.5t-16 12t-19 11.5t-15.5 15t-6.5 23.5q0 53 82 53q28 0 91 -2.5t161 -2.5q63 0 104.5 2.5t68.5 5t44 5t32 2.5q27 0 42.5 -30t15.5 -76q0 -57 -16.5 -88.5t-44.5 -31.5q-17 0 -31.5 19t-28.5 34q-21 25 -49 35t-68 10
q-71 0 -90 -14q-3 -3 -5.5 -7.5t-4 -15t-2.5 -29.5t-1 -51q0 -38 6.5 -48t38.5 -10q26 0 36.5 10t10.5 23q0 30 9.5 47.5t29.5 17.5q34 0 53 -37.5t19 -109.5q0 -77 -18.5 -120t-53.5 -43q-39 0 -39 55q0 16 -9 34t-37 18q-29 0 -34.5 -12.5t-5.5 -51.5q0 -35 0.5 -55.5
t2 -32t4.5 -15.5t7 -7q10 -7 28.5 -9.5t53.5 -2.5q62 0 91.5 20t44 44t23 44t28.5 20q16 0 29.5 -5t23.5 -19t15.5 -39t5.5 -65q0 -21 -4.5 -45t-13.5 -44t-23 -33t-33 -13q-6 0 -19.5 3t-41 6t-72.5 6t-115 3q-41 0 -67.5 -1.5t-49 -3t-46 -3t-58.5 -1.5q-49 0 -84.5 17
t-35.5 39q0 15 4.5 24t12 15t15.5 11t16 12q18 19 24 82t6 187z" />
    <glyph glyph-name="afii10024" unicode="&#xc6;" horiz-adv-x="1156" 
d="M755 55q0 -37 -42.5 -52t-134.5 -15t-134.5 15t-42.5 52q0 28 17 38.5t33 21.5q7 5 10 21.5t3 58.5v117q-12 6 -25 6q-42 0 -66.5 -36t-34.5 -130q-9 -82 -52.5 -123t-134.5 -41q-75 0 -113 21.5t-38 51.5q0 19 12 30t41 21q30 10 30 74q0 94 56.5 145.5t167.5 68.5
q-17 20 -27.5 46.5t-10.5 59.5q0 59 -12.5 76t-29.5 17q-23 0 -23 -20q0 -9 2.5 -13.5t6 -8.5t6 -10t2.5 -18q0 -37 -20.5 -53t-49.5 -16q-51 0 -69.5 36t-18.5 84q0 20 9 41.5t26.5 39.5t44 29.5t61.5 11.5q46 0 76.5 -17.5t48.5 -46t25.5 -63.5t7.5 -71q0 -46 22 -71
t56 -25q18 0 23.5 6.5t5.5 28.5v63q0 43 -8.5 57.5t-18 21t-18 15t-8.5 38.5q0 27 36.5 45.5t125.5 18.5t125.5 -18.5t36.5 -45.5q0 -30 -8.5 -38.5t-18 -15t-18 -21t-8.5 -57.5v-63q0 -22 5.5 -28.5t23.5 -6.5q34 0 56 25t22 71q0 36 7.5 71t25.5 63.5t48.5 46t76.5 17.5
q35 0 61.5 -11.5t44 -29.5t26.5 -39.5t9 -41.5q0 -48 -18.5 -84t-69.5 -36q-29 0 -49.5 16t-20.5 53q0 12 2.5 18t6 10t6 8.5t2.5 13.5q0 20 -23 20q-17 0 -29.5 -17t-12.5 -76q0 -33 -10.5 -59.5t-27.5 -46.5q111 -17 167.5 -68.5t56.5 -145.5q0 -63 30 -74q29 -10 41 -21
t12 -30q0 -30 -38 -51.5t-113 -21.5q-91 0 -134.5 41t-52.5 123q-10 94 -34.5 130t-66.5 36q-13 0 -25 -6v-117q0 -42 3 -58.5t10 -21.5q16 -11 33 -21.5t17 -38.5z" />
    <glyph glyph-name="afii10024" unicode="&#x416;" horiz-adv-x="1156" 
d="M755 55q0 -37 -42.5 -52t-134.5 -15t-134.5 15t-42.5 52q0 28 17 38.5t33 21.5q7 5 10 21.5t3 58.5v117q-12 6 -25 6q-42 0 -66.5 -36t-34.5 -130q-9 -82 -52.5 -123t-134.5 -41q-75 0 -113 21.5t-38 51.5q0 19 12 30t41 21q30 10 30 74q0 94 56.5 145.5t167.5 68.5
q-17 20 -27.5 46.5t-10.5 59.5q0 59 -12.5 76t-29.5 17q-23 0 -23 -20q0 -9 2.5 -13.5t6 -8.5t6 -10t2.5 -18q0 -37 -20.5 -53t-49.5 -16q-51 0 -69.5 36t-18.5 84q0 20 9 41.5t26.5 39.5t44 29.5t61.5 11.5q46 0 76.5 -17.5t48.5 -46t25.5 -63.5t7.5 -71q0 -46 22 -71
t56 -25q18 0 23.5 6.5t5.5 28.5v63q0 43 -8.5 57.5t-18 21t-18 15t-8.5 38.5q0 27 36.5 45.5t125.5 18.5t125.5 -18.5t36.5 -45.5q0 -30 -8.5 -38.5t-18 -15t-18 -21t-8.5 -57.5v-63q0 -22 5.5 -28.5t23.5 -6.5q34 0 56 25t22 71q0 36 7.5 71t25.5 63.5t48.5 46t76.5 17.5
q35 0 61.5 -11.5t44 -29.5t26.5 -39.5t9 -41.5q0 -48 -18.5 -84t-69.5 -36q-29 0 -49.5 16t-20.5 53q0 12 2.5 18t6 10t6 8.5t2.5 13.5q0 20 -23 20q-17 0 -29.5 -17t-12.5 -76q0 -33 -10.5 -59.5t-27.5 -46.5q111 -17 167.5 -68.5t56.5 -145.5q0 -63 30 -74q29 -10 41 -21
t12 -30q0 -30 -38 -51.5t-113 -21.5q-91 0 -134.5 41t-52.5 123q-10 94 -34.5 130t-66.5 36q-13 0 -25 -6v-117q0 -42 3 -58.5t10 -21.5q16 -11 33 -21.5t17 -38.5z" />
    <glyph glyph-name="afii10025" unicode="&#xc7;" horiz-adv-x="726" 
d="M453 490q0 34 -24.5 55.5t-74.5 21.5q-47 0 -77 -10.5t-49.5 -26t-31 -34t-22.5 -34t-24.5 -26t-36.5 -10.5q-42 0 -58 32t-16 74q0 29 8.5 56.5t22.5 48.5t32 34t38 13q16 0 27 -6t22 -6q12 0 26.5 5.5t37.5 12.5t58.5 12.5t89.5 5.5q65 0 116 -15.5t87 -42t55 -61
t19 -72.5q0 -46 -16 -72.5t-34.5 -41.5t-34.5 -22t-16 -15t20 -14t44 -20.5t44 -44t20 -84.5q0 -56 -30 -97t-77.5 -68t-106.5 -40t-116 -13q-71 0 -115.5 11t-73 23.5t-45.5 23.5t-33 11q-18 0 -35.5 14t-31 35t-21.5 46t-8 47q0 18 16.5 38t38.5 20q33 0 53.5 -16
t44.5 -36t59 -36t96 -16q49 0 82 22.5t33 51.5q0 35 -25.5 55.5t-89.5 20.5q-46 0 -65.5 19.5t-19.5 43.5q0 23 18 38.5t46 15.5h57q58 0 77.5 17t19.5 56z" />
    <glyph glyph-name="afii10025" unicode="&#x417;" horiz-adv-x="726" 
d="M453 490q0 34 -24.5 55.5t-74.5 21.5q-47 0 -77 -10.5t-49.5 -26t-31 -34t-22.5 -34t-24.5 -26t-36.5 -10.5q-42 0 -58 32t-16 74q0 29 8.5 56.5t22.5 48.5t32 34t38 13q16 0 27 -6t22 -6q12 0 26.5 5.5t37.5 12.5t58.5 12.5t89.5 5.5q65 0 116 -15.5t87 -42t55 -61
t19 -72.5q0 -46 -16 -72.5t-34.5 -41.5t-34.5 -22t-16 -15t20 -14t44 -20.5t44 -44t20 -84.5q0 -56 -30 -97t-77.5 -68t-106.5 -40t-116 -13q-71 0 -115.5 11t-73 23.5t-45.5 23.5t-33 11q-18 0 -35.5 14t-31 35t-21.5 46t-8 47q0 18 16.5 38t38.5 20q33 0 53.5 -16
t44.5 -36t59 -36t96 -16q49 0 82 22.5t33 51.5q0 35 -25.5 55.5t-89.5 20.5q-46 0 -65.5 19.5t-19.5 43.5q0 23 18 38.5t46 15.5h57q58 0 77.5 17t19.5 56z" />
    <glyph glyph-name="afii10026" unicode="&#xc8;" horiz-adv-x="861" 
d="M198 -9q-86 0 -134 19.5t-48 54.5q0 30 16 38t35 16q23 11 23 209q0 115 -3 176.5t-11 72.5q-4 4 -13.5 8t-20 10t-18.5 16t-8 26q0 65 188 65q90 0 136.5 -14.5t46.5 -50.5q0 -20 -7.5 -31.5t-22.5 -20.5q-20 -12 -26.5 -26.5t-6.5 -48.5v-84q0 -32 3.5 -40t9.5 -8
q23 0 50 22l109 85q24 19 32.5 32.5t8.5 30.5q0 9 -6 17.5t-24 19.5q-14 8 -23.5 20.5t-9.5 31.5q0 41 48 53t147 12q89 0 132.5 -14t43.5 -51q0 -15 -6 -24t-14.5 -15.5t-18.5 -11.5t-18 -11q-12 -10 -14.5 -64t-2.5 -156q0 -75 1 -120.5t4 -71t7.5 -36t12.5 -14.5
q14 -7 31.5 -17t17.5 -36q0 -38 -50 -53.5t-140 -15.5q-181 0 -181 75q0 18 7 30.5t24 19.5q10 4 16 10t9.5 18t5 31.5t1.5 50.5v56q0 39 -15 39q-19 0 -45 -20l-108 -82q-28 -21 -36.5 -35t-8.5 -39q0 -11 6.5 -18t16.5 -11q17 -8 28.5 -19t11.5 -31q0 -75 -189 -75z" />
    <glyph glyph-name="afii10026" unicode="&#x418;" horiz-adv-x="861" 
d="M198 -9q-86 0 -134 19.5t-48 54.5q0 30 16 38t35 16q23 11 23 209q0 115 -3 176.5t-11 72.5q-4 4 -13.5 8t-20 10t-18.5 16t-8 26q0 65 188 65q90 0 136.5 -14.5t46.5 -50.5q0 -20 -7.5 -31.5t-22.5 -20.5q-20 -12 -26.5 -26.5t-6.5 -48.5v-84q0 -32 3.5 -40t9.5 -8
q23 0 50 22l109 85q24 19 32.5 32.5t8.5 30.5q0 9 -6 17.5t-24 19.5q-14 8 -23.5 20.5t-9.5 31.5q0 41 48 53t147 12q89 0 132.5 -14t43.5 -51q0 -15 -6 -24t-14.5 -15.5t-18.5 -11.5t-18 -11q-12 -10 -14.5 -64t-2.5 -156q0 -75 1 -120.5t4 -71t7.5 -36t12.5 -14.5
q14 -7 31.5 -17t17.5 -36q0 -38 -50 -53.5t-140 -15.5q-181 0 -181 75q0 18 7 30.5t24 19.5q10 4 16 10t9.5 18t5 31.5t1.5 50.5v56q0 39 -15 39q-19 0 -45 -20l-108 -82q-28 -21 -36.5 -35t-8.5 -39q0 -11 6.5 -18t16.5 -11q17 -8 28.5 -19t11.5 -31q0 -75 -189 -75z" />
    <glyph glyph-name="afii10027" unicode="&#xc9;" horiz-adv-x="861" 
d="M198 -9q-86 0 -134 19.5t-48 54.5q0 30 16 38t35 16q23 11 23 209q0 115 -3 176.5t-11 72.5q-4 4 -13.5 8t-20 10t-18.5 16t-8 26q0 65 188 65q90 0 136.5 -14.5t46.5 -50.5q0 -20 -7.5 -31.5t-22.5 -20.5q-20 -12 -26.5 -26.5t-6.5 -48.5v-84q0 -32 3.5 -40t9.5 -8
q23 0 50 22l109 85q24 19 32.5 32.5t8.5 30.5q0 9 -6 17.5t-24 19.5q-14 8 -23.5 20.5t-9.5 31.5q0 41 48 53t147 12q89 0 132.5 -14t43.5 -51q0 -15 -6 -24t-14.5 -15.5t-18.5 -11.5t-18 -11q-12 -10 -14.5 -64t-2.5 -156q0 -75 1 -120.5t4 -71t7.5 -36t12.5 -14.5
q14 -7 31.5 -17t17.5 -36q0 -38 -50 -53.5t-140 -15.5q-181 0 -181 75q0 18 7 30.5t24 19.5q10 4 16 10t9.5 18t5 31.5t1.5 50.5v56q0 39 -15 39q-19 0 -45 -20l-108 -82q-28 -21 -36.5 -35t-8.5 -39q0 -11 6.5 -18t16.5 -11q17 -8 28.5 -19t11.5 -31q0 -75 -189 -75z
M438 742h-13q-76 0 -124 25t-48 66q0 66 50 66q22 0 40.5 -14.5t18.5 -34.5q0 -15 15.5 -30t47.5 -15h13q31 0 46 15t15 30q0 20 18.5 34.5t40.5 14.5q50 0 50 -66q0 -41 -48 -66t-122 -25z" />
    <glyph glyph-name="afii10027" unicode="&#x419;" horiz-adv-x="861" 
d="M198 -9q-86 0 -134 19.5t-48 54.5q0 30 16 38t35 16q23 11 23 209q0 115 -3 176.5t-11 72.5q-4 4 -13.5 8t-20 10t-18.5 16t-8 26q0 65 188 65q90 0 136.5 -14.5t46.5 -50.5q0 -20 -7.5 -31.5t-22.5 -20.5q-20 -12 -26.5 -26.5t-6.5 -48.5v-84q0 -32 3.5 -40t9.5 -8
q23 0 50 22l109 85q24 19 32.5 32.5t8.5 30.5q0 9 -6 17.5t-24 19.5q-14 8 -23.5 20.5t-9.5 31.5q0 41 48 53t147 12q89 0 132.5 -14t43.5 -51q0 -15 -6 -24t-14.5 -15.5t-18.5 -11.5t-18 -11q-12 -10 -14.5 -64t-2.5 -156q0 -75 1 -120.5t4 -71t7.5 -36t12.5 -14.5
q14 -7 31.5 -17t17.5 -36q0 -38 -50 -53.5t-140 -15.5q-181 0 -181 75q0 18 7 30.5t24 19.5q10 4 16 10t9.5 18t5 31.5t1.5 50.5v56q0 39 -15 39q-19 0 -45 -20l-108 -82q-28 -21 -36.5 -35t-8.5 -39q0 -11 6.5 -18t16.5 -11q17 -8 28.5 -19t11.5 -31q0 -75 -189 -75z
M438 742h-13q-76 0 -124 25t-48 66q0 66 50 66q22 0 40.5 -14.5t18.5 -34.5q0 -15 15.5 -30t47.5 -15h13q31 0 46 15t15 30q0 20 18.5 34.5t40.5 14.5q50 0 50 -66q0 -41 -48 -66t-122 -25z" />
    <glyph glyph-name="afii10028" unicode="&#xca;" horiz-adv-x="785" 
d="M214 702q89 0 122 -18.5t33 -45.5q0 -30 -8.5 -38.5t-18 -15t-18 -21t-8.5 -57.5v-63q0 -22 5.5 -28.5t23.5 -6.5q34 0 56 25t22 71q0 36 7.5 71t25.5 63.5t48.5 46t76.5 17.5q35 0 61.5 -11.5t44 -29.5t26.5 -39.5t9 -41.5q0 -48 -18.5 -84t-69.5 -36q-29 0 -49.5 16
t-20.5 53q0 12 2.5 18t6 10t6 8.5t2.5 13.5q0 20 -23 20q-17 0 -29.5 -17t-12.5 -76q0 -33 -10.5 -59.5t-27.5 -46.5q111 -17 167.5 -68.5t56.5 -145.5q0 -63 30 -74q29 -10 41 -21t12 -30q0 -30 -38 -51.5t-113 -21.5q-92 0 -135 41t-52 123q-11 94 -35 130t-66 36
q-13 0 -25 -6v-117q0 -42 3 -58.5t10 -21.5q16 -11 33 -21.5t17 -38.5q0 -37 -44 -52t-136 -15q-189 0 -189 70q0 24 14 33.5t34 20.5q6 3 11 12t8 34t5 71.5t2 126.5v150q0 36 -6.5 54.5t-21.5 24.5t-30.5 20t-15.5 34q0 37 50 50t149 13z" />
    <glyph glyph-name="afii10028" unicode="&#x41a;" horiz-adv-x="785" 
d="M214 702q89 0 122 -18.5t33 -45.5q0 -30 -8.5 -38.5t-18 -15t-18 -21t-8.5 -57.5v-63q0 -22 5.5 -28.5t23.5 -6.5q34 0 56 25t22 71q0 36 7.5 71t25.5 63.5t48.5 46t76.5 17.5q35 0 61.5 -11.5t44 -29.5t26.5 -39.5t9 -41.5q0 -48 -18.5 -84t-69.5 -36q-29 0 -49.5 16
t-20.5 53q0 12 2.5 18t6 10t6 8.5t2.5 13.5q0 20 -23 20q-17 0 -29.5 -17t-12.5 -76q0 -33 -10.5 -59.5t-27.5 -46.5q111 -17 167.5 -68.5t56.5 -145.5q0 -63 30 -74q29 -10 41 -21t12 -30q0 -30 -38 -51.5t-113 -21.5q-92 0 -135 41t-52 123q-11 94 -35 130t-66 36
q-13 0 -25 -6v-117q0 -42 3 -58.5t10 -21.5q16 -11 33 -21.5t17 -38.5q0 -37 -44 -52t-136 -15q-189 0 -189 70q0 24 14 33.5t34 20.5q6 3 11 12t8 34t5 71.5t2 126.5v150q0 36 -6.5 54.5t-21.5 24.5t-30.5 20t-15.5 34q0 37 50 50t149 13z" />
    <glyph glyph-name="afii10029" unicode="&#xcb;" horiz-adv-x="867" 
d="M235 435v44q0 51 -9 76.5t-34 29.5t-50.5 20t-25.5 37q0 39 41.5 54t100.5 15q58 0 103 -4.5t97 -4.5h204q80 0 129 -16t49 -49q0 -17 -9.5 -32.5t-25.5 -18.5q-11 -2 -18 -8.5t-11.5 -29t-6 -68t-1.5 -126.5q0 -75 3.5 -120t8.5 -70t12.5 -34.5t14.5 -13.5
q23 -12 32.5 -23.5t9.5 -33.5q0 -35 -54.5 -51.5t-137.5 -16.5q-87 0 -134.5 15t-47.5 49q0 31 9 40.5t20.5 19.5t20.5 30.5t9 72.5v208q0 55 -5.5 88t-19 51t-35 23.5t-54.5 5.5q-21 0 -33.5 -4.5t-19.5 -23.5t-9.5 -58.5t-2.5 -108.5q0 -126 -14.5 -204t-41 -121.5
t-63.5 -58.5t-83 -15q-80 0 -122.5 41t-42.5 108q0 50 28 80t72 30q30 0 51.5 -20.5t21.5 -51.5q0 -19 -9 -30t-9 -29q0 -11 8 -18t16 -7q17 0 29.5 15t21 52.5t13 101.5t4.5 163z" />
    <glyph glyph-name="afii10029" unicode="&#x41b;" horiz-adv-x="867" 
d="M235 435v44q0 51 -9 76.5t-34 29.5t-50.5 20t-25.5 37q0 39 41.5 54t100.5 15q58 0 103 -4.5t97 -4.5h204q80 0 129 -16t49 -49q0 -17 -9.5 -32.5t-25.5 -18.5q-11 -2 -18 -8.5t-11.5 -29t-6 -68t-1.5 -126.5q0 -75 3.5 -120t8.5 -70t12.5 -34.5t14.5 -13.5
q23 -12 32.5 -23.5t9.5 -33.5q0 -35 -54.5 -51.5t-137.5 -16.5q-87 0 -134.5 15t-47.5 49q0 31 9 40.5t20.5 19.5t20.5 30.5t9 72.5v208q0 55 -5.5 88t-19 51t-35 23.5t-54.5 5.5q-21 0 -33.5 -4.5t-19.5 -23.5t-9.5 -58.5t-2.5 -108.5q0 -126 -14.5 -204t-41 -121.5
t-63.5 -58.5t-83 -15q-80 0 -122.5 41t-42.5 108q0 50 28 80t72 30q30 0 51.5 -20.5t21.5 -51.5q0 -19 -9 -30t-9 -29q0 -11 8 -18t16 -7q17 0 29.5 15t21 52.5t13 101.5t4.5 163z" />
    <glyph glyph-name="afii10030" unicode="&#xcc;" horiz-adv-x="918" 
d="M403 31q-10 0 -19.5 4.5t-21.5 21t-27 49.5t-36 90q-16 44 -26.5 69.5t-17.5 38t-12 15.5t-11 3q-5 0 -9 -3.5t-6.5 -17t-3.5 -39.5t-1 -70q0 -53 7 -70t24 -24q16 -6 25 -18.5t9 -33.5q0 -32 -33 -43.5t-102 -11.5q-68 0 -100.5 13.5t-32.5 45.5q0 17 7 26.5t16 15.5
t18 10t14 10q6 8 10.5 23t8 45.5t5 79t1.5 122.5q0 63 -1.5 99.5t-5 56.5t-9 27.5t-14.5 12.5q-50 28 -50 65q0 29 31 44t106 15q51 0 89.5 -5t45.5 -10q11 -7 29 -32t38 -71q75 -176 113 -176q17 0 44 47t70 149q14 34 29.5 55t27.5 29q10 7 33.5 10.5t86.5 3.5
q70 0 107.5 -10t37.5 -49q0 -15 -6.5 -26t-25.5 -21q-6 -3 -12.5 -12t-11.5 -33t-8.5 -68t-3.5 -118q0 -110 5.5 -170.5t12.5 -71.5q3 -4 11 -7.5t16.5 -10t15.5 -17t7 -27.5q0 -40 -46 -55t-139 -15q-92 0 -135 15.5t-43 56.5q0 14 5 22.5t12 14t14 9.5t12 10
q12 16 15 53.5t3 98.5q0 31 -5.5 41t-13.5 10q-6 0 -11.5 -3.5t-12 -14t-15.5 -31.5t-22 -55q-24 -64 -40 -101.5t-28 -56.5t-22 -24t-22 -5z" />
    <glyph glyph-name="afii10030" unicode="&#x41c;" horiz-adv-x="918" 
d="M403 31q-10 0 -19.5 4.5t-21.5 21t-27 49.5t-36 90q-16 44 -26.5 69.5t-17.5 38t-12 15.5t-11 3q-5 0 -9 -3.5t-6.5 -17t-3.5 -39.5t-1 -70q0 -53 7 -70t24 -24q16 -6 25 -18.5t9 -33.5q0 -32 -33 -43.5t-102 -11.5q-68 0 -100.5 13.5t-32.5 45.5q0 17 7 26.5t16 15.5
t18 10t14 10q6 8 10.5 23t8 45.5t5 79t1.5 122.5q0 63 -1.5 99.5t-5 56.5t-9 27.5t-14.5 12.5q-50 28 -50 65q0 29 31 44t106 15q51 0 89.5 -5t45.5 -10q11 -7 29 -32t38 -71q75 -176 113 -176q17 0 44 47t70 149q14 34 29.5 55t27.5 29q10 7 33.5 10.5t86.5 3.5
q70 0 107.5 -10t37.5 -49q0 -15 -6.5 -26t-25.5 -21q-6 -3 -12.5 -12t-11.5 -33t-8.5 -68t-3.5 -118q0 -110 5.5 -170.5t12.5 -71.5q3 -4 11 -7.5t16.5 -10t15.5 -17t7 -27.5q0 -40 -46 -55t-139 -15q-92 0 -135 15.5t-43 56.5q0 14 5 22.5t12 14t14 9.5t12 10
q12 16 15 53.5t3 98.5q0 31 -5.5 41t-13.5 10q-6 0 -11.5 -3.5t-12 -14t-15.5 -31.5t-22 -55q-24 -64 -40 -101.5t-28 -56.5t-22 -24t-22 -5z" />
    <glyph glyph-name="afii10031" unicode="&#xcd;" horiz-adv-x="825" 
d="M441 301h-49q-40 0 -54 -12t-14 -48q0 -54 5 -84.5t13 -35.5q16 -11 30.5 -21t14.5 -34q0 -75 -189 -75q-86 0 -134 19.5t-48 54.5q0 30 16 38t35 16q23 11 23 209q0 115 -3 176.5t-11 72.5q-4 4 -13.5 8t-20 10t-18.5 16t-8 26q0 65 188 65q90 0 136.5 -14.5t46.5 -50.5
q0 -20 -6.5 -31.5t-21.5 -20.5q-20 -12 -27.5 -26.5t-7.5 -48.5v-37q0 -28 15.5 -37.5t74.5 -9.5q29 0 46 2t26 7.5t12 14.5t3 23v37q0 36 -5.5 52.5t-20.5 22.5t-26 19t-11 33q0 41 48 53t147 12q89 0 132.5 -14t43.5 -51q0 -15 -6 -24t-14.5 -15.5t-18.5 -11.5t-18 -11
q-12 -10 -14.5 -64t-2.5 -156q0 -75 1 -120.5t4 -71t7.5 -36t12.5 -14.5q14 -7 31.5 -17t17.5 -36q0 -38 -50 -53.5t-140 -15.5q-181 0 -181 75q0 18 7 30.5t24 19.5q10 4 16 8.5t9.5 17t5 35.5t1.5 64q0 36 -12.5 48t-47.5 12z" />
    <glyph glyph-name="afii10031" unicode="&#x41d;" horiz-adv-x="825" 
d="M441 301h-49q-40 0 -54 -12t-14 -48q0 -54 5 -84.5t13 -35.5q16 -11 30.5 -21t14.5 -34q0 -75 -189 -75q-86 0 -134 19.5t-48 54.5q0 30 16 38t35 16q23 11 23 209q0 115 -3 176.5t-11 72.5q-4 4 -13.5 8t-20 10t-18.5 16t-8 26q0 65 188 65q90 0 136.5 -14.5t46.5 -50.5
q0 -20 -6.5 -31.5t-21.5 -20.5q-20 -12 -27.5 -26.5t-7.5 -48.5v-37q0 -28 15.5 -37.5t74.5 -9.5q29 0 46 2t26 7.5t12 14.5t3 23v37q0 36 -5.5 52.5t-20.5 22.5t-26 19t-11 33q0 41 48 53t147 12q89 0 132.5 -14t43.5 -51q0 -15 -6 -24t-14.5 -15.5t-18.5 -11.5t-18 -11
q-12 -10 -14.5 -64t-2.5 -156q0 -75 1 -120.5t4 -71t7.5 -36t12.5 -14.5q14 -7 31.5 -17t17.5 -36q0 -38 -50 -53.5t-140 -15.5q-181 0 -181 75q0 18 7 30.5t24 19.5q10 4 16 8.5t9.5 17t5 35.5t1.5 64q0 36 -12.5 48t-47.5 12z" />
    <glyph glyph-name="afii10032" unicode="&#xce;" horiz-adv-x="799" 
d="M280 450q0 -33 11 -86t32.5 -103t52.5 -86.5t70 -36.5q34 0 53.5 29t19.5 81q0 39 -12 92t-33.5 100.5t-52 81t-66.5 33.5q-33 0 -54 -27t-21 -78zM23 351q0 78 29.5 143.5t81 113t122 74t152.5 26.5q81 0 148.5 -26t116 -73.5t76 -114t27.5 -146.5t-28 -146.5
t-78.5 -114.5t-119 -75t-149.5 -27q-79 0 -148 29t-120 78.5t-80.5 116t-29.5 142.5z" />
    <glyph glyph-name="afii10032" unicode="&#x41e;" horiz-adv-x="799" 
d="M280 450q0 -33 11 -86t32.5 -103t52.5 -86.5t70 -36.5q34 0 53.5 29t19.5 81q0 39 -12 92t-33.5 100.5t-52 81t-66.5 33.5q-33 0 -54 -27t-21 -78zM23 351q0 78 29.5 143.5t81 113t122 74t152.5 26.5q81 0 148.5 -26t116 -73.5t76 -114t27.5 -146.5t-28 -146.5
t-78.5 -114.5t-119 -75t-149.5 -27q-79 0 -148 29t-120 78.5t-80.5 116t-29.5 142.5z" />
    <glyph glyph-name="afii10033" unicode="&#xcf;" horiz-adv-x="825" 
d="M324 426v-202q0 -60 10 -83t21.5 -31.5t21.5 -14t10 -31.5q0 -39 -48 -56t-147 -17q-76 0 -126 17.5t-50 55.5q0 36 30 46q13 4 21.5 13t13.5 33.5t7 71t2 126.5q0 82 -1.5 127.5t-5.5 68t-10.5 28.5t-16.5 10q-22 8 -31 21.5t-9 27.5q0 33 52.5 49t146.5 16
q34 0 59.5 -1.5t47.5 -3t43.5 -3t48.5 -1.5q26 0 47 1.5t44.5 3t52 3t68.5 1.5q82 0 132.5 -16t50.5 -49q0 -17 -9.5 -32.5t-26.5 -18.5q-11 -2 -18.5 -8.5t-12 -29t-6 -68t-1.5 -126.5q0 -80 1.5 -127t5 -72t9.5 -33.5t15 -11.5q16 -5 29.5 -16t13.5 -30q0 -39 -51.5 -56
t-136.5 -17q-90 0 -136.5 17t-46.5 56q0 26 10 31.5t21.5 14t21.5 31.5t10 83v202q0 56 -2.5 88t-11.5 48t-26.5 19.5t-46.5 3.5q-30 0 -48 -3.5t-27.5 -19.5t-12 -48t-2.5 -88z" />
    <glyph glyph-name="afii10033" unicode="&#x41f;" horiz-adv-x="825" 
d="M324 426v-202q0 -60 10 -83t21.5 -31.5t21.5 -14t10 -31.5q0 -39 -48 -56t-147 -17q-76 0 -126 17.5t-50 55.5q0 36 30 46q13 4 21.5 13t13.5 33.5t7 71t2 126.5q0 82 -1.5 127.5t-5.5 68t-10.5 28.5t-16.5 10q-22 8 -31 21.5t-9 27.5q0 33 52.5 49t146.5 16
q34 0 59.5 -1.5t47.5 -3t43.5 -3t48.5 -1.5q26 0 47 1.5t44.5 3t52 3t68.5 1.5q82 0 132.5 -16t50.5 -49q0 -17 -9.5 -32.5t-26.5 -18.5q-11 -2 -18.5 -8.5t-12 -29t-6 -68t-1.5 -126.5q0 -80 1.5 -127t5 -72t9.5 -33.5t15 -11.5q16 -5 29.5 -16t13.5 -30q0 -39 -51.5 -56
t-136.5 -17q-90 0 -136.5 17t-46.5 56q0 26 10 31.5t21.5 14t21.5 31.5t10 83v202q0 56 -2.5 88t-11.5 48t-26.5 19.5t-46.5 3.5q-30 0 -48 -3.5t-27.5 -19.5t-12 -48t-2.5 -88z" />
    <glyph glyph-name="afii10034" unicode="&#xd0;" horiz-adv-x="677" 
d="M326 473v-44q0 -37 3 -49t17 -12q38 0 60 26.5t22 76.5q0 55 -21 84t-55 29q-18 0 -22 -19.5t-4 -64.5v-27zM334 250q0 -10 -0.5 -20t-0.5 -18q0 -38 4 -60.5t15 -31.5q7 -6 15.5 -10t16 -9t12.5 -13.5t5 -22.5q0 -39 -45.5 -56.5t-139.5 -17.5q-99 0 -147.5 18t-48.5 59
q0 16 7.5 25.5t17.5 16t19.5 11.5t14.5 12q11 15 13 108t2 265q0 38 -6 57.5t-27 29.5q-21 11 -36.5 18t-15.5 33q0 28 25 40.5t75 12.5q22 0 39 -1.5t30 -1.5q46 0 100.5 5.5t115.5 5.5q276 0 276 -220q0 -112 -72 -175t-205 -63q-29 0 -59 3z" />
    <glyph glyph-name="afii10034" unicode="&#x420;" horiz-adv-x="677" 
d="M326 473v-44q0 -37 3 -49t17 -12q38 0 60 26.5t22 76.5q0 55 -21 84t-55 29q-18 0 -22 -19.5t-4 -64.5v-27zM334 250q0 -10 -0.5 -20t-0.5 -18q0 -38 4 -60.5t15 -31.5q7 -6 15.5 -10t16 -9t12.5 -13.5t5 -22.5q0 -39 -45.5 -56.5t-139.5 -17.5q-99 0 -147.5 18t-48.5 59
q0 16 7.5 25.5t17.5 16t19.5 11.5t14.5 12q11 15 13 108t2 265q0 38 -6 57.5t-27 29.5q-21 11 -36.5 18t-15.5 33q0 28 25 40.5t75 12.5q22 0 39 -1.5t30 -1.5q46 0 100.5 5.5t115.5 5.5q276 0 276 -220q0 -112 -72 -175t-205 -63q-29 0 -59 3z" />
    <glyph glyph-name="afii10035" unicode="&#xd1;" horiz-adv-x="729" 
d="M709 509q0 -49 -27 -77.5t-65 -28.5q-31 0 -48 15t-36 51q-25 47 -57.5 68t-90.5 21q-52 0 -81.5 -33t-29.5 -96q0 -125 57 -190t153 -65q33 0 62.5 11t54.5 30q14 11 29.5 25t38.5 14q18 0 31.5 -19t13.5 -49q0 -23 -8.5 -47t-22 -43t-29.5 -31t-32 -12t-31.5 -10.5
t-40.5 -23.5t-64 -23.5t-101 -10.5q-76 0 -141.5 28t-114.5 77t-77 113.5t-28 138.5t28 140.5t77 116.5t114.5 79.5t140.5 29.5q35 0 63 -5.5t49.5 -11.5t36.5 -11.5t24 -5.5q11 0 23 4.5t26 4.5q19 0 37.5 -14.5t33 -38.5t23.5 -55.5t9 -65.5z" />
    <glyph glyph-name="afii10035" unicode="&#x421;" horiz-adv-x="729" 
d="M709 509q0 -49 -27 -77.5t-65 -28.5q-31 0 -48 15t-36 51q-25 47 -57.5 68t-90.5 21q-52 0 -81.5 -33t-29.5 -96q0 -125 57 -190t153 -65q33 0 62.5 11t54.5 30q14 11 29.5 25t38.5 14q18 0 31.5 -19t13.5 -49q0 -23 -8.5 -47t-22 -43t-29.5 -31t-32 -12t-31.5 -10.5
t-40.5 -23.5t-64 -23.5t-101 -10.5q-76 0 -141.5 28t-114.5 77t-77 113.5t-28 138.5t28 140.5t77 116.5t114.5 79.5t140.5 29.5q35 0 63 -5.5t49.5 -11.5t36.5 -11.5t24 -5.5q11 0 23 4.5t26 4.5q19 0 37.5 -14.5t33 -38.5t23.5 -55.5t9 -65.5z" />
    <glyph glyph-name="afii10036" unicode="&#xd2;" horiz-adv-x="690" 
d="M345 -9q-109 0 -162 15t-53 57q0 23 13 35.5t36 18.5q30 8 39.5 45.5t9.5 109.5v196q0 72 -5.5 92.5t-15.5 20.5q-30 0 -43.5 -17.5t-23 -39t-22.5 -39t-43 -17.5q-16 0 -29.5 12t-23 31.5t-14.5 44t-5 49.5q0 55 28 82t62 27q24 0 39.5 -3t39 -6t62.5 -6t111 -3t111 3
t62.5 6t39 6t39.5 3q34 0 62 -27t28 -82q0 -25 -5 -49.5t-14.5 -44t-23 -31.5t-29.5 -12q-30 0 -43 17.5t-22.5 39t-23 39t-43.5 17.5q-10 0 -15.5 -20.5t-5.5 -92.5v-196q0 -72 9.5 -109.5t39.5 -45.5q23 -6 36 -18.5t13 -35.5q0 -42 -53 -57t-162 -15z" />
    <glyph glyph-name="afii10036" unicode="&#x422;" horiz-adv-x="690" 
d="M345 -9q-109 0 -162 15t-53 57q0 23 13 35.5t36 18.5q30 8 39.5 45.5t9.5 109.5v196q0 72 -5.5 92.5t-15.5 20.5q-30 0 -43.5 -17.5t-23 -39t-22.5 -39t-43 -17.5q-16 0 -29.5 12t-23 31.5t-14.5 44t-5 49.5q0 55 28 82t62 27q24 0 39.5 -3t39 -6t62.5 -6t111 -3t111 3
t62.5 6t39 6t39.5 3q34 0 62 -27t28 -82q0 -25 -5 -49.5t-14.5 -44t-23 -31.5t-29.5 -12q-30 0 -43 17.5t-22.5 39t-23 39t-43.5 17.5q-10 0 -15.5 -20.5t-5.5 -92.5v-196q0 -72 9.5 -109.5t39.5 -45.5q23 -6 36 -18.5t13 -35.5q0 -42 -53 -57t-162 -15z" />
    <glyph glyph-name="afii10037" unicode="&#xd3;" horiz-adv-x="729" 
d="M204 702q92 0 150.5 -11t58.5 -50q0 -15 -7.5 -24t-16 -16.5t-16 -15t-7.5 -17.5q0 -8 6 -33t15.5 -51.5t22.5 -47t28 -20.5q11 0 25.5 23t27 51.5t21.5 54.5t9 31q0 9 -8 16.5t-17 14.5t-17 15t-8 19q0 28 33.5 44.5t105.5 16.5q54 0 86.5 -15.5t32.5 -45.5
q0 -15 -10.5 -30.5t-27.5 -21.5q-12 -4 -20.5 -9t-16 -15t-16 -27t-19.5 -44q-39 -94 -74 -186.5t-78 -174.5q-43 -80 -93.5 -114t-122.5 -34q-43 0 -79 11t-62 30.5t-40.5 46t-14.5 58.5q0 42 23.5 66.5t66.5 24.5q40 0 61.5 -21t21.5 -49q0 -18 -3 -22.5t-3 -16.5
q0 -10 6 -16.5t26 -6.5q17 0 26 12.5t9 29.5q0 28 -22.5 77.5t-60.5 122.5l-85 166q-12 23 -25.5 50.5t-38.5 36.5t-36.5 19.5t-11.5 36.5q0 34 42.5 47.5t152.5 13.5z" />
    <glyph glyph-name="afii10037" unicode="&#x423;" horiz-adv-x="729" 
d="M204 702q92 0 150.5 -11t58.5 -50q0 -15 -7.5 -24t-16 -16.5t-16 -15t-7.5 -17.5q0 -8 6 -33t15.5 -51.5t22.5 -47t28 -20.5q11 0 25.5 23t27 51.5t21.5 54.5t9 31q0 9 -8 16.5t-17 14.5t-17 15t-8 19q0 28 33.5 44.5t105.5 16.5q54 0 86.5 -15.5t32.5 -45.5
q0 -15 -10.5 -30.5t-27.5 -21.5q-12 -4 -20.5 -9t-16 -15t-16 -27t-19.5 -44q-39 -94 -74 -186.5t-78 -174.5q-43 -80 -93.5 -114t-122.5 -34q-43 0 -79 11t-62 30.5t-40.5 46t-14.5 58.5q0 42 23.5 66.5t66.5 24.5q40 0 61.5 -21t21.5 -49q0 -18 -3 -22.5t-3 -16.5
q0 -10 6 -16.5t26 -6.5q17 0 26 12.5t9 29.5q0 28 -22.5 77.5t-60.5 122.5l-85 166q-12 23 -25.5 50.5t-38.5 36.5t-36.5 19.5t-11.5 36.5q0 34 42.5 47.5t152.5 13.5z" />
    <glyph glyph-name="afii10038" unicode="&#xd4;" horiz-adv-x="930" 
d="M580 321q0 -36 2.5 -48.5t14.5 -12.5q40 0 62.5 24t22.5 69q0 50 -21 76t-55 26q-18 0 -22 -17.5t-4 -60.5v-56zM665 52q0 -39 -53 -50t-147 -11t-147 11t-53 50q0 28 12 37t26 14.5t26 15t12 38.5q-11 -2 -28.5 -3.5t-31.5 -1.5q-133 0 -204 57.5t-71 156.5
q0 198 271 198q15 0 34 -1.5t30 -3.5q0 23 -12 33t-26 17t-26 15t-12 26q0 32 48.5 42t151.5 10t151.5 -10t48.5 -42q0 -18 -12 -26t-26 -15t-26 -17t-12 -33q11 2 30 3.5t34 1.5q271 0 271 -198q0 -99 -71 -156.5t-204 -57.5q-14 0 -31.5 1.5t-28.5 3.5q0 -29 12 -38.5
t26 -15t26 -14.5t12 -37zM350 377q0 43 -4 60.5t-22 17.5q-34 0 -55 -26t-21 -76q0 -45 22.5 -69t62.5 -24q12 0 14.5 12.5t2.5 48.5v56z" />
    <glyph glyph-name="afii10038" unicode="&#x424;" horiz-adv-x="930" 
d="M580 321q0 -36 2.5 -48.5t14.5 -12.5q40 0 62.5 24t22.5 69q0 50 -21 76t-55 26q-18 0 -22 -17.5t-4 -60.5v-56zM665 52q0 -39 -53 -50t-147 -11t-147 11t-53 50q0 28 12 37t26 14.5t26 15t12 38.5q-11 -2 -28.5 -3.5t-31.5 -1.5q-133 0 -204 57.5t-71 156.5
q0 198 271 198q15 0 34 -1.5t30 -3.5q0 23 -12 33t-26 17t-26 15t-12 26q0 32 48.5 42t151.5 10t151.5 -10t48.5 -42q0 -18 -12 -26t-26 -15t-26 -17t-12 -33q11 2 30 3.5t34 1.5q271 0 271 -198q0 -99 -71 -156.5t-204 -57.5q-14 0 -31.5 1.5t-28.5 3.5q0 -29 12 -38.5
t26 -15t26 -14.5t12 -37zM350 377q0 43 -4 60.5t-22 17.5q-34 0 -55 -26t-21 -76q0 -45 22.5 -69t62.5 -24q12 0 14.5 12.5t2.5 48.5v56z" />
    <glyph glyph-name="afii10039" unicode="&#xd5;" horiz-adv-x="799" 
d="M275 330q-82 112 -127.5 172t-57.5 68q-8 5 -21 6.5t-25 9.5q-22 13 -22 41q0 42 51.5 58.5t157.5 16.5q51 0 86.5 -1.5t57.5 -9t32 -22.5t10 -42q0 -11 -5 -18.5t-10.5 -12.5t-10.5 -9.5t-5 -8.5q0 -12 51 -69q26 32 38 53.5t12 30.5q0 5 -6.5 9t-15 9.5t-15 13
t-6.5 19.5q0 32 35 45t108 13q80 0 116.5 -12.5t36.5 -50.5q0 -21 -12 -35q-12 -13 -30.5 -12.5t-40.5 -3.5q-25 -4 -61 -48t-98 -121q96 -132 151.5 -205.5t70.5 -86.5q9 -8 21.5 -11t23.5 -8q13 -7 18 -15.5t5 -25.5q0 -44 -54.5 -60t-171.5 -16q-93 0 -137.5 12.5
t-44.5 49.5q0 14 6.5 22.5t14 14.5t14 11.5t6.5 14.5q0 21 -74 110q-37 -46 -54 -74.5t-17 -34.5t6.5 -12t14.5 -13t14.5 -15.5t6.5 -20.5q0 -35 -37 -50t-117 -15t-118.5 15t-38.5 52q0 12 6 23.5t17 17.5q14 8 34.5 8t38.5 9q33 17 172 214z" />
    <glyph glyph-name="afii10039" unicode="&#x425;" horiz-adv-x="799" 
d="M275 330q-82 112 -127.5 172t-57.5 68q-8 5 -21 6.5t-25 9.5q-22 13 -22 41q0 42 51.5 58.5t157.5 16.5q51 0 86.5 -1.5t57.5 -9t32 -22.5t10 -42q0 -11 -5 -18.5t-10.5 -12.5t-10.5 -9.5t-5 -8.5q0 -12 51 -69q26 32 38 53.5t12 30.5q0 5 -6.5 9t-15 9.5t-15 13
t-6.5 19.5q0 32 35 45t108 13q80 0 116.5 -12.5t36.5 -50.5q0 -21 -12 -35q-12 -13 -30.5 -12.5t-40.5 -3.5q-25 -4 -61 -48t-98 -121q96 -132 151.5 -205.5t70.5 -86.5q9 -8 21.5 -11t23.5 -8q13 -7 18 -15.5t5 -25.5q0 -44 -54.5 -60t-171.5 -16q-93 0 -137.5 12.5
t-44.5 49.5q0 14 6.5 22.5t14 14.5t14 11.5t6.5 14.5q0 21 -74 110q-37 -46 -54 -74.5t-17 -34.5t6.5 -12t14.5 -13t14.5 -15.5t6.5 -20.5q0 -35 -37 -50t-117 -15t-118.5 15t-38.5 52q0 12 6 23.5t17 17.5q14 8 34.5 8t38.5 9q33 17 172 214z" />
    <glyph glyph-name="afii10040" unicode="&#xd6;" horiz-adv-x="864" 
d="M206 702q90 0 136.5 -17t46.5 -56q0 -25 -10 -31t-21.5 -14.5t-21.5 -31.5t-10 -83v-202q0 -56 2.5 -88t11.5 -47.5t26.5 -19.5t46.5 -4q30 0 48 4t27.5 19.5t12 47.5t2.5 88v202q0 60 -10 83t-21.5 31.5t-21.5 14.5t-10 31q0 39 48 56t147 17q77 0 126.5 -18t49.5 -55
q0 -36 -30 -46q-26 -9 -35 -45t-9 -122v-187q0 -41 1.5 -65t4.5 -36.5t7.5 -16t10.5 -3.5q13 0 19.5 4.5t25.5 4.5q29 0 43.5 -37t14.5 -80q0 -18 -3.5 -39t-10.5 -38t-17 -28.5t-22 -11.5q-17 0 -31.5 13t-33.5 44q-10 16 -26.5 27t-49.5 18.5t-87.5 11t-138.5 3.5
q-47 0 -74 -1.5t-49.5 -3t-48.5 -3t-71 -1.5q-82 0 -132.5 16t-50.5 49q0 16 10 32t26 19q11 2 18.5 8.5t12 29t6 68t1.5 126.5q0 80 -1.5 127t-5 72t-9.5 33.5t-15 11.5q-17 5 -30 16t-13 30q0 39 51 56t137 17z" />
    <glyph glyph-name="afii10040" unicode="&#x426;" horiz-adv-x="864" 
d="M206 702q90 0 136.5 -17t46.5 -56q0 -25 -10 -31t-21.5 -14.5t-21.5 -31.5t-10 -83v-202q0 -56 2.5 -88t11.5 -47.5t26.5 -19.5t46.5 -4q30 0 48 4t27.5 19.5t12 47.5t2.5 88v202q0 60 -10 83t-21.5 31.5t-21.5 14.5t-10 31q0 39 48 56t147 17q77 0 126.5 -18t49.5 -55
q0 -36 -30 -46q-26 -9 -35 -45t-9 -122v-187q0 -41 1.5 -65t4.5 -36.5t7.5 -16t10.5 -3.5q13 0 19.5 4.5t25.5 4.5q29 0 43.5 -37t14.5 -80q0 -18 -3.5 -39t-10.5 -38t-17 -28.5t-22 -11.5q-17 0 -31.5 13t-33.5 44q-10 16 -26.5 27t-49.5 18.5t-87.5 11t-138.5 3.5
q-47 0 -74 -1.5t-49.5 -3t-48.5 -3t-71 -1.5q-82 0 -132.5 16t-50.5 49q0 16 10 32t26 19q11 2 18.5 8.5t12 29t6 68t1.5 126.5q0 80 -1.5 127t-5 72t-9.5 33.5t-15 11.5q-17 5 -30 16t-13 30q0 39 51 56t137 17z" />
    <glyph glyph-name="afii10041" unicode="&#xd7;" horiz-adv-x="724" 
d="M491 -9q-94 0 -145.5 16t-51.5 55q0 25 15 33.5t33 18.5t33 30.5t15 69.5v33q0 15 -2 19t-6 4q-20 0 -50 -11.5t-82 -11.5q-97 0 -145.5 61.5t-48.5 197.5q0 45 -9 62t-19 24.5t-19 13.5t-9 30q0 29 48.5 47.5t129.5 18.5q77 0 109.5 -12.5t32.5 -48.5q0 -23 -6 -31
t-13.5 -17t-13.5 -27t-6 -60q0 -44 2.5 -69.5t10 -38.5t20.5 -16.5t34 -3.5q14 0 28 10t14 51v67q0 42 -6 60t-14 27t-14 17t-6 31q0 21 8 33t27.5 18t52 8t82.5 2q100 0 138 -15.5t38 -45.5q0 -12 -3 -18t-10 -12t-18 -14t-27 -24q-4 -5 -7.5 -14t-5 -36t-2.5 -79t-1 -143
q0 -20 0.5 -46t2 -50.5t4.5 -44.5t8 -27t14.5 -12t19.5 -11.5t17.5 -16t7.5 -25.5q0 -41 -53 -59t-152 -18z" />
    <glyph glyph-name="afii10041" unicode="&#x427;" horiz-adv-x="724" 
d="M491 -9q-94 0 -145.5 16t-51.5 55q0 25 15 33.5t33 18.5t33 30.5t15 69.5v33q0 15 -2 19t-6 4q-20 0 -50 -11.5t-82 -11.5q-97 0 -145.5 61.5t-48.5 197.5q0 45 -9 62t-19 24.5t-19 13.5t-9 30q0 29 48.5 47.5t129.5 18.5q77 0 109.5 -12.5t32.5 -48.5q0 -23 -6 -31
t-13.5 -17t-13.5 -27t-6 -60q0 -44 2.5 -69.5t10 -38.5t20.5 -16.5t34 -3.5q14 0 28 10t14 51v67q0 42 -6 60t-14 27t-14 17t-6 31q0 21 8 33t27.5 18t52 8t82.5 2q100 0 138 -15.5t38 -45.5q0 -12 -3 -18t-10 -12t-18 -14t-27 -24q-4 -5 -7.5 -14t-5 -36t-2.5 -79t-1 -143
q0 -20 0.5 -46t2 -50.5t4.5 -44.5t8 -27t14.5 -12t19.5 -11.5t17.5 -16t7.5 -25.5q0 -41 -53 -59t-152 -18z" />
    <glyph glyph-name="afii10042" unicode="&#xd8;" horiz-adv-x="1144" 
d="M572 702q82 0 121.5 -18t39.5 -56q0 -27 -13.5 -36.5t-28.5 -22.5q-4 -4 -7 -12.5t-5.5 -31t-3.5 -63t-1 -109.5v-149q0 -33 2 -52t9 -28.5t19.5 -12.5t32.5 -3q30 0 48 4t27.5 19.5t12 47.5t2.5 88v202q0 60 -10 83t-21.5 31.5t-21.5 14.5t-10 31q0 39 43.5 56t142.5 17
q76 0 126 -18t50 -55q0 -36 -30 -46q-13 -5 -21.5 -13.5t-13.5 -33t-7 -71t-2 -126.5q0 -82 1.5 -127.5t5.5 -68t10.5 -28.5t16.5 -10q22 -8 31 -21.5t9 -27.5q0 -33 -52.5 -49t-146.5 -16q-34 0 -83.5 1.5t-101 3t-97.5 3t-73 1.5q-26 0 -72 -1.5t-99 -3t-106.5 -3
t-93.5 -1.5q-82 0 -132.5 16t-50.5 49q0 16 10 32t26 19q11 2 18.5 8.5t12 29t6 68t1.5 126.5q0 80 -1.5 127t-5 72t-9.5 33.5t-15 11.5q-17 5 -30 16t-13 30q0 39 51 56t137 17q90 0 132 -17t42 -56q0 -25 -10 -31t-21.5 -14.5t-21.5 -31.5t-10 -83v-202q0 -50 3.5 -81.5
t11.5 -48.5t20 -23t28 -6q30 0 48 3t27.5 12.5t12 28.5t2.5 52v149q0 69 -1 109.5t-3.5 63t-5.5 31t-7 12.5q-15 13 -28.5 22.5t-13.5 36.5q0 38 39.5 56t121.5 18z" />
    <glyph glyph-name="afii10042" unicode="&#x428;" horiz-adv-x="1144" 
d="M572 702q82 0 121.5 -18t39.5 -56q0 -27 -13.5 -36.5t-28.5 -22.5q-4 -4 -7 -12.5t-5.5 -31t-3.5 -63t-1 -109.5v-149q0 -33 2 -52t9 -28.5t19.5 -12.5t32.5 -3q30 0 48 4t27.5 19.5t12 47.5t2.5 88v202q0 60 -10 83t-21.5 31.5t-21.5 14.5t-10 31q0 39 43.5 56t142.5 17
q76 0 126 -18t50 -55q0 -36 -30 -46q-13 -5 -21.5 -13.5t-13.5 -33t-7 -71t-2 -126.5q0 -82 1.5 -127.5t5.5 -68t10.5 -28.5t16.5 -10q22 -8 31 -21.5t9 -27.5q0 -33 -52.5 -49t-146.5 -16q-34 0 -83.5 1.5t-101 3t-97.5 3t-73 1.5q-26 0 -72 -1.5t-99 -3t-106.5 -3
t-93.5 -1.5q-82 0 -132.5 16t-50.5 49q0 16 10 32t26 19q11 2 18.5 8.5t12 29t6 68t1.5 126.5q0 80 -1.5 127t-5 72t-9.5 33.5t-15 11.5q-17 5 -30 16t-13 30q0 39 51 56t137 17q90 0 132 -17t42 -56q0 -25 -10 -31t-21.5 -14.5t-21.5 -31.5t-10 -83v-202q0 -50 3.5 -81.5
t11.5 -48.5t20 -23t28 -6q30 0 48 3t27.5 12.5t12 28.5t2.5 52v149q0 69 -1 109.5t-3.5 63t-5.5 31t-7 12.5q-15 13 -28.5 22.5t-13.5 36.5q0 38 39.5 56t121.5 18z" />
    <glyph glyph-name="afii10043" unicode="&#xd9;" horiz-adv-x="1179" 
d="M1052 416v-187q0 -42 1 -66t4 -36.5t7.5 -15.5t11.5 -3q17 0 24 4.5t21 4.5q29 0 43.5 -37t14.5 -80q0 -18 -3.5 -39t-10.5 -38t-17 -28.5t-22 -11.5q-17 0 -31.5 13t-33.5 44q-14 22 -47.5 36.5t-86.5 14.5q-34 0 -83.5 1.5t-101 3t-97.5 3t-73 1.5q-26 0 -72 -1.5
t-99 -3t-106.5 -3t-93.5 -1.5q-82 0 -132.5 16t-50.5 49q0 16 10 32t26 19q11 2 18.5 8.5t12 29t6 68t1.5 126.5q0 80 -1.5 127t-5 72t-9.5 33.5t-15 11.5q-17 5 -30 16t-13 30q0 39 51 56t137 17q90 0 132 -17t42 -56q0 -25 -10 -31t-21.5 -14.5t-21.5 -31.5t-10 -83v-202
q0 -50 3.5 -81.5t11.5 -48.5t20 -23t28 -6q30 0 48 3t27.5 12.5t12 28.5t2.5 52v149q0 69 -1 109.5t-3.5 63t-5.5 31t-7 12.5q-15 13 -28.5 22.5t-13.5 36.5q0 38 39.5 56t121.5 18t121.5 -18t39.5 -56q0 -27 -13.5 -36.5t-28.5 -22.5q-4 -4 -7 -12.5t-5.5 -31t-3.5 -63
t-1 -109.5v-149q0 -33 2 -52t9 -28.5t19.5 -12.5t32.5 -3q30 0 48 4t27.5 19.5t12 47.5t2.5 88v202q0 60 -10 83t-21.5 31.5t-21.5 14.5t-10 31q0 39 43.5 56t142.5 17q76 0 126 -18t50 -55q0 -36 -30 -46q-26 -9 -35 -45t-9 -122z" />
    <glyph glyph-name="afii10043" unicode="&#x429;" horiz-adv-x="1179" 
d="M1052 416v-187q0 -42 1 -66t4 -36.5t7.5 -15.5t11.5 -3q17 0 24 4.5t21 4.5q29 0 43.5 -37t14.5 -80q0 -18 -3.5 -39t-10.5 -38t-17 -28.5t-22 -11.5q-17 0 -31.5 13t-33.5 44q-14 22 -47.5 36.5t-86.5 14.5q-34 0 -83.5 1.5t-101 3t-97.5 3t-73 1.5q-26 0 -72 -1.5
t-99 -3t-106.5 -3t-93.5 -1.5q-82 0 -132.5 16t-50.5 49q0 16 10 32t26 19q11 2 18.5 8.5t12 29t6 68t1.5 126.5q0 80 -1.5 127t-5 72t-9.5 33.5t-15 11.5q-17 5 -30 16t-13 30q0 39 51 56t137 17q90 0 132 -17t42 -56q0 -25 -10 -31t-21.5 -14.5t-21.5 -31.5t-10 -83v-202
q0 -50 3.5 -81.5t11.5 -48.5t20 -23t28 -6q30 0 48 3t27.5 12.5t12 28.5t2.5 52v149q0 69 -1 109.5t-3.5 63t-5.5 31t-7 12.5q-15 13 -28.5 22.5t-13.5 36.5q0 38 39.5 56t121.5 18t121.5 -18t39.5 -56q0 -27 -13.5 -36.5t-28.5 -22.5q-4 -4 -7 -12.5t-5.5 -31t-3.5 -63
t-1 -109.5v-149q0 -33 2 -52t9 -28.5t19.5 -12.5t32.5 -3q30 0 48 4t27.5 19.5t12 47.5t2.5 88v202q0 60 -10 83t-21.5 31.5t-21.5 14.5t-10 31q0 39 43.5 56t142.5 17q76 0 126 -18t50 -55q0 -36 -30 -46q-26 -9 -35 -45t-9 -122z" />
    <glyph glyph-name="afii10044" unicode="&#xda;" horiz-adv-x="843" 
d="M3 567q0 66 23.5 105t60.5 39q31 0 91.5 -9t146.5 -9q23 0 55 4.5t64 4.5q28 0 51 -15.5t23 -39.5q0 -15 -6 -23t-14.5 -12.5t-18.5 -9t-18 -11.5q-7 -7 -12 -23t-5 -48v-41q0 -30 9 -42.5t38 -12.5q25 0 54 4.5t60 4.5q38 0 77.5 -14t71 -40.5t51.5 -65t20 -88.5
q0 -103 -64 -168.5t-197 -65.5q-61 0 -122 4.5t-118 4.5q-29 0 -61.5 -3t-52.5 -3q-77 0 -77 56q0 23 16 30.5t35 27.5q16 17 21 88t5 207v75q0 114 -15 114q-25 0 -41.5 -14.5t-28.5 -38.5q-9 -18 -26 -36t-39 -18q-25 0 -41 21.5t-16 60.5zM486 108q38 0 58 35.5t20 85.5
q0 90 -91 90q-29 0 -29 -26v-141q0 -26 8.5 -35t33.5 -9z" />
    <glyph glyph-name="afii10044" unicode="&#x42a;" horiz-adv-x="843" 
d="M3 567q0 66 23.5 105t60.5 39q31 0 91.5 -9t146.5 -9q23 0 55 4.5t64 4.5q28 0 51 -15.5t23 -39.5q0 -15 -6 -23t-14.5 -12.5t-18.5 -9t-18 -11.5q-7 -7 -12 -23t-5 -48v-41q0 -30 9 -42.5t38 -12.5q25 0 54 4.5t60 4.5q38 0 77.5 -14t71 -40.5t51.5 -65t20 -88.5
q0 -103 -64 -168.5t-197 -65.5q-61 0 -122 4.5t-118 4.5q-29 0 -61.5 -3t-52.5 -3q-77 0 -77 56q0 23 16 30.5t35 27.5q16 17 21 88t5 207v75q0 114 -15 114q-25 0 -41.5 -14.5t-28.5 -38.5q-9 -18 -26 -36t-39 -18q-25 0 -41 21.5t-16 60.5zM486 108q38 0 58 35.5t20 85.5
q0 90 -91 90q-29 0 -29 -26v-141q0 -26 8.5 -35t33.5 -9z" />
    <glyph glyph-name="afii10045" unicode="&#xdb;" horiz-adv-x="1077" 
d="M92 403v75q0 51 -2.5 79t-12.5 34q-9 6 -20 9.5t-20.5 9t-15.5 14t-6 23.5q0 29 54.5 42t152.5 13q103 0 140.5 -12.5t37.5 -36.5q0 -15 -6 -24t-14.5 -15.5t-18.5 -11.5t-18 -11q-8 -7 -12.5 -29t-4.5 -42v-41q0 -30 9 -42.5t38 -12.5q25 0 51.5 4.5t57.5 4.5t67 -11.5
t66.5 -35.5t50.5 -61.5t20 -88.5t-12 -95.5t-40.5 -78t-74 -52.5t-113.5 -19q-62 0 -122.5 4.5t-117.5 4.5q-29 0 -61.5 -3t-52.5 -3q-77 0 -77 56q0 23 16 30.5t35 27.5q16 17 21 88t5 207zM368 108q38 0 58 35.5t20 85.5q0 90 -91 90q-29 0 -29 -26v-141q0 -26 8.5 -35
t33.5 -9zM883 702q91 0 131.5 -15.5t40.5 -52.5q0 -22 -4.5 -30t-11 -11.5t-14.5 -8.5t-14.5 -21t-11 -48.5t-4.5 -90.5q0 -100 0.5 -157t2 -86t5 -38.5t8.5 -14.5q16 -15 33.5 -26t17.5 -37q0 -18 -9.5 -31.5t-32 -22.5t-59.5 -13t-93 -4q-83 0 -120 14t-37 47q0 25 8 32.5
t17.5 21t17.5 44t8 101.5q0 112 -1.5 175t-6 95.5t-12 43t-20.5 19.5q-12 8 -20 21.5t-8 32.5q0 18 14.5 30t40 18.5t60 9.5t74.5 3z" />
    <glyph glyph-name="afii10045" unicode="&#x42b;" horiz-adv-x="1077" 
d="M92 403v75q0 51 -2.5 79t-12.5 34q-9 6 -20 9.5t-20.5 9t-15.5 14t-6 23.5q0 29 54.5 42t152.5 13q103 0 140.5 -12.5t37.5 -36.5q0 -15 -6 -24t-14.5 -15.5t-18.5 -11.5t-18 -11q-8 -7 -12.5 -29t-4.5 -42v-41q0 -30 9 -42.5t38 -12.5q25 0 51.5 4.5t57.5 4.5t67 -11.5
t66.5 -35.5t50.5 -61.5t20 -88.5t-12 -95.5t-40.5 -78t-74 -52.5t-113.5 -19q-62 0 -122.5 4.5t-117.5 4.5q-29 0 -61.5 -3t-52.5 -3q-77 0 -77 56q0 23 16 30.5t35 27.5q16 17 21 88t5 207zM368 108q38 0 58 35.5t20 85.5q0 90 -91 90q-29 0 -29 -26v-141q0 -26 8.5 -35
t33.5 -9zM883 702q91 0 131.5 -15.5t40.5 -52.5q0 -22 -4.5 -30t-11 -11.5t-14.5 -8.5t-14.5 -21t-11 -48.5t-4.5 -90.5q0 -100 0.5 -157t2 -86t5 -38.5t8.5 -14.5q16 -15 33.5 -26t17.5 -37q0 -18 -9.5 -31.5t-32 -22.5t-59.5 -13t-93 -4q-83 0 -120 14t-37 47q0 25 8 32.5
t17.5 21t17.5 44t8 101.5q0 112 -1.5 175t-6 95.5t-12 43t-20.5 19.5q-12 8 -20 21.5t-8 32.5q0 18 14.5 30t40 18.5t60 9.5t74.5 3z" />
    <glyph glyph-name="afii10046" unicode="&#xdc;" horiz-adv-x="726" 
d="M93 403v75q0 51 -2.5 79t-12.5 34q-9 6 -20 9.5t-20.5 9t-15.5 14t-6 23.5q0 29 55 42t152 13q103 0 140.5 -12.5t37.5 -36.5q0 -15 -6 -24t-14.5 -15.5t-18.5 -11.5t-18 -11q-8 -7 -12.5 -29t-4.5 -42v-41q0 -30 9.5 -42.5t37.5 -12.5q25 0 54 4.5t60 4.5q38 0 77.5 -14
t71 -40.5t51.5 -65t20 -88.5q0 -113 -69.5 -173.5t-185.5 -60.5q-68 0 -128.5 4.5t-117.5 4.5q-29 0 -62 -3t-52 -3q-77 0 -77 56q0 23 16 30.5t35 27.5q17 17 21.5 88t4.5 207zM369 108q37 0 57.5 35.5t20.5 85.5q0 90 -91 90q-29 0 -29 -26v-141q0 -26 8.5 -35t33.5 -9z
" />
    <glyph glyph-name="afii10046" unicode="&#x42c;" horiz-adv-x="726" 
d="M93 403v75q0 51 -2.5 79t-12.5 34q-9 6 -20 9.5t-20.5 9t-15.5 14t-6 23.5q0 29 55 42t152 13q103 0 140.5 -12.5t37.5 -36.5q0 -15 -6 -24t-14.5 -15.5t-18.5 -11.5t-18 -11q-8 -7 -12.5 -29t-4.5 -42v-41q0 -30 9.5 -42.5t37.5 -12.5q25 0 54 4.5t60 4.5q38 0 77.5 -14
t71 -40.5t51.5 -65t20 -88.5q0 -113 -69.5 -173.5t-185.5 -60.5q-68 0 -128.5 4.5t-117.5 4.5q-29 0 -62 -3t-52 -3q-77 0 -77 56q0 23 16 30.5t35 27.5q17 17 21.5 88t4.5 207zM369 108q37 0 57.5 35.5t20.5 85.5q0 90 -91 90q-29 0 -29 -26v-141q0 -26 8.5 -35t33.5 -9z
" />
    <glyph glyph-name="afii10047" unicode="&#xdd;" horiz-adv-x="744" 
d="M261 365q0 59 15.5 88t42.5 29q17 0 24.5 -14t7.5 -38q0 -10 8.5 -18.5t30.5 -8.5h47q12 0 16.5 5t4.5 21q0 63 -29.5 96t-81.5 33q-71 0 -103 -24t-49 -53.5t-31 -53.5t-49 -24q-38 0 -60 28.5t-22 77.5q0 34 7.5 65.5t20 55.5t29.5 38.5t36 14.5q14 0 26 -4.5t23 -4.5
q9 0 26.5 5.5t42.5 11.5t55.5 11.5t65.5 5.5q81 0 147 -27t112 -75t71 -115.5t25 -148.5q0 -83 -27.5 -149.5t-76.5 -112.5t-117.5 -70.5t-151.5 -24.5q-62 0 -101 10.5t-64 23.5t-40.5 23.5t-31.5 10.5t-32 12t-29.5 31t-22 43t-8.5 47q0 30 13.5 49t31.5 19q23 0 38.5 -14
t29.5 -25q25 -19 60 -34.5t70 -15.5q59 0 97 10t60.5 28t31 42.5t8.5 52.5q0 20 -20 20h-49q-23 0 -30.5 -10t-7.5 -23q0 -44 -32 -44q-58 0 -58 124z" />
    <glyph glyph-name="afii10047" unicode="&#x42d;" horiz-adv-x="744" 
d="M261 365q0 59 15.5 88t42.5 29q17 0 24.5 -14t7.5 -38q0 -10 8.5 -18.5t30.5 -8.5h47q12 0 16.5 5t4.5 21q0 63 -29.5 96t-81.5 33q-71 0 -103 -24t-49 -53.5t-31 -53.5t-49 -24q-38 0 -60 28.5t-22 77.5q0 34 7.5 65.5t20 55.5t29.5 38.5t36 14.5q14 0 26 -4.5t23 -4.5
q9 0 26.5 5.5t42.5 11.5t55.5 11.5t65.5 5.5q81 0 147 -27t112 -75t71 -115.5t25 -148.5q0 -83 -27.5 -149.5t-76.5 -112.5t-117.5 -70.5t-151.5 -24.5q-62 0 -101 10.5t-64 23.5t-40.5 23.5t-31.5 10.5t-32 12t-29.5 31t-22 43t-8.5 47q0 30 13.5 49t31.5 19q23 0 38.5 -14
t29.5 -25q25 -19 60 -34.5t70 -15.5q59 0 97 10t60.5 28t31 42.5t8.5 52.5q0 20 -20 20h-49q-23 0 -30.5 -10t-7.5 -23q0 -44 -32 -44q-58 0 -58 124z" />
    <glyph glyph-name="afii10048" unicode="&#xde;" horiz-adv-x="1095" 
d="M625 450q0 -48 8 -103t24.5 -101t42 -77t60.5 -31q31 0 55.5 29t24.5 81q0 48 -8 101.5t-24.5 99.5t-40.5 76t-57 30q-30 0 -57.5 -27t-27.5 -78zM1071 348q0 -80 -25.5 -146.5t-70.5 -114.5t-106.5 -75t-134.5 -27q-61 0 -115 21t-97 58t-73.5 87.5t-43.5 109.5
q-5 23 -12.5 31.5t-27.5 8.5q-33 0 -42.5 -12t-9.5 -48q0 -54 5.5 -84.5t12.5 -35.5q16 -11 29.5 -21t13.5 -34q0 -36 -48 -55.5t-140 -19.5q-82 0 -125 19.5t-43 54.5q0 15 4.5 23t12 13t16 8.5t16.5 9.5q5 4 9 15t7 34.5t4.5 62t1.5 97.5q0 72 -1 118t-3.5 73.5t-5.5 40
t-7 17.5q-3 4 -12 8t-18.5 10t-16.5 16t-7 26q0 65 180 65q86 0 131 -14.5t45 -50.5q0 -20 -6.5 -31.5t-20.5 -20.5q-19 -12 -26.5 -26.5t-7.5 -48.5v-37q0 -28 8.5 -37.5t42.5 -9.5q16 0 25 4.5t13.5 10.5t6 13t2.5 12q17 55 48 99.5t74 76t95.5 49t111.5 17.5
q73 0 133.5 -26t104.5 -73.5t68.5 -114t24.5 -146.5z" />
    <glyph glyph-name="afii10048" unicode="&#x42e;" horiz-adv-x="1095" 
d="M625 450q0 -48 8 -103t24.5 -101t42 -77t60.5 -31q31 0 55.5 29t24.5 81q0 48 -8 101.5t-24.5 99.5t-40.5 76t-57 30q-30 0 -57.5 -27t-27.5 -78zM1071 348q0 -80 -25.5 -146.5t-70.5 -114.5t-106.5 -75t-134.5 -27q-61 0 -115 21t-97 58t-73.5 87.5t-43.5 109.5
q-5 23 -12.5 31.5t-27.5 8.5q-33 0 -42.5 -12t-9.5 -48q0 -54 5.5 -84.5t12.5 -35.5q16 -11 29.5 -21t13.5 -34q0 -36 -48 -55.5t-140 -19.5q-82 0 -125 19.5t-43 54.5q0 15 4.5 23t12 13t16 8.5t16.5 9.5q5 4 9 15t7 34.5t4.5 62t1.5 97.5q0 72 -1 118t-3.5 73.5t-5.5 40
t-7 17.5q-3 4 -12 8t-18.5 10t-16.5 16t-7 26q0 65 180 65q86 0 131 -14.5t45 -50.5q0 -20 -6.5 -31.5t-20.5 -20.5q-19 -12 -26.5 -26.5t-7.5 -48.5v-37q0 -28 8.5 -37.5t42.5 -9.5q16 0 25 4.5t13.5 10.5t6 13t2.5 12q17 55 48 99.5t74 76t95.5 49t111.5 17.5
q73 0 133.5 -26t104.5 -73.5t68.5 -114t24.5 -146.5z" />
    <glyph glyph-name="afii10049" unicode="&#xdf;" horiz-adv-x="764" 
d="M633 702q62 0 87.5 -16t25.5 -44q0 -27 -18.5 -35.5t-36.5 -20.5q-13 -10 -16 -58t-3 -136v-36q0 -82 2 -129.5t5.5 -72t8.5 -32.5t10 -10q48 -21 48 -54q0 -70 -189 -70q-92 0 -136 15t-44 52q0 17 11 31t39 29q8 5 10.5 21t2.5 59v82q-12 4 -25 4q-29 0 -52.5 -32
t-34.5 -98q-14 -80 -58.5 -121.5t-137.5 -41.5q-75 0 -103.5 21t-28.5 55q0 13 12.5 26.5t40.5 21.5q12 3 15.5 23t8.5 51q6 40 22.5 65.5t47.5 42.5q20 11 35.5 18t15.5 15q0 6 -18.5 13.5t-42.5 23.5q-35 23 -50.5 58t-15.5 84q0 45 19 81t50.5 61.5t72.5 39.5t85 14
q39 0 96 -4.5t111 -4.5q31 0 69 4.5t59 4.5zM413 588q-34 0 -62 -23t-28 -78q0 -53 27 -85t66 -32q6 0 11.5 1.5t13.5 3.5q4 35 4 60v76q0 45 -4.5 61t-27.5 16z" />
    <glyph glyph-name="afii10049" unicode="&#x42f;" horiz-adv-x="764" 
d="M633 702q62 0 87.5 -16t25.5 -44q0 -27 -18.5 -35.5t-36.5 -20.5q-13 -10 -16 -58t-3 -136v-36q0 -82 2 -129.5t5.5 -72t8.5 -32.5t10 -10q48 -21 48 -54q0 -70 -189 -70q-92 0 -136 15t-44 52q0 17 11 31t39 29q8 5 10.5 21t2.5 59v82q-12 4 -25 4q-29 0 -52.5 -32
t-34.5 -98q-14 -80 -58.5 -121.5t-137.5 -41.5q-75 0 -103.5 21t-28.5 55q0 13 12.5 26.5t40.5 21.5q12 3 15.5 23t8.5 51q6 40 22.5 65.5t47.5 42.5q20 11 35.5 18t15.5 15q0 6 -18.5 13.5t-42.5 23.5q-35 23 -50.5 58t-15.5 84q0 45 19 81t50.5 61.5t72.5 39.5t85 14
q39 0 96 -4.5t111 -4.5q31 0 69 4.5t59 4.5zM413 588q-34 0 -62 -23t-28 -78q0 -53 27 -85t66 -32q6 0 11.5 1.5t13.5 3.5q4 35 4 60v76q0 45 -4.5 61t-27.5 16z" />
    <glyph glyph-name="afii10065" unicode="&#xe0;" horiz-adv-x="575" 
d="M294 298q1 14 1.5 25.5t0.5 22.5q0 89 -42 89q-21 0 -34.5 -15.5t-29.5 -35.5q-20 -25 -40 -37.5t-43 -12.5q-25 0 -42 17.5t-17 45.5q0 24 16.5 47t47.5 40t74.5 27.5t97.5 10.5q113 0 171.5 -44t58.5 -128q0 -32 -1.5 -60t-1.5 -52v-15q0 -26 0.5 -42.5t3.5 -26.5
t9 -14.5t16 -7.5q28 -8 28 -34q0 -17 -12 -36.5t-33 -36t-50 -27t-64 -10.5q-19 0 -34 4.5t-27 16.5q-14 13 -22 23t-16 10q-7 0 -12.5 -4.5t-12.5 -9.5q-25 -18 -48.5 -27t-58.5 -9q-77 0 -122.5 42.5t-45.5 108.5q0 35 16 64.5t44 51.5t66 34.5t82 12.5q15 0 34 -2t42 -6z
M293 200q0 17 -4.5 21t-20.5 4q-48 0 -48 -61q0 -57 38 -57q25 0 30 21.5t5 71.5z" />
    <glyph glyph-name="afii10065" unicode="&#x430;" horiz-adv-x="575" 
d="M294 298q1 14 1.5 25.5t0.5 22.5q0 89 -42 89q-21 0 -34.5 -15.5t-29.5 -35.5q-20 -25 -40 -37.5t-43 -12.5q-25 0 -42 17.5t-17 45.5q0 24 16.5 47t47.5 40t74.5 27.5t97.5 10.5q113 0 171.5 -44t58.5 -128q0 -32 -1.5 -60t-1.5 -52v-15q0 -26 0.5 -42.5t3.5 -26.5
t9 -14.5t16 -7.5q28 -8 28 -34q0 -17 -12 -36.5t-33 -36t-50 -27t-64 -10.5q-19 0 -34 4.5t-27 16.5q-14 13 -22 23t-16 10q-7 0 -12.5 -4.5t-12.5 -9.5q-25 -18 -48.5 -27t-58.5 -9q-77 0 -122.5 42.5t-45.5 108.5q0 35 16 64.5t44 51.5t66 34.5t82 12.5q15 0 34 -2t42 -6z
M293 200q0 17 -4.5 21t-20.5 4q-48 0 -48 -61q0 -57 38 -57q25 0 30 21.5t5 71.5z" />
    <glyph glyph-name="afii10066" unicode="&#xe1;" horiz-adv-x="629" 
d="M127 401q35 43 92.5 70.5t122.5 27.5q64 0 114 -22.5t84.5 -59t52.5 -81.5t18 -90q0 -60 -24.5 -108t-65 -81t-91.5 -51t-105 -18q-145 0 -223 89.5t-78 257.5q0 172 73 272.5t204 100.5q72 0 110 10.5t57.5 22.5t28 22.5t20.5 10.5q19 0 30 -13t11 -30q0 -30 -9 -60
t-33.5 -53.5t-67 -38.5t-109.5 -15q-47 0 -85.5 -11.5t-67 -33t-44 -51.5t-15.5 -67zM301 384q-25 0 -37 -18.5t-12 -39.5q0 -22 5 -58.5t15.5 -71t27.5 -60t41 -25.5q28 0 36.5 18.5t8.5 41.5q0 17 -4 52t-14 71t-26.5 63t-40.5 27z" />
    <glyph glyph-name="afii10066" unicode="&#x431;" horiz-adv-x="629" 
d="M127 401q35 43 92.5 70.5t122.5 27.5q64 0 114 -22.5t84.5 -59t52.5 -81.5t18 -90q0 -60 -24.5 -108t-65 -81t-91.5 -51t-105 -18q-145 0 -223 89.5t-78 257.5q0 172 73 272.5t204 100.5q72 0 110 10.5t57.5 22.5t28 22.5t20.5 10.5q19 0 30 -13t11 -30q0 -30 -9 -60
t-33.5 -53.5t-67 -38.5t-109.5 -15q-47 0 -85.5 -11.5t-67 -33t-44 -51.5t-15.5 -67zM301 384q-25 0 -37 -18.5t-12 -39.5q0 -22 5 -58.5t15.5 -71t27.5 -60t41 -25.5q28 0 36.5 18.5t8.5 41.5q0 17 -4 52t-14 71t-26.5 63t-40.5 27z" />
    <glyph glyph-name="afii10067" unicode="&#xe2;" horiz-adv-x="627" 
d="M513 293v-2q12 -3 29.5 -13.5t33.5 -27t27.5 -38.5t11.5 -48q0 -27 -6.5 -57t-27.5 -55t-59.5 -41.5t-101.5 -16.5q-58 0 -97 3t-76 3q-41 0 -78 -3t-80 -3q-21 0 -46 11t-25 44q0 20 6.5 24.5t16.5 14.5q8 8 13.5 18.5t8.5 29.5t4.5 50.5t1.5 80.5q0 46 -1 73t-4 42.5
t-8.5 24t-13.5 16.5q-10 10 -15 20t-5 25q0 14 8 23.5t19.5 16t25 9.5t23.5 3q23 0 39.5 -1t33.5 -2.5t37 -2.5t50 -1q27 0 55 3.5t59 3.5q57 0 94.5 -10.5t60 -27.5t31.5 -40t9 -47q0 -31 -13 -58.5t-41 -43.5zM305 309q25 0 38.5 11.5t13.5 45.5q0 36 -12 49.5t-37 13.5
q-10 0 -14.5 -6.5t-4.5 -25.5v-69q0 -19 16 -19zM321 91q27 0 41.5 20.5t14.5 53.5q0 35 -14.5 52t-49.5 17q-13 0 -18.5 -13.5t-5.5 -66.5q0 -40 7.5 -51.5t24.5 -11.5z" />
    <glyph glyph-name="afii10067" unicode="&#x432;" horiz-adv-x="627" 
d="M513 293v-2q12 -3 29.5 -13.5t33.5 -27t27.5 -38.5t11.5 -48q0 -27 -6.5 -57t-27.5 -55t-59.5 -41.5t-101.5 -16.5q-58 0 -97 3t-76 3q-41 0 -78 -3t-80 -3q-21 0 -46 11t-25 44q0 20 6.5 24.5t16.5 14.5q8 8 13.5 18.5t8.5 29.5t4.5 50.5t1.5 80.5q0 46 -1 73t-4 42.5
t-8.5 24t-13.5 16.5q-10 10 -15 20t-5 25q0 14 8 23.5t19.5 16t25 9.5t23.5 3q23 0 39.5 -1t33.5 -2.5t37 -2.5t50 -1q27 0 55 3.5t59 3.5q57 0 94.5 -10.5t60 -27.5t31.5 -40t9 -47q0 -31 -13 -58.5t-41 -43.5zM305 309q25 0 38.5 11.5t13.5 45.5q0 36 -12 49.5t-37 13.5
q-10 0 -14.5 -6.5t-4.5 -25.5v-69q0 -19 16 -19zM321 91q27 0 41.5 20.5t14.5 53.5q0 35 -14.5 52t-49.5 17q-13 0 -18.5 -13.5t-5.5 -66.5q0 -40 7.5 -51.5t24.5 -11.5z" />
    <glyph glyph-name="afii10068" unicode="&#xe3;" horiz-adv-x="537" 
d="M210 -9q-57 0 -93.5 4.5t-57 12t-28.5 17.5t-8 21q0 19 4.5 28.5t12.5 13.5q9 4 15.5 9.5t10 17t5 32t1.5 54.5v104q0 34 -3 55.5t-8.5 35t-14 21t-19.5 14.5q-15 9 -15 39q0 22 31 36t81 14q28 0 61.5 -3t81.5 -3q49 0 80 2.5t52.5 5t37.5 5t37 2.5q26 0 44.5 -18.5
t18.5 -65.5q0 -42 -14.5 -77t-45.5 -35q-19 0 -28 9.5t-15 23.5q-8 18 -24.5 35t-66.5 17q-14 0 -23 -2.5t-14 -11.5t-7 -26.5t-2 -47.5v-94q0 -47 2 -74.5t6.5 -41.5t12 -19t18.5 -7q19 -10 28.5 -20.5t9.5 -26.5q0 -31 -41.5 -43.5t-122.5 -12.5z" />
    <glyph glyph-name="afii10068" unicode="&#x433;" horiz-adv-x="537" 
d="M210 -9q-57 0 -93.5 4.5t-57 12t-28.5 17.5t-8 21q0 19 4.5 28.5t12.5 13.5q9 4 15.5 9.5t10 17t5 32t1.5 54.5v104q0 34 -3 55.5t-8.5 35t-14 21t-19.5 14.5q-15 9 -15 39q0 22 31 36t81 14q28 0 61.5 -3t81.5 -3q49 0 80 2.5t52.5 5t37.5 5t37 2.5q26 0 44.5 -18.5
t18.5 -65.5q0 -42 -14.5 -77t-45.5 -35q-19 0 -28 9.5t-15 23.5q-8 18 -24.5 35t-66.5 17q-14 0 -23 -2.5t-14 -11.5t-7 -26.5t-2 -47.5v-94q0 -47 2 -74.5t6.5 -41.5t12 -19t18.5 -7q19 -10 28.5 -20.5t9.5 -26.5q0 -31 -41.5 -43.5t-122.5 -12.5z" />
    <glyph glyph-name="afii10069" unicode="&#xe4;" horiz-adv-x="760" 
d="M150 266q0 145 -46 158q-14 4 -26 17t-12 33q0 25 34.5 35.5t90.5 10.5q24 0 41.5 -1t34 -2.5t35 -2.5t43.5 -1q24 0 44 1t41.5 2.5t48 2.5t63.5 1q76 0 118 -10.5t42 -35.5q0 -12 -11 -26t-25 -23q-9 -6 -15.5 -12t-10 -17.5t-5.5 -30.5t-2 -51v-126q0 -61 5.5 -79.5
t16.5 -18.5q13 0 19 3t22 3q26 0 42 -22t16 -62q0 -52 -16 -81.5t-41 -29.5q-20 0 -29.5 7t-16.5 18.5t-15.5 26.5t-26.5 30q-20 17 -83 17h-315q-29 0 -47 -6.5t-28 -19.5q-10 -12 -16 -24.5t-12.5 -23.5t-16.5 -18t-28 -7q-25 0 -41 29.5t-16 81.5q0 42 16 63t41 21
q16 0 18.5 -3t19.5 -3t33 40.5t16 135.5zM339 433q-28 0 -44.5 -4t-25.5 -21.5t-11.5 -53.5t-2.5 -100q0 -33 -3 -55.5t-6.5 -38.5t-6.5 -27t-3 -21q0 -12 7.5 -17t33.5 -5h86q28 0 36.5 20t8.5 81v125q0 42 -2 65.5t-8.5 35t-20.5 14t-38 2.5z" />
    <glyph glyph-name="afii10069" unicode="&#x434;" horiz-adv-x="760" 
d="M150 266q0 145 -46 158q-14 4 -26 17t-12 33q0 25 34.5 35.5t90.5 10.5q24 0 41.5 -1t34 -2.5t35 -2.5t43.5 -1q24 0 44 1t41.5 2.5t48 2.5t63.5 1q76 0 118 -10.5t42 -35.5q0 -12 -11 -26t-25 -23q-9 -6 -15.5 -12t-10 -17.5t-5.5 -30.5t-2 -51v-126q0 -61 5.5 -79.5
t16.5 -18.5q13 0 19 3t22 3q26 0 42 -22t16 -62q0 -52 -16 -81.5t-41 -29.5q-20 0 -29.5 7t-16.5 18.5t-15.5 26.5t-26.5 30q-20 17 -83 17h-315q-29 0 -47 -6.5t-28 -19.5q-10 -12 -16 -24.5t-12.5 -23.5t-16.5 -18t-28 -7q-25 0 -41 29.5t-16 81.5q0 42 16 63t41 21
q16 0 18.5 -3t19.5 -3t33 40.5t16 135.5zM339 433q-28 0 -44.5 -4t-25.5 -21.5t-11.5 -53.5t-2.5 -100q0 -33 -3 -55.5t-6.5 -38.5t-6.5 -27t-3 -21q0 -12 7.5 -17t33.5 -5h86q28 0 36.5 20t8.5 81v125q0 42 -2 65.5t-8.5 35t-20.5 14t-38 2.5z" />
    <glyph glyph-name="afii10070" unicode="&#xe5;" horiz-adv-x="552" 
d="M280 331h9q40 0 50.5 4.5t10.5 29.5q0 29 -16.5 45.5t-39.5 16.5q-25 0 -44 -18t-19 -47q0 -19 7.5 -25t28.5 -6h13zM481 235h-217q-16 0 -23 -2.5t-7 -11.5q0 -37 31.5 -66.5t89.5 -29.5q23 0 41.5 6.5t33.5 15t27 15t21 6.5q17 0 29 -14t12 -37q0 -18 -15 -39.5
t-45 -41.5q-76 -50 -170 -50q-60 0 -109.5 20.5t-85.5 56t-56 83.5t-20 104q0 83 50 155q39 55 98.5 85.5t127.5 30.5q54 0 99 -16.5t76.5 -45t49 -67.5t17.5 -83q0 -41 -13 -57.5t-42 -16.5z" />
    <glyph glyph-name="afii10070" unicode="&#x435;" horiz-adv-x="552" 
d="M280 331h9q40 0 50.5 4.5t10.5 29.5q0 29 -16.5 45.5t-39.5 16.5q-25 0 -44 -18t-19 -47q0 -19 7.5 -25t28.5 -6h13zM481 235h-217q-16 0 -23 -2.5t-7 -11.5q0 -37 31.5 -66.5t89.5 -29.5q23 0 41.5 6.5t33.5 15t27 15t21 6.5q17 0 29 -14t12 -37q0 -18 -15 -39.5
t-45 -41.5q-76 -50 -170 -50q-60 0 -109.5 20.5t-85.5 56t-56 83.5t-20 104q0 83 50 155q39 55 98.5 85.5t127.5 30.5q54 0 99 -16.5t76.5 -45t49 -67.5t17.5 -83q0 -41 -13 -57.5t-42 -16.5z" />
    <glyph glyph-name="afii10072" unicode="&#xe6;" horiz-adv-x="1012" 
d="M132 341q-43 0 -58 26.5t-15 62.5q0 30 29.5 60t88.5 30q38 0 63.5 -13t41 -34t22 -47t6.5 -53q0 -34 18 -52.5t47 -18.5q15 0 20 5t5 21v47q0 31 -7 42t-15.5 16t-15.5 11t-7 29q0 10 5.5 18.5t21.5 15t45.5 10t78.5 3.5t78.5 -3.5t45.5 -10t21.5 -15t5.5 -18.5
q0 -23 -7 -29t-15.5 -11t-15.5 -16t-7 -42v-47q0 -16 5 -21t20 -5q29 0 47 18.5t18 52.5q0 27 6.5 53t22 47t41 34t63.5 13q59 0 88.5 -30t29.5 -60q0 -36 -15 -62.5t-58 -26.5q-25 0 -42 12t-17 39q0 18 7 21t7 16q0 15 -19 15q-15 0 -25.5 -13t-10.5 -56q0 -25 -8.5 -44.5
t-22.5 -34.5q89 -12 141.5 -50.5t52.5 -107.5q0 -48 25 -55t34.5 -15.5t9.5 -22.5q-4 -22 -36.5 -38t-95.5 -16q-158 0 -158 122q0 70 -24.5 96.5t-59.5 26.5q-11 0 -21 -5v-87q0 -31 2.5 -43t8.5 -16q13 -7 24.5 -15.5t11.5 -28.5q0 -28 -40 -39t-118 -11t-118 11t-40 39
q0 20 11.5 28.5t24.5 15.5q6 4 8.5 16t2.5 43v87q-10 5 -21 5q-35 0 -59.5 -26.5t-24.5 -96.5q0 -122 -158 -122q-63 0 -95.5 16t-36.5 38q0 14 9.5 22.5t34.5 15.5t25 55q0 69 52.5 107.5t141.5 50.5q-14 15 -22.5 34.5t-8.5 44.5q0 43 -10.5 56t-25.5 13q-19 0 -19 -15
q0 -13 7 -16t7 -21q0 -27 -17 -39t-42 -12z" />
    <glyph glyph-name="afii10072" unicode="&#x436;" horiz-adv-x="1012" 
d="M132 341q-43 0 -58 26.5t-15 62.5q0 30 29.5 60t88.5 30q38 0 63.5 -13t41 -34t22 -47t6.5 -53q0 -34 18 -52.5t47 -18.5q15 0 20 5t5 21v47q0 31 -7 42t-15.5 16t-15.5 11t-7 29q0 10 5.5 18.5t21.5 15t45.5 10t78.5 3.5t78.5 -3.5t45.5 -10t21.5 -15t5.5 -18.5
q0 -23 -7 -29t-15.5 -11t-15.5 -16t-7 -42v-47q0 -16 5 -21t20 -5q29 0 47 18.5t18 52.5q0 27 6.5 53t22 47t41 34t63.5 13q59 0 88.5 -30t29.5 -60q0 -36 -15 -62.5t-58 -26.5q-25 0 -42 12t-17 39q0 18 7 21t7 16q0 15 -19 15q-15 0 -25.5 -13t-10.5 -56q0 -25 -8.5 -44.5
t-22.5 -34.5q89 -12 141.5 -50.5t52.5 -107.5q0 -48 25 -55t34.5 -15.5t9.5 -22.5q-4 -22 -36.5 -38t-95.5 -16q-158 0 -158 122q0 70 -24.5 96.5t-59.5 26.5q-11 0 -21 -5v-87q0 -31 2.5 -43t8.5 -16q13 -7 24.5 -15.5t11.5 -28.5q0 -28 -40 -39t-118 -11t-118 11t-40 39
q0 20 11.5 28.5t24.5 15.5q6 4 8.5 16t2.5 43v87q-10 5 -21 5q-35 0 -59.5 -26.5t-24.5 -96.5q0 -122 -158 -122q-63 0 -95.5 16t-36.5 38q0 14 9.5 22.5t34.5 15.5t25 55q0 69 52.5 107.5t141.5 50.5q-14 15 -22.5 34.5t-8.5 44.5q0 43 -10.5 56t-25.5 13q-19 0 -19 -15
q0 -13 7 -16t7 -21q0 -27 -17 -39t-42 -12z" />
    <glyph glyph-name="afii10073" unicode="&#xe7;" horiz-adv-x="583" 
d="M276 403q-58 0 -85.5 -19t-42 -42.5t-24 -42.5t-32.5 -19q-15 0 -26.5 9.5t-18.5 24t-11 32t-4 33.5q0 30 8.5 52t22 36.5t30 21t32.5 6.5q28 0 40.5 4t34.5 10q21 5 47.5 9t69.5 4q101 0 163 -39t62 -110q0 -18 -8.5 -34t-21.5 -29t-28.5 -22t-28.5 -12q43 -10 76.5 -39
t33.5 -76q0 -51 -25.5 -84t-63 -52t-81 -26.5t-80.5 -7.5q-38 0 -66.5 2t-51.5 6.5t-42.5 12.5t-40.5 21q-35 22 -65.5 49.5t-30.5 58.5q0 19 13.5 38t39.5 19q17 0 32.5 -14t36 -31.5t51 -31.5t77.5 -14q28 0 47 15.5t19 39.5q0 26 -21.5 38.5t-69.5 12.5q-35 0 -52.5 15.5
t-17.5 34.5q0 29 21.5 40t55.5 11q45 0 62.5 11t17.5 33q0 20 -14 32.5t-40 12.5z" />
    <glyph glyph-name="afii10073" unicode="&#x437;" horiz-adv-x="583" 
d="M276 403q-58 0 -85.5 -19t-42 -42.5t-24 -42.5t-32.5 -19q-15 0 -26.5 9.5t-18.5 24t-11 32t-4 33.5q0 30 8.5 52t22 36.5t30 21t32.5 6.5q28 0 40.5 4t34.5 10q21 5 47.5 9t69.5 4q101 0 163 -39t62 -110q0 -18 -8.5 -34t-21.5 -29t-28.5 -22t-28.5 -12q43 -10 76.5 -39
t33.5 -76q0 -51 -25.5 -84t-63 -52t-81 -26.5t-80.5 -7.5q-38 0 -66.5 2t-51.5 6.5t-42.5 12.5t-40.5 21q-35 22 -65.5 49.5t-30.5 58.5q0 19 13.5 38t39.5 19q17 0 32.5 -14t36 -31.5t51 -31.5t77.5 -14q28 0 47 15.5t19 39.5q0 26 -21.5 38.5t-69.5 12.5q-35 0 -52.5 15.5
t-17.5 34.5q0 29 21.5 40t55.5 11q45 0 62.5 11t17.5 33q0 20 -14 32.5t-40 12.5z" />
    <glyph glyph-name="afii10074" unicode="&#xe8;" horiz-adv-x="718" 
d="M534 520q88 0 127 -14t39 -46q0 -22 -8 -28t-19 -18q-6 -7 -10.5 -14.5t-7 -23.5t-3.5 -44t-1 -76q0 -49 1 -78t4 -45.5t8.5 -25.5t13.5 -17t15 -12t7 -25q0 -31 -41.5 -46.5t-145.5 -15.5q-65 0 -96.5 15t-31.5 41q0 12 4.5 20.5t17.5 22.5q12 12 15.5 32.5t3.5 62.5
q0 50 -10 50q-4 0 -24 -14t-42 -32.5t-40 -38.5t-18 -32q0 -17 3.5 -24t7.5 -11.5t7.5 -10t3.5 -19.5q0 -31 -32 -46.5t-108 -15.5q-80 0 -118 15.5t-38 46.5q0 13 5 20.5t18 16.5q6 4 11 11.5t8 25t5 48.5t2 83q0 49 -1 77t-3 43.5t-6.5 22.5t-10.5 13q-10 10 -19 17t-9 29
q0 32 37 46t114 14q83 0 124 -12t41 -44q0 -11 -3.5 -17t-8 -10.5t-10 -9t-9.5 -13.5q-5 -11 -8 -27t-3 -45q0 -53 2 -65.5t7 -12.5q6 0 26 17t42 39t39.5 43.5t17.5 31.5q0 19 -4.5 28t-9.5 14t-9.5 10.5t-4.5 16.5q0 28 33 42t103 14z" />
    <glyph glyph-name="afii10074" unicode="&#x438;" horiz-adv-x="718" 
d="M534 520q88 0 127 -14t39 -46q0 -22 -8 -28t-19 -18q-6 -7 -10.5 -14.5t-7 -23.5t-3.5 -44t-1 -76q0 -49 1 -78t4 -45.5t8.5 -25.5t13.5 -17t15 -12t7 -25q0 -31 -41.5 -46.5t-145.5 -15.5q-65 0 -96.5 15t-31.5 41q0 12 4.5 20.5t17.5 22.5q12 12 15.5 32.5t3.5 62.5
q0 50 -10 50q-4 0 -24 -14t-42 -32.5t-40 -38.5t-18 -32q0 -17 3.5 -24t7.5 -11.5t7.5 -10t3.5 -19.5q0 -31 -32 -46.5t-108 -15.5q-80 0 -118 15.5t-38 46.5q0 13 5 20.5t18 16.5q6 4 11 11.5t8 25t5 48.5t2 83q0 49 -1 77t-3 43.5t-6.5 22.5t-10.5 13q-10 10 -19 17t-9 29
q0 32 37 46t114 14q83 0 124 -12t41 -44q0 -11 -3.5 -17t-8 -10.5t-10 -9t-9.5 -13.5q-5 -11 -8 -27t-3 -45q0 -53 2 -65.5t7 -12.5q6 0 26 17t42 39t39.5 43.5t17.5 31.5q0 19 -4.5 28t-9.5 14t-9.5 10.5t-4.5 16.5q0 28 33 42t103 14z" />
    <glyph glyph-name="afii10075" unicode="&#xe9;" horiz-adv-x="718" 
d="M534 520q88 0 127 -14t39 -46q0 -22 -8 -28t-19 -18q-6 -7 -10.5 -14.5t-7 -23.5t-3.5 -44t-1 -76q0 -49 1 -78t4 -45.5t8.5 -25.5t13.5 -17t15 -12t7 -25q0 -31 -41.5 -46.5t-145.5 -15.5q-65 0 -96.5 15t-31.5 41q0 12 4.5 20.5t17.5 22.5q12 12 15.5 32.5t3.5 62.5
q0 50 -10 50q-4 0 -24 -14t-42 -32.5t-40 -38.5t-18 -32q0 -17 3.5 -24t7.5 -11.5t7.5 -10t3.5 -19.5q0 -31 -32 -46.5t-108 -15.5q-80 0 -118 15.5t-38 46.5q0 13 5 20.5t18 16.5q6 4 11 11.5t8 25t5 48.5t2 83q0 49 -1 77t-3 43.5t-6.5 22.5t-10.5 13q-10 10 -19 17t-9 29
q0 32 37 46t114 14q83 0 124 -12t41 -44q0 -11 -3.5 -17t-8 -10.5t-10 -9t-9.5 -13.5q-5 -11 -8 -27t-3 -45q0 -53 2 -65.5t7 -12.5q6 0 26 17t42 39t39.5 43.5t17.5 31.5q0 19 -4.5 28t-9.5 14t-9.5 10.5t-4.5 16.5q0 28 33 42t103 14zM365 552h-11q-68 0 -111.5 23
t-43.5 59q0 60 45 60q20 0 36.5 -13t16.5 -31q0 -22 10.5 -31.5t46.5 -9.5h11q35 0 45 9.5t10 31.5q0 18 17 31t36 13q45 0 45 -60q0 -36 -43 -59t-110 -23z" />
    <glyph glyph-name="afii10075" unicode="&#x439;" horiz-adv-x="718" 
d="M534 520q88 0 127 -14t39 -46q0 -22 -8 -28t-19 -18q-6 -7 -10.5 -14.5t-7 -23.5t-3.5 -44t-1 -76q0 -49 1 -78t4 -45.5t8.5 -25.5t13.5 -17t15 -12t7 -25q0 -31 -41.5 -46.5t-145.5 -15.5q-65 0 -96.5 15t-31.5 41q0 12 4.5 20.5t17.5 22.5q12 12 15.5 32.5t3.5 62.5
q0 50 -10 50q-4 0 -24 -14t-42 -32.5t-40 -38.5t-18 -32q0 -17 3.5 -24t7.5 -11.5t7.5 -10t3.5 -19.5q0 -31 -32 -46.5t-108 -15.5q-80 0 -118 15.5t-38 46.5q0 13 5 20.5t18 16.5q6 4 11 11.5t8 25t5 48.5t2 83q0 49 -1 77t-3 43.5t-6.5 22.5t-10.5 13q-10 10 -19 17t-9 29
q0 32 37 46t114 14q83 0 124 -12t41 -44q0 -11 -3.5 -17t-8 -10.5t-10 -9t-9.5 -13.5q-5 -11 -8 -27t-3 -45q0 -53 2 -65.5t7 -12.5q6 0 26 17t42 39t39.5 43.5t17.5 31.5q0 19 -4.5 28t-9.5 14t-9.5 10.5t-4.5 16.5q0 28 33 42t103 14zM365 552h-11q-68 0 -111.5 23
t-43.5 59q0 60 45 60q20 0 36.5 -13t16.5 -31q0 -22 10.5 -31.5t46.5 -9.5h11q35 0 45 9.5t10 31.5q0 18 17 31t36 13q45 0 45 -60q0 -36 -43 -59t-110 -23z" />
    <glyph glyph-name="afii10076" unicode="&#xea;" horiz-adv-x="694" 
d="M562 341q-25 0 -42 12t-17 39q0 18 7 21t7 16q0 15 -19 15q-15 0 -25.5 -13t-10.5 -56q0 -25 -8.5 -44.5t-22.5 -34.5q89 -12 141.5 -50.5t52.5 -107.5q0 -48 25 -55t34.5 -15.5t9.5 -22.5q-4 -22 -36.5 -38t-95.5 -16q-158 0 -158 122q0 70 -24.5 96.5t-59.5 26.5
q-11 0 -21 -5v-87q0 -31 2.5 -43t8.5 -16q13 -7 24.5 -15.5t11.5 -28.5q0 -28 -40 -39t-118 -11q-80 0 -128 10t-48 42q0 19 12 24t28 16q5 3 9 10t7 25t4.5 52.5t1.5 93.5v111q0 51 -24 58q-29 10 -29 41q0 28 45.5 37t121.5 9q49 0 78.5 -3.5t45.5 -10t21.5 -15t5.5 -18.5
q0 -23 -7 -29t-15.5 -11t-15.5 -16t-7 -42v-47q0 -16 5 -21t20 -5q29 0 47 18.5t18 52.5q0 27 6.5 53t22 47t41 34t63.5 13q59 0 88.5 -30t29.5 -60q0 -36 -15 -62.5t-58 -26.5z" />
    <glyph glyph-name="afii10076" unicode="&#x43a;" horiz-adv-x="694" 
d="M562 341q-25 0 -42 12t-17 39q0 18 7 21t7 16q0 15 -19 15q-15 0 -25.5 -13t-10.5 -56q0 -25 -8.5 -44.5t-22.5 -34.5q89 -12 141.5 -50.5t52.5 -107.5q0 -48 25 -55t34.5 -15.5t9.5 -22.5q-4 -22 -36.5 -38t-95.5 -16q-158 0 -158 122q0 70 -24.5 96.5t-59.5 26.5
q-11 0 -21 -5v-87q0 -31 2.5 -43t8.5 -16q13 -7 24.5 -15.5t11.5 -28.5q0 -28 -40 -39t-118 -11q-80 0 -128 10t-48 42q0 19 12 24t28 16q5 3 9 10t7 25t4.5 52.5t1.5 93.5v111q0 51 -24 58q-29 10 -29 41q0 28 45.5 37t121.5 9q49 0 78.5 -3.5t45.5 -10t21.5 -15t5.5 -18.5
q0 -23 -7 -29t-15.5 -11t-15.5 -16t-7 -42v-47q0 -16 5 -21t20 -5q29 0 47 18.5t18 52.5q0 27 6.5 53t22 47t41 34t63.5 13q59 0 88.5 -30t29.5 -60q0 -36 -15 -62.5t-58 -26.5z" />
    <glyph glyph-name="afii10077" unicode="&#xeb;" horiz-adv-x="729" 
d="M555 -7q-38 0 -72.5 3t-61 9.5t-42 16t-15.5 22.5q0 21 9 30.5t20 19t20 24t9 44.5v145q0 41 -2.5 64.5t-11 35t-26 14.5t-47.5 3q-23 0 -28.5 -10t-5.5 -58v-76q0 -90 -12.5 -146t-35 -87.5t-53.5 -42.5t-69 -11q-70 0 -105 30.5t-35 80.5q0 37 23.5 59t55.5 22
q26 0 44.5 -15.5t18.5 -38.5q0 -14 -5.5 -21.5t-5.5 -21.5q0 -8 6.5 -13t13.5 -5q9 0 18.5 7.5t16.5 32t11.5 70.5t4.5 122q0 60 -9 83t-29 31q-19 8 -38 23t-19 31q0 22 31.5 36t82.5 14q26 0 42.5 -1t31.5 -2t30.5 -2t37.5 -1t40 1t37 2t43 2t58 1q69 0 116.5 -15
t47.5 -46q0 -23 -9.5 -27t-20.5 -16q-5 -6 -8.5 -14t-6 -25t-3.5 -46.5t-1 -78.5q0 -84 7.5 -119t20.5 -46q7 -6 13 -8t10.5 -5t7.5 -9.5t3 -20.5q0 -26 -41 -38.5t-113 -12.5z" />
    <glyph glyph-name="afii10077" unicode="&#x43b;" horiz-adv-x="729" 
d="M555 -7q-38 0 -72.5 3t-61 9.5t-42 16t-15.5 22.5q0 21 9 30.5t20 19t20 24t9 44.5v145q0 41 -2.5 64.5t-11 35t-26 14.5t-47.5 3q-23 0 -28.5 -10t-5.5 -58v-76q0 -90 -12.5 -146t-35 -87.5t-53.5 -42.5t-69 -11q-70 0 -105 30.5t-35 80.5q0 37 23.5 59t55.5 22
q26 0 44.5 -15.5t18.5 -38.5q0 -14 -5.5 -21.5t-5.5 -21.5q0 -8 6.5 -13t13.5 -5q9 0 18.5 7.5t16.5 32t11.5 70.5t4.5 122q0 60 -9 83t-29 31q-19 8 -38 23t-19 31q0 22 31.5 36t82.5 14q26 0 42.5 -1t31.5 -2t30.5 -2t37.5 -1t40 1t37 2t43 2t58 1q69 0 116.5 -15
t47.5 -46q0 -23 -9.5 -27t-20.5 -16q-5 -6 -8.5 -14t-6 -25t-3.5 -46.5t-1 -78.5q0 -84 7.5 -119t20.5 -46q7 -6 13 -8t10.5 -5t7.5 -9.5t3 -20.5q0 -26 -41 -38.5t-113 -12.5z" />
    <glyph glyph-name="afii10078" unicode="&#xec;" horiz-adv-x="824" 
d="M358 23q-9 0 -17.5 3.5t-18.5 15.5t-24 36.5t-33 66.5q-15 33 -25 52t-16.5 28t-10.5 11.5t-8 2.5t-7 -3t-4.5 -12.5t-2 -29t-0.5 -52.5q0 -39 6 -51.5t21 -17.5q30 -9 30 -39q0 -24 -28.5 -32.5t-88.5 -8.5t-88 10.5t-28 33.5q0 13 6 20t13.5 11t15.5 7t13 8q5 6 9 17
t6.5 33.5t4 58.5t1.5 91q0 47 -1 74t-4 41.5t-8 20.5t-13 9q-43 21 -43 48q0 22 41 33t106 11q44 0 77.5 -3.5t39.5 -7.5q11 -5 26.5 -23.5t32.5 -52.5q32 -66 43 -98.5t27 -32.5q15 0 35.5 36.5t55.5 113.5q16 35 43.5 51.5t75.5 16.5q97 0 142.5 -9.5t45.5 -34.5
q0 -10 -5.5 -18t-21.5 -16q-5 -3 -11 -9.5t-10.5 -24t-7.5 -50.5t-3 -88q0 -81 4.5 -126t11.5 -53q2 -3 9 -5.5t14.5 -7.5t13.5 -12.5t6 -20.5q0 -29 -40 -40.5t-121 -11.5q-79 0 -126 12t-47 42q0 21 15 26.5t22 14.5q16 20 16 113q0 23 -3 30.5t-9 7.5q-7 0 -19.5 -17
t-37.5 -67q-21 -42 -35.5 -68t-25 -40.5t-19.5 -19t-18 -4.5z" />
    <glyph glyph-name="afii10078" unicode="&#x43c;" horiz-adv-x="824" 
d="M358 23q-9 0 -17.5 3.5t-18.5 15.5t-24 36.5t-33 66.5q-15 33 -25 52t-16.5 28t-10.5 11.5t-8 2.5t-7 -3t-4.5 -12.5t-2 -29t-0.5 -52.5q0 -39 6 -51.5t21 -17.5q30 -9 30 -39q0 -24 -28.5 -32.5t-88.5 -8.5t-88 10.5t-28 33.5q0 13 6 20t13.5 11t15.5 7t13 8q5 6 9 17
t6.5 33.5t4 58.5t1.5 91q0 47 -1 74t-4 41.5t-8 20.5t-13 9q-43 21 -43 48q0 22 41 33t106 11q44 0 77.5 -3.5t39.5 -7.5q11 -5 26.5 -23.5t32.5 -52.5q32 -66 43 -98.5t27 -32.5q15 0 35.5 36.5t55.5 113.5q16 35 43.5 51.5t75.5 16.5q97 0 142.5 -9.5t45.5 -34.5
q0 -10 -5.5 -18t-21.5 -16q-5 -3 -11 -9.5t-10.5 -24t-7.5 -50.5t-3 -88q0 -81 4.5 -126t11.5 -53q2 -3 9 -5.5t14.5 -7.5t13.5 -12.5t6 -20.5q0 -29 -40 -40.5t-121 -11.5q-79 0 -126 12t-47 42q0 21 15 26.5t22 14.5q16 20 16 113q0 23 -3 30.5t-9 7.5q-7 0 -19.5 -17
t-37.5 -67q-21 -42 -35.5 -68t-25 -40.5t-19.5 -19t-18 -4.5z" />
    <glyph glyph-name="afii10079" unicode="&#xed;" horiz-adv-x="703" 
d="M153 520q35 0 66.5 -3t55.5 -10t38.5 -19.5t14.5 -30.5q0 -14 -5.5 -23t-12.5 -18.5t-12.5 -22.5t-5.5 -35q0 -26 12 -32.5t48 -6.5q38 0 48.5 6.5t10.5 32.5q0 16 -2 33t-6 24q-7 15 -16 22t-9 26q0 32 29.5 44.5t94.5 12.5q82 0 132.5 -13t50.5 -50q0 -18 -7.5 -25
t-16.5 -17q-6 -7 -10.5 -24t-8 -40.5t-5 -51t-1.5 -56.5q0 -48 5 -89.5t18 -57.5q9 -11 17.5 -19t8.5 -27q0 -15 -11.5 -26.5t-30 -18.5t-42.5 -10.5t-49 -3.5q-52 0 -85.5 3.5t-53 10t-27.5 16.5t-8 23q0 17 5 23t11.5 14t11.5 26t5 59q0 37 -7 44q-8 8 -50 8
q-17 0 -32.5 -1.5t-19.5 -4.5q-5 -4 -7.5 -17t-2.5 -30q0 -36 5.5 -52.5t12.5 -25.5t12.5 -15.5t5.5 -21.5t-11 -26.5t-28.5 -18.5t-39.5 -10.5t-45 -3.5q-104 0 -145 14t-41 45q0 22 10.5 27t20.5 19q5 7 8.5 17t5.5 29t3 49t1 77q0 39 -1 64t-4 41t-8 25.5t-13 16.5
t-15.5 15t-7.5 27q0 37 35 50t100 13z" />
    <glyph glyph-name="afii10079" unicode="&#x43d;" horiz-adv-x="703" 
d="M153 520q35 0 66.5 -3t55.5 -10t38.5 -19.5t14.5 -30.5q0 -14 -5.5 -23t-12.5 -18.5t-12.5 -22.5t-5.5 -35q0 -26 12 -32.5t48 -6.5q38 0 48.5 6.5t10.5 32.5q0 16 -2 33t-6 24q-7 15 -16 22t-9 26q0 32 29.5 44.5t94.5 12.5q82 0 132.5 -13t50.5 -50q0 -18 -7.5 -25
t-16.5 -17q-6 -7 -10.5 -24t-8 -40.5t-5 -51t-1.5 -56.5q0 -48 5 -89.5t18 -57.5q9 -11 17.5 -19t8.5 -27q0 -15 -11.5 -26.5t-30 -18.5t-42.5 -10.5t-49 -3.5q-52 0 -85.5 3.5t-53 10t-27.5 16.5t-8 23q0 17 5 23t11.5 14t11.5 26t5 59q0 37 -7 44q-8 8 -50 8
q-17 0 -32.5 -1.5t-19.5 -4.5q-5 -4 -7.5 -17t-2.5 -30q0 -36 5.5 -52.5t12.5 -25.5t12.5 -15.5t5.5 -21.5t-11 -26.5t-28.5 -18.5t-39.5 -10.5t-45 -3.5q-104 0 -145 14t-41 45q0 22 10.5 27t20.5 19q5 7 8.5 17t5.5 29t3 49t1 77q0 39 -1 64t-4 41t-8 25.5t-13 16.5
t-15.5 15t-7.5 27q0 37 35 50t100 13z" />
    <glyph glyph-name="afii10080" unicode="&#xee;" horiz-adv-x="607" 
d="M18 246q0 121 95 201q42 36 95.5 55.5t112.5 19.5q60 0 109 -18.5t84.5 -51.5t55 -79.5t19.5 -103.5q0 -56 -21.5 -107.5t-61.5 -91.5q-88 -83 -218 -83q-112 0 -185 70q-41 39 -63 88t-22 101zM244 317q0 -29 6 -66.5t18 -73.5q24 -68 57 -68q19 0 30.5 16.5t11.5 47.5
q0 48 -7.5 89t-19 71t-26 46.5t-29.5 16.5q-41 0 -41 -79z" />
    <glyph glyph-name="afii10080" unicode="&#x43e;" horiz-adv-x="607" 
d="M18 246q0 121 95 201q42 36 95.5 55.5t112.5 19.5q60 0 109 -18.5t84.5 -51.5t55 -79.5t19.5 -103.5q0 -56 -21.5 -107.5t-61.5 -91.5q-88 -83 -218 -83q-112 0 -185 70q-41 39 -63 88t-22 101zM244 317q0 -29 6 -66.5t18 -73.5q24 -68 57 -68q19 0 30.5 16.5t11.5 47.5
q0 48 -7.5 89t-19 71t-26 46.5t-29.5 16.5q-41 0 -41 -79z" />
    <glyph glyph-name="afii10081" unicode="&#xef;" horiz-adv-x="706" 
d="M353 510q44 0 80.5 5t73.5 5q102 0 141.5 -11.5t39.5 -50.5q0 -18 -7 -25t-16 -18q-7 -8 -12 -17.5t-8 -26.5t-4.5 -44t-1.5 -69q0 -45 1.5 -74t4.5 -46.5t8 -27t11 -16.5q9 -10 16.5 -17.5t7.5 -25.5q0 -62 -138 -62q-95 0 -133.5 11t-38.5 45q0 19 5.5 26t12.5 16
t12.5 27t5.5 58v94q0 50 -2 79t-8.5 43.5t-18.5 18.5t-32 4q-19 0 -31 -3.5t-19 -15.5t-9 -36t-2 -65v-111q0 -25 1 -40t2.5 -24t4 -13.5t5.5 -8.5q7 -10 15 -17t8 -26q0 -31 -28.5 -46.5t-98.5 -15.5q-94 0 -138.5 12t-44.5 50q0 20 9 26.5t19 16.5q6 7 10 17.5t6.5 29.5
t3.5 50t1 79q0 77 -6.5 106t-18.5 39q-14 11 -19 20t-5 23q0 39 35.5 50.5t103.5 11.5q48 0 93 -5t103 -5z" />
    <glyph glyph-name="afii10081" unicode="&#x43f;" horiz-adv-x="706" 
d="M353 510q44 0 80.5 5t73.5 5q102 0 141.5 -11.5t39.5 -50.5q0 -18 -7 -25t-16 -18q-7 -8 -12 -17.5t-8 -26.5t-4.5 -44t-1.5 -69q0 -45 1.5 -74t4.5 -46.5t8 -27t11 -16.5q9 -10 16.5 -17.5t7.5 -25.5q0 -62 -138 -62q-95 0 -133.5 11t-38.5 45q0 19 5.5 26t12.5 16
t12.5 27t5.5 58v94q0 50 -2 79t-8.5 43.5t-18.5 18.5t-32 4q-19 0 -31 -3.5t-19 -15.5t-9 -36t-2 -65v-111q0 -25 1 -40t2.5 -24t4 -13.5t5.5 -8.5q7 -10 15 -17t8 -26q0 -31 -28.5 -46.5t-98.5 -15.5q-94 0 -138.5 12t-44.5 50q0 20 9 26.5t19 16.5q6 7 10 17.5t6.5 29.5
t3.5 50t1 79q0 77 -6.5 106t-18.5 39q-14 11 -19 20t-5 23q0 39 35.5 50.5t103.5 11.5q48 0 93 -5t103 -5z" />
    <glyph glyph-name="afii10082" unicode="&#xf0;" horiz-adv-x="677" 
d="M355 373q-23 0 -31 -9t-11 -29q-2 -19 -5 -56.5t-3 -90.5q0 -36 10.5 -50.5t38.5 -14.5q71 0 71 110q0 67 -22.5 103.5t-47.5 36.5zM312 6q0 -31 6 -43.5t25 -23.5q24 -13 39 -22t15 -34q0 -71 -196 -71q-87 0 -131 19t-44 50q0 26 16.5 37t34.5 25q13 11 16 59.5
t3 138.5q0 179 -15 194q-7 10 -20.5 11.5t-21.5 6.5q-24 17 -24 39q0 16 17 35t50 35q61 32 114 45t82 13q16 0 21 -6.5t5 -24.5q0 -32 12 -32q7 0 14.5 7.5t20.5 18.5q39 36 104 36q43 0 80 -17t64 -49t42 -78t15 -105q0 -119 -63 -197q-32 -41 -73.5 -62.5t-85.5 -21.5
q-23 0 -41.5 6t-33 13t-25 13t-16.5 6t-6 -21z" />
    <glyph glyph-name="afii10082" unicode="&#x440;" horiz-adv-x="677" 
d="M355 373q-23 0 -31 -9t-11 -29q-2 -19 -5 -56.5t-3 -90.5q0 -36 10.5 -50.5t38.5 -14.5q71 0 71 110q0 67 -22.5 103.5t-47.5 36.5zM312 6q0 -31 6 -43.5t25 -23.5q24 -13 39 -22t15 -34q0 -71 -196 -71q-87 0 -131 19t-44 50q0 26 16.5 37t34.5 25q13 11 16 59.5
t3 138.5q0 179 -15 194q-7 10 -20.5 11.5t-21.5 6.5q-24 17 -24 39q0 16 17 35t50 35q61 32 114 45t82 13q16 0 21 -6.5t5 -24.5q0 -32 12 -32q7 0 14.5 7.5t20.5 18.5q39 36 104 36q43 0 80 -17t64 -49t42 -78t15 -105q0 -119 -63 -197q-32 -41 -73.5 -62.5t-85.5 -21.5
q-23 0 -41.5 6t-33 13t-25 13t-16.5 6t-6 -21z" />
    <glyph glyph-name="afii10083" unicode="&#xf1;" horiz-adv-x="540" 
d="M22 253q0 93 52 157q42 53 104 82t136 29q50 0 89 -11.5t67 -31.5t42.5 -47t14.5 -58q0 -44 -28.5 -73.5t-69.5 -29.5q-23 0 -42.5 10t-34.5 32q-6 10 -10.5 21.5t-9.5 21t-14 16t-24 6.5q-22 0 -37 -18.5t-15 -49.5q0 -26 10 -50.5t26.5 -43t38 -29.5t45.5 -11
q19 0 35 5t30 10.5t26.5 10.5t24.5 5q20 0 34.5 -17t14.5 -43q0 -30 -20 -60t-59 -53q-37 -22 -78 -34t-83 -12q-110 0 -185 75q-80 78 -80 191z" />
    <glyph glyph-name="afii10083" unicode="&#x441;" horiz-adv-x="540" 
d="M22 253q0 93 52 157q42 53 104 82t136 29q50 0 89 -11.5t67 -31.5t42.5 -47t14.5 -58q0 -44 -28.5 -73.5t-69.5 -29.5q-23 0 -42.5 10t-34.5 32q-6 10 -10.5 21.5t-9.5 21t-14 16t-24 6.5q-22 0 -37 -18.5t-15 -49.5q0 -26 10 -50.5t26.5 -43t38 -29.5t45.5 -11
q19 0 35 5t30 10.5t26.5 10.5t24.5 5q20 0 34.5 -17t14.5 -43q0 -30 -20 -60t-59 -53q-37 -22 -78 -34t-83 -12q-110 0 -185 75q-80 78 -80 191z" />
    <glyph glyph-name="afii10084" unicode="&#xf2;" horiz-adv-x="633" 
d="M313 -9q-85 0 -135.5 11t-50.5 45q0 16 11 26.5t30 21.5q11 2 18 7t11 19t5.5 41.5t1.5 74.5v99q0 52 -8 65.5t-26 13.5q-22 0 -33 -9.5t-25 -36.5q-17 -33 -46 -33q-31 0 -48.5 33.5t-17.5 75.5q0 47 19 65.5t44 18.5q21 0 43.5 -2.5t52 -5t68.5 -5t92 -2.5q52 0 90 2.5
t66.5 5t51 5t43.5 2.5q26 0 44.5 -18.5t18.5 -65.5q0 -42 -17.5 -75.5t-48.5 -33.5q-29 0 -46 33q-14 27 -24.5 36.5t-33.5 9.5q-18 0 -26 -13.5t-8 -65.5v-99q0 -47 2 -74.5t6.5 -42t12 -19.5t18.5 -7q19 -10 28.5 -20.5t9.5 -26.5q0 -35 -53 -45.5t-140 -10.5z" />
    <glyph glyph-name="afii10084" unicode="&#x442;" horiz-adv-x="633" 
d="M313 -9q-85 0 -135.5 11t-50.5 45q0 16 11 26.5t30 21.5q11 2 18 7t11 19t5.5 41.5t1.5 74.5v99q0 52 -8 65.5t-26 13.5q-22 0 -33 -9.5t-25 -36.5q-17 -33 -46 -33q-31 0 -48.5 33.5t-17.5 75.5q0 47 19 65.5t44 18.5q21 0 43.5 -2.5t52 -5t68.5 -5t92 -2.5q52 0 90 2.5
t66.5 5t51 5t43.5 2.5q26 0 44.5 -18.5t18.5 -65.5q0 -42 -17.5 -75.5t-48.5 -33.5q-29 0 -46 33q-14 27 -24.5 36.5t-33.5 9.5q-18 0 -26 -13.5t-8 -65.5v-99q0 -47 2 -74.5t6.5 -42t12 -19.5t18.5 -7q19 -10 28.5 -20.5t9.5 -26.5q0 -35 -53 -45.5t-140 -10.5z" />
    <glyph glyph-name="afii10085" unicode="&#xf3;" horiz-adv-x="624" 
d="M200 520q78 0 118 -15t40 -53q0 -14 -5 -21.5t-10.5 -13t-10.5 -10t-5 -10.5q0 -7 7.5 -27.5t18 -42.5t23 -39.5t21.5 -17.5q8 0 16.5 17.5t15.5 39.5t11.5 41.5t4.5 23.5q0 9 -6 16t-13 14t-13 14.5t-6 18.5q0 27 29.5 46t89.5 19q56 0 80 -18t24 -47q0 -22 -7.5 -28.5
t-20 -15.5t-29.5 -29t-36 -70q-24 -63 -41 -111.5t-31 -88.5t-28.5 -76t-34.5 -75q-38 -76 -81 -112.5t-112 -36.5q-70 0 -118.5 38t-48.5 97q0 41 27.5 65t62.5 24q31 0 54 -18.5t23 -45.5q0 -10 -2.5 -14t-2.5 -14t6 -14.5t14 -4.5q12 0 20 9.5t8 26.5q0 37 -21 84
t-55 117l-78 160q-20 40 -28.5 52t-21.5 16q-18 6 -33 18t-15 37q0 38 53 56.5t147 18.5z" />
    <glyph glyph-name="afii10085" unicode="&#x443;" horiz-adv-x="624" 
d="M200 520q78 0 118 -15t40 -53q0 -14 -5 -21.5t-10.5 -13t-10.5 -10t-5 -10.5q0 -7 7.5 -27.5t18 -42.5t23 -39.5t21.5 -17.5q8 0 16.5 17.5t15.5 39.5t11.5 41.5t4.5 23.5q0 9 -6 16t-13 14t-13 14.5t-6 18.5q0 27 29.5 46t89.5 19q56 0 80 -18t24 -47q0 -22 -7.5 -28.5
t-20 -15.5t-29.5 -29t-36 -70q-24 -63 -41 -111.5t-31 -88.5t-28.5 -76t-34.5 -75q-38 -76 -81 -112.5t-112 -36.5q-70 0 -118.5 38t-48.5 97q0 41 27.5 65t62.5 24q31 0 54 -18.5t23 -45.5q0 -10 -2.5 -14t-2.5 -14t6 -14.5t14 -4.5q12 0 20 9.5t8 26.5q0 37 -21 84
t-55 117l-78 160q-20 40 -28.5 52t-21.5 16q-18 6 -33 18t-15 37q0 38 53 56.5t147 18.5z" />
    <glyph glyph-name="afii10086" unicode="&#xf4;" horiz-adv-x="936" 
d="M621 123q32 0 51.5 35.5t19.5 90.5q0 39 -3.5 63t-11 38t-19.5 18.5t-29 4.5q-24 0 -40 -28.5t-16 -98.5q0 -64 9.5 -93.5t38.5 -29.5zM468 -188q-196 0 -196 71q0 15 10.5 28.5t43.5 25.5q18 7 24.5 24t6.5 45q0 21 -6 21t-16.5 -5t-25 -11.5t-33 -11.5t-41.5 -5
q-99 0 -158 63.5t-59 171.5q0 59 15 110.5t41 90t62 61t79 22.5q31 0 57.5 -9t42.5 -21q15 -11 22 -14.5t12 -3.5t6.5 6.5t1.5 27.5q0 42 -13 53.5t-28.5 15.5t-28.5 12.5t-13 44.5q0 13 25 26.5t63 25t84 18.5t87 7q29 0 40.5 -8.5t11.5 -32.5q0 -23 -3 -61t-3 -91
q0 -29 1.5 -36.5t6.5 -7.5t12 3.5t22 14.5q21 16 47 26t57 10q85 0 139 -65.5t54 -183.5q0 -54 -15.5 -104t-43.5 -88t-68.5 -61t-89.5 -23q-23 0 -41.5 5t-33 11.5t-25 11.5t-16.5 5t-6 -21q0 -32 5.5 -47t25.5 -22q33 -12 43.5 -25.5t10.5 -28.5q0 -71 -196 -71zM363 246
q0 60 -11.5 93.5t-35.5 33.5q-32 0 -52 -31t-20 -109q0 -55 12.5 -82.5t47.5 -27.5q28 0 43.5 27.5t15.5 95.5z" />
    <glyph glyph-name="afii10086" unicode="&#x444;" horiz-adv-x="936" 
d="M621 123q32 0 51.5 35.5t19.5 90.5q0 39 -3.5 63t-11 38t-19.5 18.5t-29 4.5q-24 0 -40 -28.5t-16 -98.5q0 -64 9.5 -93.5t38.5 -29.5zM468 -188q-196 0 -196 71q0 15 10.5 28.5t43.5 25.5q18 7 24.5 24t6.5 45q0 21 -6 21t-16.5 -5t-25 -11.5t-33 -11.5t-41.5 -5
q-99 0 -158 63.5t-59 171.5q0 59 15 110.5t41 90t62 61t79 22.5q31 0 57.5 -9t42.5 -21q15 -11 22 -14.5t12 -3.5t6.5 6.5t1.5 27.5q0 42 -13 53.5t-28.5 15.5t-28.5 12.5t-13 44.5q0 13 25 26.5t63 25t84 18.5t87 7q29 0 40.5 -8.5t11.5 -32.5q0 -23 -3 -61t-3 -91
q0 -29 1.5 -36.5t6.5 -7.5t12 3.5t22 14.5q21 16 47 26t57 10q85 0 139 -65.5t54 -183.5q0 -54 -15.5 -104t-43.5 -88t-68.5 -61t-89.5 -23q-23 0 -41.5 5t-33 11.5t-25 11.5t-16.5 5t-6 -21q0 -32 5.5 -47t25.5 -22q33 -12 43.5 -25.5t10.5 -28.5q0 -71 -196 -71zM363 246
q0 60 -11.5 93.5t-35.5 33.5q-32 0 -52 -31t-20 -109q0 -55 12.5 -82.5t47.5 -27.5q28 0 43.5 27.5t15.5 95.5z" />
    <glyph glyph-name="afii10087" unicode="&#xf5;" horiz-adv-x="629" 
d="M-4 46q0 24 19 36q12 7 26.5 9.5t23.5 11.5q10 11 21.5 30t28.5 45q26 44 41.5 70t15.5 34q0 10 -41 65q-40 49 -50 55q-7 4 -21 4.5t-27 9.5q-16 12 -16 37q0 67 202 67q82 0 122 -9.5t40 -42.5q0 -21 -9 -33t-9 -18q0 -13 11 -29.5t21 -16.5q3 0 9.5 5.5t12.5 13
t10.5 16.5t4.5 15t-9 17.5t-9 26.5q0 25 26.5 40t73.5 15q103 0 103 -50q0 -13 -6.5 -21t-16.5 -14.5t-22 -13.5t-22 -18q-22 -24 -39 -48.5t-28.5 -44t-17.5 -32t-6 -13.5q0 -5 6.5 -20t19 -36t31 -45t42.5 -47q9 -9 18.5 -13.5t17.5 -8.5t13 -11t5 -22q0 -40 -48 -55
t-148 -15q-86 0 -127 10t-41 46q0 14 6 22t12.5 14t12.5 11t6 11q0 11 -5 23t-12 21.5t-15 16t-14 6.5q-5 0 -13 -8.5t-16 -21t-14 -25.5t-6 -22q0 -8 9 -18t9 -27q0 -35 -27 -44.5t-83 -9.5q-52 0 -77 9.5t-25 39.5z" />
    <glyph glyph-name="afii10087" unicode="&#x445;" horiz-adv-x="629" 
d="M-4 46q0 24 19 36q12 7 26.5 9.5t23.5 11.5q10 11 21.5 30t28.5 45q26 44 41.5 70t15.5 34q0 10 -41 65q-40 49 -50 55q-7 4 -21 4.5t-27 9.5q-16 12 -16 37q0 67 202 67q82 0 122 -9.5t40 -42.5q0 -21 -9 -33t-9 -18q0 -13 11 -29.5t21 -16.5q3 0 9.5 5.5t12.5 13
t10.5 16.5t4.5 15t-9 17.5t-9 26.5q0 25 26.5 40t73.5 15q103 0 103 -50q0 -13 -6.5 -21t-16.5 -14.5t-22 -13.5t-22 -18q-22 -24 -39 -48.5t-28.5 -44t-17.5 -32t-6 -13.5q0 -5 6.5 -20t19 -36t31 -45t42.5 -47q9 -9 18.5 -13.5t17.5 -8.5t13 -11t5 -22q0 -40 -48 -55
t-148 -15q-86 0 -127 10t-41 46q0 14 6 22t12.5 14t12.5 11t6 11q0 11 -5 23t-12 21.5t-15 16t-14 6.5q-5 0 -13 -8.5t-16 -21t-14 -25.5t-6 -22q0 -8 9 -18t9 -27q0 -35 -27 -44.5t-83 -9.5q-52 0 -77 9.5t-25 39.5z" />
    <glyph glyph-name="afii10088" unicode="&#xf6;" horiz-adv-x="735" 
d="M69 251q0 45 -1.5 74t-4.5 46.5t-8 27t-11 16.5q-9 10 -16 17.5t-7 25.5q0 62 137 62q95 0 133.5 -11t38.5 -45q0 -19 -5.5 -26.5t-12.5 -16.5t-12.5 -26.5t-5.5 -57.5v-96q0 -50 2 -79t8.5 -43.5t18.5 -18.5t32 -4q19 0 31 3.5t19 15.5t9 36t2 65v113q0 49 -3.5 63.5
t-9.5 22.5q-7 11 -15 17.5t-8 25.5q0 31 28.5 46.5t98.5 15.5q94 0 138.5 -12t44.5 -50q0 -20 -9 -26t-19 -17q-6 -7 -10 -17.5t-6.5 -29.5t-3.5 -50t-1 -79q0 -89 5 -119t14 -30q10 0 15 3t13 3q23 0 37.5 -22t14.5 -62q0 -52 -16 -81.5t-41 -29.5q-16 0 -23.5 3t-13 9.5
t-11.5 18t-19 28.5q-9 12 -34 21.5t-60 9.5q-22 0 -71.5 4.5t-95.5 4.5q-44 0 -92.5 -4.5t-85.5 -4.5q-81 0 -121.5 11t-40.5 49q0 18 6.5 25.5t15.5 17.5q9 8 15 17.5t10 26.5t5.5 44t1.5 69z" />
    <glyph glyph-name="afii10088" unicode="&#x446;" horiz-adv-x="735" 
d="M69 251q0 45 -1.5 74t-4.5 46.5t-8 27t-11 16.5q-9 10 -16 17.5t-7 25.5q0 62 137 62q95 0 133.5 -11t38.5 -45q0 -19 -5.5 -26.5t-12.5 -16.5t-12.5 -26.5t-5.5 -57.5v-96q0 -50 2 -79t8.5 -43.5t18.5 -18.5t32 -4q19 0 31 3.5t19 15.5t9 36t2 65v113q0 49 -3.5 63.5
t-9.5 22.5q-7 11 -15 17.5t-8 25.5q0 31 28.5 46.5t98.5 15.5q94 0 138.5 -12t44.5 -50q0 -20 -9 -26t-19 -17q-6 -7 -10 -17.5t-6.5 -29.5t-3.5 -50t-1 -79q0 -89 5 -119t14 -30q10 0 15 3t13 3q23 0 37.5 -22t14.5 -62q0 -52 -16 -81.5t-41 -29.5q-16 0 -23.5 3t-13 9.5
t-11.5 18t-19 28.5q-9 12 -34 21.5t-60 9.5q-22 0 -71.5 4.5t-95.5 4.5q-44 0 -92.5 -4.5t-85.5 -4.5q-81 0 -121.5 11t-40.5 49q0 18 6.5 25.5t15.5 17.5q9 8 15 17.5t10 26.5t5.5 44t1.5 69z" />
    <glyph glyph-name="afii10089" unicode="&#xf7;" horiz-adv-x="649" 
d="M458 -9q-80 0 -125 10.5t-45 42.5q0 23 11 28t23 15q18 15 24 29.5t6 53.5q0 14 -2 18.5t-6 4.5q-12 0 -52 -14t-104 -14q-19 0 -44 8t-47.5 25t-38 43.5t-15.5 64.5q0 34 -1 55t-3 32.5t-5.5 16.5t-8.5 7q-25 11 -25 40q0 17 15 29t39 19.5t54 11t60 3.5q51 0 83 -14
t32 -43q0 -17 -4.5 -23.5t-10.5 -12.5t-10.5 -16.5t-4.5 -34.5q0 -46 6.5 -70t28.5 -24q25 0 44.5 9.5t19.5 32.5v52q0 26 -4.5 36.5t-10.5 16t-10.5 11.5t-4.5 23q0 31 46 44t129 13q41 0 67 -5.5t41 -14.5t20.5 -19.5t5.5 -20.5q0 -14 -5 -22.5t-15 -15.5
q-11 -7 -18 -14.5t-10.5 -23.5t-5 -43.5t-1.5 -74.5q0 -57 1 -90t4 -51t8.5 -26t14.5 -15q21 -16 21 -40q0 -8 -7 -17.5t-26 -17.5t-51 -13t-83 -5z" />
    <glyph glyph-name="afii10089" unicode="&#x447;" horiz-adv-x="649" 
d="M458 -9q-80 0 -125 10.5t-45 42.5q0 23 11 28t23 15q18 15 24 29.5t6 53.5q0 14 -2 18.5t-6 4.5q-12 0 -52 -14t-104 -14q-19 0 -44 8t-47.5 25t-38 43.5t-15.5 64.5q0 34 -1 55t-3 32.5t-5.5 16.5t-8.5 7q-25 11 -25 40q0 17 15 29t39 19.5t54 11t60 3.5q51 0 83 -14
t32 -43q0 -17 -4.5 -23.5t-10.5 -12.5t-10.5 -16.5t-4.5 -34.5q0 -46 6.5 -70t28.5 -24q25 0 44.5 9.5t19.5 32.5v52q0 26 -4.5 36.5t-10.5 16t-10.5 11.5t-4.5 23q0 31 46 44t129 13q41 0 67 -5.5t41 -14.5t20.5 -19.5t5.5 -20.5q0 -14 -5 -22.5t-15 -15.5
q-11 -7 -18 -14.5t-10.5 -23.5t-5 -43.5t-1.5 -74.5q0 -57 1 -90t4 -51t8.5 -26t14.5 -15q21 -16 21 -40q0 -8 -7 -17.5t-26 -17.5t-51 -13t-83 -5z" />
    <glyph glyph-name="afii10090" unicode="&#xf8;" horiz-adv-x="982" 
d="M491 0q-65 0 -110.5 -2t-82.5 -5t-70 -5t-71 -2q-23 0 -48 3t-46 10.5t-34.5 19.5t-13.5 31q0 16 3.5 24t14.5 16t17.5 16t11 24.5t6 45.5t1.5 78q0 44 -1 70.5t-4 42.5t-8.5 25t-14.5 18q-8 8 -13.5 18.5t-5.5 26.5q0 24 19.5 37t46 19.5t53.5 7.5t41 1q12 0 35 -2
t45.5 -8.5t39.5 -18.5t17 -32q0 -18 -5 -27t-10.5 -16.5t-10.5 -18.5t-5 -33v-155q0 -38 2 -60t7.5 -33t14.5 -14t24 -3q14 0 23.5 3.5t15.5 15t8.5 33t2.5 57.5v135q0 36 -5.5 51.5t-12 23.5t-12 15.5t-5.5 25.5q0 17 17 29t40 19t46.5 10t36.5 3t36.5 -3t46.5 -10t40 -19
t17 -29q0 -18 -5.5 -25.5t-12 -15.5t-12 -23.5t-5.5 -51.5v-135q0 -36 2.5 -57.5t8.5 -33t15.5 -15t23.5 -3.5q15 0 24 3t14.5 14t7.5 33t2 60v155q0 22 -5 33t-10.5 18.5t-10.5 16.5t-5 27q0 20 17 32t39.5 18.5t45.5 8.5t35 2q14 0 41 -1t53.5 -7.5t46 -19.5t19.5 -37
q0 -16 -5.5 -26.5t-13.5 -18.5q-9 -9 -14.5 -18t-8.5 -25t-4 -42.5t-1 -70.5q0 -49 1.5 -78t6 -45.5t11 -24.5t17.5 -16t14.5 -16t3.5 -24q0 -19 -13.5 -31t-34.5 -19.5t-46 -10.5t-48 -3q-38 0 -71 2t-70 5t-82.5 5t-110.5 2z" />
    <glyph glyph-name="afii10090" unicode="&#x448;" horiz-adv-x="982" 
d="M491 0q-65 0 -110.5 -2t-82.5 -5t-70 -5t-71 -2q-23 0 -48 3t-46 10.5t-34.5 19.5t-13.5 31q0 16 3.5 24t14.5 16t17.5 16t11 24.5t6 45.5t1.5 78q0 44 -1 70.5t-4 42.5t-8.5 25t-14.5 18q-8 8 -13.5 18.5t-5.5 26.5q0 24 19.5 37t46 19.5t53.5 7.5t41 1q12 0 35 -2
t45.5 -8.5t39.5 -18.5t17 -32q0 -18 -5 -27t-10.5 -16.5t-10.5 -18.5t-5 -33v-155q0 -38 2 -60t7.5 -33t14.5 -14t24 -3q14 0 23.5 3.5t15.5 15t8.5 33t2.5 57.5v135q0 36 -5.5 51.5t-12 23.5t-12 15.5t-5.5 25.5q0 17 17 29t40 19t46.5 10t36.5 3t36.5 -3t46.5 -10t40 -19
t17 -29q0 -18 -5.5 -25.5t-12 -15.5t-12 -23.5t-5.5 -51.5v-135q0 -36 2.5 -57.5t8.5 -33t15.5 -15t23.5 -3.5q15 0 24 3t14.5 14t7.5 33t2 60v155q0 22 -5 33t-10.5 18.5t-10.5 16.5t-5 27q0 20 17 32t39.5 18.5t45.5 8.5t35 2q14 0 41 -1t53.5 -7.5t46 -19.5t19.5 -37
q0 -16 -5.5 -26.5t-13.5 -18.5q-9 -9 -14.5 -18t-8.5 -25t-4 -42.5t-1 -70.5q0 -49 1.5 -78t6 -45.5t11 -24.5t17.5 -16t14.5 -16t3.5 -24q0 -19 -13.5 -31t-34.5 -19.5t-46 -10.5t-48 -3q-38 0 -71 2t-70 5t-82.5 5t-110.5 2z" />
    <glyph glyph-name="afii10091" unicode="&#xf9;" horiz-adv-x="1008" 
d="M69 254q0 44 -1 70.5t-4 42.5t-8.5 25t-14.5 18q-8 8 -13.5 18.5t-5.5 26.5q0 24 19.5 37t46 19.5t53.5 7.5t41 1q12 0 35 -2t45.5 -8.5t39.5 -18.5t17 -32q0 -18 -5 -27t-10.5 -16.5t-10.5 -18.5t-5 -33v-155q0 -38 2 -60t7.5 -33t14.5 -14t24 -3q14 0 23.5 3.5t15.5 15
t8.5 33t2.5 57.5v135q0 36 -5.5 51.5t-12 23.5t-12 15.5t-5.5 25.5q0 17 17 29t40 19t46.5 10t36.5 3t36.5 -3t46.5 -10t40 -19t17 -29q0 -18 -5.5 -25.5t-12 -15.5t-12 -23.5t-5.5 -51.5v-135q0 -36 2.5 -57.5t8.5 -33t15.5 -15t23.5 -3.5q15 0 24 3t14.5 14t7.5 33t2 60
v155q0 22 -5 33t-10.5 18.5t-10.5 16.5t-5 27q0 20 18 32t42.5 18.5t48.5 8.5t36 2q76 0 114 -20t38 -45q0 -11 -5 -21t-18 -24q-11 -11 -17.5 -26.5t-6.5 -55.5v-140q0 -61 4.5 -79.5t14.5 -18.5q13 0 15.5 3t12.5 3q23 0 37.5 -22t14.5 -62q0 -52 -16 -81.5t-41 -29.5
q-14 0 -21.5 2.5t-13.5 9t-12.5 18t-18.5 29.5q-5 7 -32.5 16.5t-49.5 9.5q-21 0 -58 2t-81.5 5t-91 5t-85.5 2t-81.5 -2t-83.5 -5t-79 -5t-69 -2q-22 0 -50.5 3t-53.5 10.5t-42 19.5t-17 31q0 16 3.5 24t14.5 16t17.5 16t11 24.5t6 45.5t1.5 78z" />
    <glyph glyph-name="afii10091" unicode="&#x449;" horiz-adv-x="1008" 
d="M69 254q0 44 -1 70.5t-4 42.5t-8.5 25t-14.5 18q-8 8 -13.5 18.5t-5.5 26.5q0 24 19.5 37t46 19.5t53.5 7.5t41 1q12 0 35 -2t45.5 -8.5t39.5 -18.5t17 -32q0 -18 -5 -27t-10.5 -16.5t-10.5 -18.5t-5 -33v-155q0 -38 2 -60t7.5 -33t14.5 -14t24 -3q14 0 23.5 3.5t15.5 15
t8.5 33t2.5 57.5v135q0 36 -5.5 51.5t-12 23.5t-12 15.5t-5.5 25.5q0 17 17 29t40 19t46.5 10t36.5 3t36.5 -3t46.5 -10t40 -19t17 -29q0 -18 -5.5 -25.5t-12 -15.5t-12 -23.5t-5.5 -51.5v-135q0 -36 2.5 -57.5t8.5 -33t15.5 -15t23.5 -3.5q15 0 24 3t14.5 14t7.5 33t2 60
v155q0 22 -5 33t-10.5 18.5t-10.5 16.5t-5 27q0 20 18 32t42.5 18.5t48.5 8.5t36 2q76 0 114 -20t38 -45q0 -11 -5 -21t-18 -24q-11 -11 -17.5 -26.5t-6.5 -55.5v-140q0 -61 4.5 -79.5t14.5 -18.5q13 0 15.5 3t12.5 3q23 0 37.5 -22t14.5 -62q0 -52 -16 -81.5t-41 -29.5
q-14 0 -21.5 2.5t-13.5 9t-12.5 18t-18.5 29.5q-5 7 -32.5 16.5t-49.5 9.5q-21 0 -58 2t-81.5 5t-91 5t-85.5 2t-81.5 -2t-83.5 -5t-79 -5t-69 -2q-22 0 -50.5 3t-53.5 10.5t-42 19.5t-17 31q0 16 3.5 24t14.5 16t17.5 16t11 24.5t6 45.5t1.5 78z" />
    <glyph glyph-name="afii10092" unicode="&#xfa;" horiz-adv-x="749" 
d="M60 336q-28 0 -44 33.5t-16 75.5q0 41 17.5 62.5t40.5 21.5q41 0 86.5 -8t111.5 -8q41 0 81.5 3.5t70.5 3.5q19 0 39.5 -14t20.5 -36q0 -30 -15 -39q-14 -9 -23 -15.5t-14 -17t-6.5 -27t-1.5 -43.5q0 -19 16 -19q13 0 23.5 1.5t23.5 3t30.5 3t43.5 1.5q38 0 72 -9.5
t60 -28t41.5 -46.5t15.5 -64q0 -27 -6.5 -58t-27.5 -57.5t-59.5 -43.5t-101.5 -17q-59 0 -97.5 3t-75.5 3q-41 0 -77.5 -3t-80.5 -3q-21 0 -46 11t-25 44q0 20 6.5 24.5t16.5 14.5q8 8 13.5 18.5t8.5 29.5t4.5 50.5t1.5 80.5v69q0 52 -8 65.5t-24 13.5q-13 0 -24.5 -8.5
t-23.5 -37.5q-14 -33 -48 -33zM440 91q27 0 41.5 20.5t14.5 53.5q0 35 -14.5 52t-49.5 17q-14 0 -19 -13.5t-5 -66.5q0 -40 7.5 -51.5t24.5 -11.5z" />
    <glyph glyph-name="afii10092" unicode="&#x44a;" horiz-adv-x="749" 
d="M60 336q-28 0 -44 33.5t-16 75.5q0 41 17.5 62.5t40.5 21.5q41 0 86.5 -8t111.5 -8q41 0 81.5 3.5t70.5 3.5q19 0 39.5 -14t20.5 -36q0 -30 -15 -39q-14 -9 -23 -15.5t-14 -17t-6.5 -27t-1.5 -43.5q0 -19 16 -19q13 0 23.5 1.5t23.5 3t30.5 3t43.5 1.5q38 0 72 -9.5
t60 -28t41.5 -46.5t15.5 -64q0 -27 -6.5 -58t-27.5 -57.5t-59.5 -43.5t-101.5 -17q-59 0 -97.5 3t-75.5 3q-41 0 -77.5 -3t-80.5 -3q-21 0 -46 11t-25 44q0 20 6.5 24.5t16.5 14.5q8 8 13.5 18.5t8.5 29.5t4.5 50.5t1.5 80.5v69q0 52 -8 65.5t-24 13.5q-13 0 -24.5 -8.5
t-23.5 -37.5q-14 -33 -48 -33zM440 91q27 0 41.5 20.5t14.5 53.5q0 35 -14.5 52t-49.5 17q-14 0 -19 -13.5t-5 -66.5q0 -40 7.5 -51.5t24.5 -11.5z" />
    <glyph glyph-name="afii10093" unicode="&#xfb;" horiz-adv-x="960" 
d="M189 520q34 0 63.5 -3.5t51.5 -10t34.5 -16t12.5 -20.5q0 -30 -15 -39q-14 -9 -23 -15.5t-14 -17t-6.5 -27t-1.5 -43.5q0 -19 16 -19q13 0 23.5 1.5t23.5 3t30.5 3t43.5 1.5q30 0 61 -9.5t56 -28t41 -46.5t16 -64q0 -27 -8 -58t-28.5 -57.5t-55.5 -43.5t-88 -17
q-58 0 -97 3t-76 3q-41 0 -78 -3t-80 -3q-21 0 -46 11t-25 44q0 20 6.5 24.5t16.5 14.5q8 8 13.5 18.5t8.5 29.5t4.5 50.5t1.5 80.5q0 46 -1.5 73t-5 42.5t-9.5 24t-14 16.5q-17 17 -17 42q0 27 45 41t120 14zM323 91q27 0 41.5 20.5t14.5 53.5q0 35 -14.5 52t-49.5 17
q-13 0 -18.5 -13.5t-5.5 -66.5q0 -40 7.5 -51.5t24.5 -11.5zM890 243q0 -48 5 -89.5t18 -57.5q9 -11 17.5 -19t8.5 -27q0 -31 -45 -43.5t-131 -12.5q-84 0 -115.5 15t-31.5 29q0 22 7.5 29.5t17 18.5t17 35t7.5 80v104q0 34 -3 55.5t-8.5 35t-14 21t-19.5 14.5q-15 9 -15 39
q0 22 46.5 36t130.5 14q65 0 111 -13t46 -50q0 -18 -7.5 -25t-16.5 -17q-6 -7 -10.5 -24t-8 -40.5t-5 -51t-1.5 -56.5z" />
    <glyph glyph-name="afii10093" unicode="&#x44b;" horiz-adv-x="960" 
d="M189 520q34 0 63.5 -3.5t51.5 -10t34.5 -16t12.5 -20.5q0 -30 -15 -39q-14 -9 -23 -15.5t-14 -17t-6.5 -27t-1.5 -43.5q0 -19 16 -19q13 0 23.5 1.5t23.5 3t30.5 3t43.5 1.5q30 0 61 -9.5t56 -28t41 -46.5t16 -64q0 -27 -8 -58t-28.5 -57.5t-55.5 -43.5t-88 -17
q-58 0 -97 3t-76 3q-41 0 -78 -3t-80 -3q-21 0 -46 11t-25 44q0 20 6.5 24.5t16.5 14.5q8 8 13.5 18.5t8.5 29.5t4.5 50.5t1.5 80.5q0 46 -1.5 73t-5 42.5t-9.5 24t-14 16.5q-17 17 -17 42q0 27 45 41t120 14zM323 91q27 0 41.5 20.5t14.5 53.5q0 35 -14.5 52t-49.5 17
q-13 0 -18.5 -13.5t-5.5 -66.5q0 -40 7.5 -51.5t24.5 -11.5zM890 243q0 -48 5 -89.5t18 -57.5q9 -11 17.5 -19t8.5 -27q0 -31 -45 -43.5t-131 -12.5q-84 0 -115.5 15t-31.5 29q0 22 7.5 29.5t17 18.5t17 35t7.5 80v104q0 34 -3 55.5t-8.5 35t-14 21t-19.5 14.5q-15 9 -15 39
q0 22 46.5 36t130.5 14q65 0 111 -13t46 -50q0 -18 -7.5 -25t-16.5 -17q-6 -7 -10.5 -24t-8 -40.5t-5 -51t-1.5 -56.5z" />
    <glyph glyph-name="afii10094" unicode="&#xfc;" horiz-adv-x="627" 
d="M187 520q34 0 63.5 -3.5t51.5 -10t34.5 -16t12.5 -20.5q0 -30 -15 -39q-14 -9 -23 -15.5t-14 -17t-6.5 -27t-1.5 -43.5q0 -19 16 -19q13 0 23.5 1.5t23.5 3t30.5 3t43.5 1.5q38 0 72 -9.5t60 -28t41.5 -46.5t15.5 -64q0 -27 -6.5 -58t-27.5 -57.5t-59.5 -43.5t-101.5 -17
q-58 0 -97 3t-76 3q-41 0 -78 -3t-80 -3q-21 0 -46 11t-25 44q0 20 6.5 24.5t16.5 14.5q8 8 13.5 18.5t8.5 29.5t4.5 50.5t1.5 80.5q0 46 -1.5 73t-5 42.5t-9.5 24t-14 16.5q-17 17 -17 42q0 27 45 41t120 14zM321 91q27 0 41.5 20.5t14.5 53.5q0 35 -14.5 52t-49.5 17
q-13 0 -18.5 -13.5t-5.5 -66.5q0 -40 7.5 -51.5t24.5 -11.5z" />
    <glyph glyph-name="afii10094" unicode="&#x44c;" horiz-adv-x="627" 
d="M187 520q34 0 63.5 -3.5t51.5 -10t34.5 -16t12.5 -20.5q0 -30 -15 -39q-14 -9 -23 -15.5t-14 -17t-6.5 -27t-1.5 -43.5q0 -19 16 -19q13 0 23.5 1.5t23.5 3t30.5 3t43.5 1.5q38 0 72 -9.5t60 -28t41.5 -46.5t15.5 -64q0 -27 -6.5 -58t-27.5 -57.5t-59.5 -43.5t-101.5 -17
q-58 0 -97 3t-76 3q-41 0 -78 -3t-80 -3q-21 0 -46 11t-25 44q0 20 6.5 24.5t16.5 14.5q8 8 13.5 18.5t8.5 29.5t4.5 50.5t1.5 80.5q0 46 -1.5 73t-5 42.5t-9.5 24t-14 16.5q-17 17 -17 42q0 27 45 41t120 14zM321 91q27 0 41.5 20.5t14.5 53.5q0 35 -14.5 52t-49.5 17
q-13 0 -18.5 -13.5t-5.5 -66.5q0 -40 7.5 -51.5t24.5 -11.5z" />
    <glyph glyph-name="afii10095" unicode="&#xfd;" horiz-adv-x="600" 
d="M276 403q-58 0 -85.5 -19t-42 -42.5t-24 -42.5t-32.5 -19q-15 0 -26.5 9.5t-18.5 24t-11 32t-4 33.5q0 30 8.5 52t22 36.5t30 21t32.5 6.5q28 0 40.5 4t34.5 10q21 5 47.5 9t69.5 4q65 0 114 -19.5t83 -55t51 -84t17 -106.5q0 -125 -72.5 -195.5t-192.5 -70.5
q-38 0 -66.5 2t-52 6.5t-43.5 12.5t-41 21q-35 22 -65.5 49.5t-30.5 58.5q0 19 13.5 38t39.5 19q17 0 32.5 -14t36 -31.5t51 -31.5t77.5 -14q28 0 47 15.5t19 39.5q0 26 -21.5 38.5t-69.5 12.5q-35 0 -52.5 15.5t-17.5 34.5q0 29 21.5 40t55.5 11q45 0 62.5 11t17.5 33
q0 20 -14 32.5t-40 12.5z" />
    <glyph glyph-name="afii10095" unicode="&#x44d;" horiz-adv-x="600" 
d="M276 403q-58 0 -85.5 -19t-42 -42.5t-24 -42.5t-32.5 -19q-15 0 -26.5 9.5t-18.5 24t-11 32t-4 33.5q0 30 8.5 52t22 36.5t30 21t32.5 6.5q28 0 40.5 4t34.5 10q21 5 47.5 9t69.5 4q65 0 114 -19.5t83 -55t51 -84t17 -106.5q0 -125 -72.5 -195.5t-192.5 -70.5
q-38 0 -66.5 2t-52 6.5t-43.5 12.5t-41 21q-35 22 -65.5 49.5t-30.5 58.5q0 19 13.5 38t39.5 19q17 0 32.5 -14t36 -31.5t51 -31.5t77.5 -14q28 0 47 15.5t19 39.5q0 26 -21.5 38.5t-69.5 12.5q-35 0 -52.5 15.5t-17.5 34.5q0 29 21.5 40t55.5 11q45 0 62.5 11t17.5 33
q0 20 -14 32.5t-40 12.5z" />
    <glyph glyph-name="afii10096" unicode="&#xfe;" horiz-adv-x="924" 
d="M907 273q0 -61 -18.5 -113t-56 -89.5t-94 -58.5t-132.5 -21q-48 0 -90 15t-76 42t-56.5 63t-31.5 78q-4 18 -14 23.5t-19 5.5q-22 0 -28.5 -9t-6.5 -44q0 -36 5.5 -52.5t12 -25.5t12 -15.5t5.5 -21.5t-10.5 -26.5t-27.5 -18.5t-38 -10.5t-43 -3.5q-100 0 -139.5 14
t-39.5 45q0 11 3 17t7.5 10t9.5 8t10 11t8 17t5 29t3 49t1 77q0 39 -1 64t-3.5 41t-7.5 25.5t-13 16.5q-7 7 -14.5 15t-7.5 27q0 37 33.5 50t96.5 13q33 0 63.5 -3t54 -10t37 -19.5t13.5 -30.5q0 -14 -5.5 -23t-12 -18.5t-12 -22.5t-5.5 -35q0 -26 10 -32.5t34 -6.5
q9 0 15.5 2.5t9.5 12.5q14 43 41 78t64.5 60.5t83.5 39.5t97 14q60 0 109 -18.5t84.5 -51.5t55 -79.5t19.5 -103.5zM562 321q0 -21 4.5 -56t14.5 -68.5t25.5 -58.5t36.5 -25q19 0 30.5 16.5t11.5 47.5q0 48 -7.5 89t-19 71t-26 46.5t-29.5 16.5q-41 0 -41 -79z" />
    <glyph glyph-name="afii10096" unicode="&#x44e;" horiz-adv-x="924" 
d="M907 273q0 -61 -18.5 -113t-56 -89.5t-94 -58.5t-132.5 -21q-48 0 -90 15t-76 42t-56.5 63t-31.5 78q-4 18 -14 23.5t-19 5.5q-22 0 -28.5 -9t-6.5 -44q0 -36 5.5 -52.5t12 -25.5t12 -15.5t5.5 -21.5t-10.5 -26.5t-27.5 -18.5t-38 -10.5t-43 -3.5q-100 0 -139.5 14
t-39.5 45q0 11 3 17t7.5 10t9.5 8t10 11t8 17t5 29t3 49t1 77q0 39 -1 64t-3.5 41t-7.5 25.5t-13 16.5q-7 7 -14.5 15t-7.5 27q0 37 33.5 50t96.5 13q33 0 63.5 -3t54 -10t37 -19.5t13.5 -30.5q0 -14 -5.5 -23t-12 -18.5t-12 -22.5t-5.5 -35q0 -26 10 -32.5t34 -6.5
q9 0 15.5 2.5t9.5 12.5q14 43 41 78t64.5 60.5t83.5 39.5t97 14q60 0 109 -18.5t84.5 -51.5t55 -79.5t19.5 -103.5zM562 321q0 -21 4.5 -56t14.5 -68.5t25.5 -58.5t36.5 -25q19 0 30.5 16.5t11.5 47.5q0 48 -7.5 89t-19 71t-26 46.5t-29.5 16.5q-41 0 -41 -79z" />
    <glyph glyph-name="afii10097" unicode="&#xff;" horiz-adv-x="657" 
d="M485 -9q-72 0 -114 10.5t-42 39.5q0 18 6.5 26t13.5 18t13.5 27t6.5 53q0 27 -21 27q-16 0 -26.5 -3t-19 -13t-15 -28.5t-13.5 -48.5q-8 -33 -19.5 -54t-29.5 -33t-44 -16.5t-63 -4.5q-67 0 -92.5 20t-25.5 44q0 21 9 28.5t20 12t22 11t14 24.5q4 23 9 38t14.5 26.5
t24.5 22t40 24.5q1 1 4.5 2.5t3.5 4.5q0 5 -6 7q-37 6 -68 39t-31 92q0 65 58 99t170 34q40 0 78.5 -3t76.5 -3q24 0 49 3t51 3q53 0 75.5 -9t22.5 -43q0 -15 -7 -24t-16 -17t-16 -16.5t-7 -23.5v-163q0 -42 1.5 -66.5t4.5 -38t7.5 -19.5t10.5 -10q13 -9 17.5 -16.5
t4.5 -18.5q0 -13 -5.5 -25t-21.5 -20.5t-46 -13.5t-79 -5zM351 289q14 0 19.5 14.5t5.5 60.5q0 43 -5 53t-15 10q-34 0 -53 -17.5t-19 -45.5q0 -22 7 -36.5t17.5 -23t22 -12t20.5 -3.5z" />
    <glyph glyph-name="afii10097" unicode="&#x44f;" horiz-adv-x="657" 
d="M485 -9q-72 0 -114 10.5t-42 39.5q0 18 6.5 26t13.5 18t13.5 27t6.5 53q0 27 -21 27q-16 0 -26.5 -3t-19 -13t-15 -28.5t-13.5 -48.5q-8 -33 -19.5 -54t-29.5 -33t-44 -16.5t-63 -4.5q-67 0 -92.5 20t-25.5 44q0 21 9 28.5t20 12t22 11t14 24.5q4 23 9 38t14.5 26.5
t24.5 22t40 24.5q1 1 4.5 2.5t3.5 4.5q0 5 -6 7q-37 6 -68 39t-31 92q0 65 58 99t170 34q40 0 78.5 -3t76.5 -3q24 0 49 3t51 3q53 0 75.5 -9t22.5 -43q0 -15 -7 -24t-16 -17t-16 -16.5t-7 -23.5v-163q0 -42 1.5 -66.5t4.5 -38t7.5 -19.5t10.5 -10q13 -9 17.5 -16.5
t4.5 -18.5q0 -13 -5.5 -25t-21.5 -20.5t-46 -13.5t-79 -5zM351 289q14 0 19.5 14.5t5.5 60.5q0 43 -5 53t-15 10q-34 0 -53 -17.5t-19 -45.5q0 -22 7 -36.5t17.5 -23t22 -12t20.5 -3.5z" />
    </font>
</defs>
</svg>
